# Blender v2.91.2 OBJ File: 'ВЕРДЖИНИЯ.blend'
# www.blender.org
mtllib ВЕРДЖИНИЯ.mtl
o Cube.003_Cube.004
v 1.238104 0.163245 0.349600
v 1.238104 1.971245 0.349600
v -1.238104 0.163245 0.349601
v -1.238104 1.971245 0.349601
v 1.238104 0.163245 0.313981
v 1.238104 1.971245 0.313981
v -1.238104 0.163245 0.313981
v -1.238104 1.971245 0.313981
vt 0.375000 0.000000
vt 0.625000 0.000000
vt 0.625000 0.250000
vt 0.375000 0.250000
vt 0.625000 0.500000
vt 0.375000 0.500000
vt 0.625000 0.750000
vt 0.375000 0.750000
vt 0.625000 1.000000
vt 0.375000 1.000000
vt 0.125000 0.500000
vt 0.125000 0.750000
vt 0.875000 0.500000
vt 0.875000 0.750000
vn 0.0000 0.0000 1.0000
vn -1.0000 0.0000 0.0000
vn -0.0000 0.0000 -1.0000
vn 1.0000 0.0000 0.0000
vn 0.0000 -1.0000 0.0000
vn 0.0000 1.0000 0.0000
usemtl Material.004
s off
f 1/1/1 2/2/1 4/3/1 3/4/1
f 3/4/2 4/3/2 8/5/2 7/6/2
f 7/6/3 8/5/3 6/7/3 5/8/3
f 5/8/4 6/7/4 2/9/4 1/10/4
f 3/11/5 7/6/5 5/8/5 1/12/5
f 8/5/6 4/13/6 2/14/6 6/7/6
o Cube.006_Cube.007
v -1.146546 0.000244 0.327455
v -1.146546 0.273214 0.327455
v -1.146546 0.000244 -0.327455
v -1.146546 0.273214 -0.327455
v 1.146546 0.000244 0.327455
v 1.146546 0.273214 0.327455
v 1.146546 0.000244 -0.327455
v 1.146546 0.273214 -0.327455
v -1.240085 0.163245 0.399896
v -1.240085 1.971245 0.399896
v -1.240085 0.163245 -0.399896
v -1.240085 1.971245 -0.399896
v -1.204465 0.163245 0.399896
v -1.204465 1.971245 0.399896
v -1.204465 0.163245 -0.399896
v -1.204465 1.971245 -0.399896
v 1.204302 0.163245 0.399896
v 1.204302 1.971245 0.399896
v 1.204302 0.163245 -0.399896
v 1.204302 1.971245 -0.399896
v 1.239921 0.163245 0.399896
v 1.239921 1.971245 0.399896
v 1.239921 0.163245 -0.399896
v 1.239921 1.971245 -0.399896
v 1.238104 0.163245 -0.363775
v 1.238104 1.971245 -0.363775
v -1.238104 0.163245 -0.363775
v -1.238104 1.971245 -0.363775
v 1.238104 0.163245 -0.399395
v 1.238104 1.971245 -0.399395
v -1.238104 0.163245 -0.399395
v -1.238104 1.971245 -0.399395
v -1.240221 2.006075 0.399896
v 1.240221 2.006075 0.399896
v -1.240221 2.006075 -0.399896
v 1.240221 2.006075 -0.399896
v -1.240221 1.970456 0.399896
v 1.240221 1.970456 0.399896
v -1.240221 1.970456 -0.399896
v 1.240221 1.970456 -0.399896
v -1.240221 0.164034 0.399896
v 1.240221 0.164034 0.399896
v -1.240221 0.164034 -0.399896
v 1.240221 0.164034 -0.399896
v -1.240221 0.128414 0.399896
v 1.240221 0.128414 0.399896
v -1.240221 0.128414 -0.399896
v 1.240221 0.128414 -0.399896
vt 0.375000 0.000000
vt 0.625000 0.000000
vt 0.625000 0.250000
vt 0.375000 0.250000
vt 0.625000 0.500000
vt 0.375000 0.500000
vt 0.625000 0.750000
vt 0.375000 0.750000
vt 0.625000 1.000000
vt 0.375000 1.000000
vt 0.125000 0.500000
vt 0.125000 0.750000
vt 0.875000 0.500000
vt 0.875000 0.750000
vt 0.375000 0.000000
vt 0.625000 0.000000
vt 0.625000 0.250000
vt 0.375000 0.250000
vt 0.625000 0.500000
vt 0.375000 0.500000
vt 0.625000 0.750000
vt 0.375000 0.750000
vt 0.625000 1.000000
vt 0.375000 1.000000
vt 0.125000 0.500000
vt 0.125000 0.750000
vt 0.875000 0.500000
vt 0.875000 0.750000
vt 0.375000 0.000000
vt 0.625000 0.000000
vt 0.625000 0.250000
vt 0.375000 0.250000
vt 0.625000 0.500000
vt 0.375000 0.500000
vt 0.625000 0.750000
vt 0.375000 0.750000
vt 0.625000 1.000000
vt 0.375000 1.000000
vt 0.125000 0.500000
vt 0.125000 0.750000
vt 0.875000 0.500000
vt 0.875000 0.750000
vt 0.375000 0.000000
vt 0.625000 0.000000
vt 0.625000 0.250000
vt 0.375000 0.250000
vt 0.625000 0.500000
vt 0.375000 0.500000
vt 0.625000 0.750000
vt 0.375000 0.750000
vt 0.625000 1.000000
vt 0.375000 1.000000
vt 0.125000 0.500000
vt 0.125000 0.750000
vt 0.875000 0.500000
vt 0.875000 0.750000
vt 0.375000 0.000000
vt 0.625000 0.000000
vt 0.625000 0.250000
vt 0.375000 0.250000
vt 0.625000 0.500000
vt 0.375000 0.500000
vt 0.625000 0.750000
vt 0.375000 0.750000
vt 0.625000 1.000000
vt 0.375000 1.000000
vt 0.125000 0.500000
vt 0.125000 0.750000
vt 0.875000 0.500000
vt 0.875000 0.750000
vt 0.375000 0.000000
vt 0.625000 0.000000
vt 0.625000 0.250000
vt 0.375000 0.250000
vt 0.625000 0.500000
vt 0.375000 0.500000
vt 0.625000 0.750000
vt 0.375000 0.750000
vt 0.625000 1.000000
vt 0.375000 1.000000
vt 0.125000 0.500000
vt 0.125000 0.750000
vt 0.875000 0.500000
vt 0.875000 0.750000
vn -1.0000 0.0000 0.0000
vn 0.0000 0.0000 -1.0000
vn 1.0000 0.0000 0.0000
vn 0.0000 0.0000 1.0000
vn 0.0000 -1.0000 0.0000
vn 0.0000 1.0000 0.0000
usemtl Material.001
s off
f 9/15/7 10/16/7 12/17/7 11/18/7
f 11/18/8 12/17/8 16/19/8 15/20/8
f 15/20/9 16/19/9 14/21/9 13/22/9
f 13/22/10 14/21/10 10/23/10 9/24/10
f 11/25/11 15/20/11 13/22/11 9/26/11
f 16/19/12 12/27/12 10/28/12 14/21/12
f 17/29/7 18/30/7 20/31/7 19/32/7
f 19/32/8 20/31/8 24/33/8 23/34/8
f 23/34/9 24/33/9 22/35/9 21/36/9
f 21/36/10 22/35/10 18/37/10 17/38/10
f 19/39/11 23/34/11 21/36/11 17/40/11
f 24/33/12 20/41/12 18/42/12 22/35/12
f 25/43/7 26/44/7 28/45/7 27/46/7
f 27/46/8 28/45/8 32/47/8 31/48/8
f 31/48/9 32/47/9 30/49/9 29/50/9
f 29/50/10 30/49/10 26/51/10 25/52/10
f 27/53/11 31/48/11 29/50/11 25/54/11
f 32/47/12 28/55/12 26/56/12 30/49/12
f 33/57/10 34/58/10 36/59/10 35/60/10
f 35/60/7 36/59/7 40/61/7 39/62/7
f 39/62/8 40/61/8 38/63/8 37/64/8
f 37/64/9 38/63/9 34/65/9 33/66/9
f 35/67/11 39/62/11 37/64/11 33/68/11
f 40/61/12 36/69/12 34/70/12 38/63/12
f 41/71/12 42/72/12 44/73/12 43/74/12
f 43/74/8 44/73/8 48/75/8 47/76/8
f 47/76/11 48/75/11 46/77/11 45/78/11
f 45/78/10 46/77/10 42/79/10 41/80/10
f 43/81/7 47/76/7 45/78/7 41/82/7
f 48/75/9 44/83/9 42/84/9 46/77/9
f 49/85/12 50/86/12 52/87/12 51/88/12
f 51/88/8 52/87/8 56/89/8 55/90/8
f 55/90/11 56/89/11 54/91/11 53/92/11
f 53/92/10 54/91/10 50/93/10 49/94/10
f 51/95/7 55/90/7 53/92/7 49/96/7
f 56/89/9 52/97/9 50/98/9 54/91/9
o Cube.007_Cube.008
v -0.404519 0.163245 0.360659
v -0.404519 1.971245 0.360659
v -0.404519 0.163245 -0.190465
v -0.404519 1.971245 -0.190465
v -0.368900 0.163245 0.360659
v -0.368900 1.971245 0.360659
v -0.368900 0.163245 -0.190465
v -0.368900 1.971245 -0.190465
vt 0.375000 0.000000
vt 0.625000 0.000000
vt 0.625000 0.250000
vt 0.375000 0.250000
vt 0.625000 0.500000
vt 0.375000 0.500000
vt 0.625000 0.750000
vt 0.375000 0.750000
vt 0.625000 1.000000
vt 0.375000 1.000000
vt 0.125000 0.500000
vt 0.125000 0.750000
vt 0.875000 0.500000
vt 0.875000 0.750000
vn -1.0000 0.0000 0.0000
vn 0.0000 0.0000 -1.0000
vn 1.0000 0.0000 0.0000
vn 0.0000 0.0000 1.0000
vn 0.0000 -1.0000 0.0000
vn 0.0000 1.0000 0.0000
usemtl Material.003
s off
f 57/99/13 58/100/13 60/101/13 59/102/13
f 59/102/14 60/101/14 64/103/14 63/104/14
f 63/104/15 64/103/15 62/105/15 61/106/15
f 61/106/16 62/105/16 58/107/16 57/108/16
f 59/109/17 63/104/17 61/106/17 57/110/17
f 64/103/18 60/111/18 58/112/18 62/105/18
o Cube.011_Cube.017
v -0.388634 0.950670 0.399850
v 1.202172 0.950670 0.399850
v -0.388634 0.950670 0.339020
v 1.202172 0.950670 0.339020
v -0.388634 0.606610 0.399850
v 1.202172 0.606610 0.399850
v -0.388634 0.606610 0.339020
v 1.202172 0.606610 0.339020
v -1.204151 0.164158 0.399850
v -1.204151 1.847772 0.399850
v -1.204151 0.164158 0.339020
v -1.204151 1.847772 0.339020
v -0.391359 0.164158 0.399850
v -0.391359 1.847772 0.399850
v -0.391359 0.164158 0.339020
v -0.391359 1.847772 0.339020
v -0.388634 1.846606 0.399850
v 1.202172 1.846607 0.399850
v -0.388634 1.846606 0.339020
v 1.202172 1.846607 0.339020
v -0.388634 1.502547 0.399850
v 1.202172 1.502547 0.399850
v -0.388634 1.502547 0.339020
v 1.202172 1.502547 0.339020
v -0.388634 1.395649 0.399850
v 1.202172 1.395649 0.399850
v -0.388634 1.395649 0.339020
v 1.202172 1.395649 0.339020
v -0.388634 1.051589 0.399850
v 1.202172 1.051589 0.399850
v -0.388634 1.051589 0.339020
v 1.202172 1.051589 0.339020
v -0.388634 0.508739 0.399850
v 1.202172 0.508739 0.399850
v -0.388634 0.508739 0.339020
v 1.202172 0.508739 0.339020
v -0.388634 0.164679 0.399850
v 1.202172 0.164679 0.399850
v -0.388634 0.164679 0.339020
v 1.202172 0.164679 0.339020
vt 0.375000 0.000000
vt 0.625000 0.000000
vt 0.625000 0.250000
vt 0.375000 0.250000
vt 0.625000 0.500000
vt 0.375000 0.500000
vt 0.625000 0.750000
vt 0.375000 0.750000
vt 0.625000 1.000000
vt 0.375000 1.000000
vt 0.125000 0.500000
vt 0.125000 0.750000
vt 0.875000 0.500000
vt 0.875000 0.750000
vt 0.375000 0.000000
vt 0.625000 0.000000
vt 0.625000 0.250000
vt 0.375000 0.250000
vt 0.625000 0.500000
vt 0.375000 0.500000
vt 0.625000 0.750000
vt 0.375000 0.750000
vt 0.625000 1.000000
vt 0.375000 1.000000
vt 0.125000 0.500000
vt 0.125000 0.750000
vt 0.875000 0.500000
vt 0.875000 0.750000
vt 0.375000 0.000000
vt 0.625000 0.000000
vt 0.625000 0.250000
vt 0.375000 0.250000
vt 0.625000 0.500000
vt 0.375000 0.500000
vt 0.625000 0.750000
vt 0.375000 0.750000
vt 0.625000 1.000000
vt 0.375000 1.000000
vt 0.125000 0.500000
vt 0.125000 0.750000
vt 0.875000 0.500000
vt 0.875000 0.750000
vt 0.375000 0.000000
vt 0.625000 0.000000
vt 0.625000 0.250000
vt 0.375000 0.250000
vt 0.625000 0.500000
vt 0.375000 0.500000
vt 0.625000 0.750000
vt 0.375000 0.750000
vt 0.625000 1.000000
vt 0.375000 1.000000
vt 0.125000 0.500000
vt 0.125000 0.750000
vt 0.875000 0.500000
vt 0.875000 0.750000
vt 0.375000 0.000000
vt 0.625000 0.000000
vt 0.625000 0.250000
vt 0.375000 0.250000
vt 0.625000 0.500000
vt 0.375000 0.500000
vt 0.625000 0.750000
vt 0.375000 0.750000
vt 0.625000 1.000000
vt 0.375000 1.000000
vt 0.125000 0.500000
vt 0.125000 0.750000
vt 0.875000 0.500000
vt 0.875000 0.750000
vn -0.0000 1.0000 0.0000
vn 0.0000 0.0000 -1.0000
vn 0.0000 -1.0000 0.0000
vn 0.0000 0.0000 1.0000
vn -1.0000 0.0000 0.0000
vn 1.0000 0.0000 0.0000
usemtl Material.002
s off
f 65/113/19 66/114/19 68/115/19 67/116/19
f 67/116/20 68/115/20 72/117/20 71/118/20
f 71/118/21 72/117/21 70/119/21 69/120/21
f 69/120/22 70/119/22 66/121/22 65/122/22
f 67/123/23 71/118/23 69/120/23 65/124/23
f 72/117/24 68/125/24 66/126/24 70/119/24
f 73/127/23 74/128/23 76/129/23 75/130/23
f 75/130/20 76/129/20 80/131/20 79/132/20
f 79/132/24 80/131/24 78/133/24 77/134/24
f 77/134/22 78/133/22 74/135/22 73/136/22
f 75/137/21 79/132/21 77/134/21 73/138/21
f 80/131/19 76/139/19 74/140/19 78/133/19
f 81/141/19 82/142/19 84/143/19 83/144/19
f 83/144/20 84/143/20 88/145/20 87/146/20
f 87/146/21 88/145/21 86/147/21 85/148/21
f 85/148/22 86/147/22 82/149/22 81/150/22
f 83/151/23 87/146/23 85/148/23 81/152/23
f 88/145/24 84/153/24 82/154/24 86/147/24
f 89/155/19 90/156/19 92/157/19 91/158/19
f 91/158/20 92/157/20 96/159/20 95/160/20
f 95/160/21 96/159/21 94/161/21 93/162/21
f 93/162/22 94/161/22 90/163/22 89/164/22
f 91/165/23 95/160/23 93/162/23 89/166/23
f 96/159/24 92/167/24 90/168/24 94/161/24
f 97/169/19 98/170/19 100/171/19 99/172/19
f 99/172/20 100/171/20 104/173/20 103/174/20
f 103/174/21 104/173/21 102/175/21 101/176/21
f 101/176/22 102/175/22 98/177/22 97/178/22
f 99/179/23 103/174/23 101/176/23 97/180/23
f 104/173/24 100/181/24 98/182/24 102/175/24
