# Blender v2.91.2 OBJ File: 'oscar.blend'
# www.blender.org
mtllib oscar.mtl
o Куб.004
v 0.596062 0.138753 0.529389
v 0.596062 4.858753 0.529389
v -0.596062 0.138753 0.529389
v -0.596062 4.858753 0.529389
v 0.596062 0.138753 0.503324
v 0.596062 4.858753 0.503324
v -0.596062 0.138753 0.503324
v -0.596062 4.858753 0.503324
v -0.596004 0.138753 0.500000
v -0.596004 4.858753 0.500000
v -0.596004 0.138753 -0.500000
v -0.596004 4.858753 -0.500000
v -0.569940 0.138753 0.500000
v -0.569940 4.858753 0.500000
v -0.569940 0.138753 -0.500000
v -0.569940 4.858753 -0.500000
v 0.569857 0.138753 -0.473934
v 0.569857 4.858753 -0.473934
v -0.569857 0.138753 -0.473934
v -0.569857 4.858753 -0.473934
v 0.569857 0.138753 -0.499999
v 0.569857 4.858753 -0.499999
v -0.569857 0.138753 -0.499999
v -0.569857 4.858753 -0.499999
v -0.592484 0.001967 0.462431
v -0.592484 0.135184 0.462431
v -0.592484 0.001967 -0.500009
v -0.592484 0.135184 -0.500009
v 0.592484 0.001967 0.462431
v 0.592484 0.135184 0.462431
v 0.592484 0.001967 -0.500009
v 0.592484 0.135184 -0.500009
v -0.588994 4.725513 0.514055
v -0.588994 4.858730 0.514055
v -0.588994 4.725513 -0.475238
v -0.588994 4.858730 -0.475238
v 0.588994 4.725513 0.514055
v 0.588994 4.858730 0.514055
v 0.588994 4.725513 -0.475238
v 0.588994 4.858730 -0.475238
v 0.569940 0.138753 0.500000
v 0.569940 4.858753 0.500000
v 0.569940 0.138753 -0.500000
v 0.569940 4.858753 -0.500000
v 0.596004 0.138753 0.500000
v 0.596004 4.858753 0.500000
v 0.596004 0.138753 -0.500000
v 0.596004 4.858753 -0.500000
vt 0.381485 -0.577101
vt 0.618516 -0.577101
vt 0.618516 -0.038551
vt 0.381485 -0.038551
vt 0.618515 0.500000
vt 0.381484 0.500000
vt 0.618515 1.038551
vt 0.381484 1.038551
vt 0.618515 1.577101
vt 0.381484 1.577101
vt 0.144453 0.500000
vt 0.144453 1.038551
vt 0.855547 0.500000
vt 0.855546 1.038551
vt 0.381485 -0.577101
vt 0.618516 -0.577101
vt 0.618516 -0.038551
vt 0.381485 -0.038551
vt 0.618515 0.500000
vt 0.381484 0.500000
vt 0.618515 1.038551
vt 0.381484 1.038551
vt 0.618515 1.577101
vt 0.381484 1.577101
vt 0.144453 0.500000
vt 0.144453 1.038551
vt 0.855547 0.500000
vt 0.855546 1.038551
vt 0.381485 -0.577101
vt 0.618516 -0.577101
vt 0.618516 -0.038551
vt 0.381485 -0.038551
vt 0.618515 0.500000
vt 0.381484 0.500000
vt 0.618515 1.038551
vt 0.381484 1.038551
vt 0.618515 1.577101
vt 0.381484 1.577101
vt 0.144453 0.500000
vt 0.144453 1.038551
vt 0.855547 0.500000
vt 0.855546 1.038551
vt 0.381485 -0.577101
vt 0.618516 -0.577101
vt 0.618516 -0.038551
vt 0.381485 -0.038551
vt 0.618515 0.500000
vt 0.381484 0.500000
vt 0.618515 1.038551
vt 0.381484 1.038551
vt 0.618515 1.577101
vt 0.381484 1.577101
vt 0.144453 0.500000
vt 0.144453 1.038551
vt 0.855547 0.500000
vt 0.855546 1.038551
vt 0.381485 -0.577101
vt 0.618516 -0.577101
vt 0.618516 -0.038551
vt 0.381485 -0.038551
vt 0.618515 0.500000
vt 0.381484 0.500000
vt 0.618515 1.038551
vt 0.381484 1.038551
vt 0.618515 1.577101
vt 0.381484 1.577101
vt 0.144453 0.500000
vt 0.144453 1.038551
vt 0.855547 0.500000
vt 0.855546 1.038551
vt 0.381485 -0.577101
vt 0.618516 -0.577101
vt 0.618516 -0.038551
vt 0.381485 -0.038551
vt 0.618515 0.500000
vt 0.381484 0.500000
vt 0.618515 1.038551
vt 0.381484 1.038551
vt 0.618515 1.577101
vt 0.381484 1.577101
vt 0.144453 0.500000
vt 0.144453 1.038551
vt 0.855547 0.500000
vt 0.855546 1.038551
vn 0.0000 0.0000 1.0000
vn -1.0000 0.0000 0.0000
vn 0.0000 0.0000 -1.0000
vn 1.0000 0.0000 0.0000
vn 0.0000 -1.0000 0.0000
vn 0.0000 1.0000 0.0000
usemtl Материал
s off
f 1/1/1 2/2/1 4/3/1 3/4/1
f 3/4/2 4/3/2 8/5/2 7/6/2
f 7/6/3 8/5/3 6/7/3 5/8/3
f 5/8/4 6/7/4 2/9/4 1/10/4
f 3/11/5 7/6/5 5/8/5 1/12/5
f 8/5/6 4/13/6 2/14/6 6/7/6
f 9/15/2 10/16/2 12/17/2 11/18/2
f 11/18/3 12/17/3 16/19/3 15/20/3
f 15/20/4 16/19/4 14/21/4 13/22/4
f 13/22/1 14/21/1 10/23/1 9/24/1
f 11/25/5 15/20/5 13/22/5 9/26/5
f 16/19/6 12/27/6 10/28/6 14/21/6
f 17/29/1 18/30/1 20/31/1 19/32/1
f 19/32/2 20/31/2 24/33/2 23/34/2
f 23/34/3 24/33/3 22/35/3 21/36/3
f 21/36/4 22/35/4 18/37/4 17/38/4
f 19/39/5 23/34/5 21/36/5 17/40/5
f 24/33/6 20/41/6 18/42/6 22/35/6
f 25/43/2 26/44/2 28/45/2 27/46/2
f 27/46/3 28/45/3 32/47/3 31/48/3
f 31/48/4 32/47/4 30/49/4 29/50/4
f 29/50/1 30/49/1 26/51/1 25/52/1
f 27/53/5 31/48/5 29/50/5 25/54/5
f 32/47/6 28/55/6 26/56/6 30/49/6
f 33/57/2 34/58/2 36/59/2 35/60/2
f 35/60/3 36/59/3 40/61/3 39/62/3
f 39/62/4 40/61/4 38/63/4 37/64/4
f 37/64/1 38/63/1 34/65/1 33/66/1
f 35/67/5 39/62/5 37/64/5 33/68/5
f 40/61/6 36/69/6 34/70/6 38/63/6
f 41/71/2 42/72/2 44/73/2 43/74/2
f 43/74/3 44/73/3 48/75/3 47/76/3
f 47/76/4 48/75/4 46/77/4 45/78/4
f 45/78/1 46/77/1 42/79/1 41/80/1
f 43/81/5 47/76/5 45/78/5 41/82/5
f 48/75/6 44/83/6 42/84/6 46/77/6
o Куб.006
v -0.416480 2.307532 0.561430
v -0.416480 2.623580 0.561430
v -0.416480 2.307532 0.587096
v -0.416480 2.623580 0.587096
v -0.442146 2.307532 0.561430
v -0.442146 2.623580 0.561430
v -0.442146 2.307532 0.587096
v -0.442146 2.623580 0.587096
v -0.416480 2.649279 0.436261
v -0.416480 2.623613 0.436261
v -0.416480 2.623613 0.587048
v -0.442146 2.649279 0.436261
v -0.442146 2.623613 0.436261
v -0.442146 2.623613 0.587048
v -0.416480 2.649279 0.451262
v -0.416480 2.633010 0.587048
v -0.416480 2.649210 0.461237
v -0.416480 2.649002 0.471127
v -0.416480 2.648658 0.480847
v -0.416480 2.648180 0.490315
v -0.416480 2.647573 0.499450
v -0.416480 2.646842 0.508173
v -0.416480 2.645993 0.516411
v -0.416480 2.645033 0.524094
v -0.416480 2.643970 0.534763
v -0.416480 2.642814 0.546584
v -0.416480 2.641575 0.557042
v -0.416480 2.640262 0.566046
v -0.416480 2.638887 0.573520
v -0.416480 2.637463 0.579400
v -0.416480 2.636000 0.583637
v -0.416480 2.634511 0.586193
v -0.442146 2.633010 0.587048
v -0.442146 2.649279 0.451262
v -0.442146 2.634511 0.586193
v -0.442146 2.636000 0.583637
v -0.442146 2.637463 0.579400
v -0.442146 2.638887 0.573520
v -0.442146 2.640262 0.566046
v -0.442146 2.641575 0.557042
v -0.442146 2.642814 0.546584
v -0.442146 2.643970 0.534763
v -0.442146 2.645033 0.524094
v -0.442146 2.645993 0.516411
v -0.442146 2.646842 0.508173
v -0.442146 2.647573 0.499450
v -0.442146 2.648180 0.490315
v -0.442146 2.648658 0.480847
v -0.442146 2.649002 0.471127
v -0.442146 2.649210 0.461237
v -0.442146 2.282290 0.436261
v -0.442146 2.307956 0.436261
v -0.442146 2.307956 0.587048
v -0.416480 2.282290 0.436261
v -0.416480 2.307956 0.436261
v -0.416480 2.307956 0.587048
v -0.442146 2.282290 0.451262
v -0.442146 2.298559 0.587048
v -0.442146 2.282360 0.461237
v -0.442146 2.282568 0.471127
v -0.442146 2.282912 0.480847
v -0.442146 2.283389 0.490315
v -0.442146 2.283996 0.499450
v -0.442146 2.284727 0.508173
v -0.442146 2.285576 0.516411
v -0.442146 2.286536 0.524094
v -0.442146 2.287599 0.534763
v -0.442146 2.288755 0.546584
v -0.442146 2.289995 0.557042
v -0.442146 2.291307 0.566046
v -0.442146 2.292682 0.573520
v -0.442146 2.294107 0.579400
v -0.442146 2.295570 0.583637
v -0.442146 2.297058 0.586193
v -0.416480 2.298559 0.587048
v -0.416480 2.282290 0.451262
v -0.416480 2.297058 0.586193
v -0.416480 2.295570 0.583637
v -0.416480 2.294107 0.579400
v -0.416480 2.292682 0.573520
v -0.416480 2.291307 0.566046
v -0.416480 2.289995 0.557042
v -0.416480 2.288755 0.546584
v -0.416480 2.287599 0.534763
v -0.416480 2.286536 0.524094
v -0.416480 2.285576 0.516411
v -0.416480 2.284727 0.508173
v -0.416480 2.283996 0.499450
v -0.416480 2.283389 0.490315
v -0.416480 2.282912 0.480847
v -0.416480 2.282568 0.471127
v -0.416480 2.282360 0.461237
vt 0.375000 0.000000
vt 0.625000 0.000000
vt 0.625000 0.250000
vt 0.375000 0.250000
vt 0.625000 0.500000
vt 0.375000 0.500000
vt 0.625000 0.750000
vt 0.375000 0.750000
vt 0.625000 1.000000
vt 0.375000 1.000000
vt 0.125000 0.500000
vt 0.125000 0.750000
vt 0.875000 0.500000
vt 0.875000 0.750000
vt 0.625000 0.500000
vt 0.875000 0.500000
vt 0.875000 0.591535
vt 0.625000 0.591535
vt 0.375000 0.250000
vt 0.625000 0.250000
vt 0.375000 0.500000
vt 0.375000 0.000000
vt 0.466535 0.000000
vt 0.481157 0.000676
vt 0.495653 0.002698
vt 0.509901 0.006049
vt 0.523779 0.010701
vt 0.537169 0.016613
vt 0.549956 0.023735
vt 0.562032 0.032007
vt 0.573292 0.041358
vt 0.583642 0.051708
vt 0.592993 0.062968
vt 0.601265 0.075044
vt 0.608387 0.087831
vt 0.614299 0.101221
vt 0.618951 0.115099
vt 0.622302 0.129347
vt 0.624324 0.143843
vt 0.625000 0.158465
vt 0.125000 0.500000
vt 0.375000 0.750000
vt 0.125000 0.750000
vt 0.624324 0.606157
vt 0.622302 0.620653
vt 0.618951 0.634901
vt 0.614299 0.648779
vt 0.608387 0.662169
vt 0.601265 0.674956
vt 0.592993 0.687032
vt 0.583642 0.698292
vt 0.573292 0.708642
vt 0.562032 0.717993
vt 0.549956 0.726265
vt 0.537169 0.733387
vt 0.523779 0.739299
vt 0.509901 0.743951
vt 0.495653 0.747302
vt 0.481156 0.749324
vt 0.466535 0.750000
vt 0.875000 0.606157
vt 0.625000 0.606157
vt 0.875000 0.620653
vt 0.625000 0.620653
vt 0.875000 0.634901
vt 0.625000 0.634901
vt 0.875000 0.648779
vt 0.625000 0.648779
vt 0.875000 0.662169
vt 0.625000 0.662169
vt 0.875000 0.674956
vt 0.625000 0.674956
vt 0.875000 0.687032
vt 0.625000 0.687032
vt 0.875000 0.698292
vt 0.625000 0.698292
vt 0.625000 0.750000
vt 0.625000 1.000000
vt 0.573292 1.000000
vt 0.573292 0.750000
vt 0.562032 1.000000
vt 0.562032 0.750000
vt 0.549956 1.000000
vt 0.549956 0.750000
vt 0.537169 1.000000
vt 0.537169 0.750000
vt 0.523779 1.000000
vt 0.523779 0.750000
vt 0.509901 1.000000
vt 0.509901 0.750000
vt 0.495653 1.000000
vt 0.495653 0.750000
vt 0.481157 1.000000
vt 0.481157 0.750000
vt 0.466535 1.000000
vt 0.375000 1.000000
vt 0.625000 0.500000
vt 0.875000 0.500000
vt 0.875000 0.591535
vt 0.625000 0.591535
vt 0.375000 0.250000
vt 0.625000 0.250000
vt 0.375000 0.500000
vt 0.375000 0.000000
vt 0.466535 0.000000
vt 0.481157 0.000676
vt 0.495653 0.002698
vt 0.509901 0.006049
vt 0.523779 0.010701
vt 0.537169 0.016613
vt 0.549956 0.023735
vt 0.562032 0.032007
vt 0.573292 0.041358
vt 0.583642 0.051708
vt 0.592993 0.062968
vt 0.601265 0.075044
vt 0.608387 0.087831
vt 0.614299 0.101221
vt 0.618951 0.115099
vt 0.622302 0.129347
vt 0.624324 0.143843
vt 0.625000 0.158465
vt 0.125000 0.500000
vt 0.375000 0.750000
vt 0.125000 0.750000
vt 0.624324 0.606157
vt 0.622302 0.620653
vt 0.618951 0.634901
vt 0.614299 0.648779
vt 0.608387 0.662169
vt 0.601265 0.674956
vt 0.592993 0.687032
vt 0.583642 0.698292
vt 0.573292 0.708642
vt 0.562032 0.717993
vt 0.549956 0.726265
vt 0.537169 0.733387
vt 0.523779 0.739299
vt 0.509901 0.743951
vt 0.495653 0.747302
vt 0.481156 0.749324
vt 0.466535 0.750000
vt 0.875000 0.606157
vt 0.625000 0.606157
vt 0.875000 0.620653
vt 0.625000 0.620653
vt 0.875000 0.634901
vt 0.625000 0.634901
vt 0.875000 0.648779
vt 0.625000 0.648779
vt 0.875000 0.662169
vt 0.625000 0.662169
vt 0.875000 0.674956
vt 0.625000 0.674956
vt 0.875000 0.687032
vt 0.625000 0.687032
vt 0.875000 0.698292
vt 0.625000 0.698292
vt 0.625000 0.750000
vt 0.625000 1.000000
vt 0.573292 1.000000
vt 0.573292 0.750000
vt 0.562032 1.000000
vt 0.562032 0.750000
vt 0.549956 1.000000
vt 0.549956 0.750000
vt 0.537169 1.000000
vt 0.537169 0.750000
vt 0.523779 1.000000
vt 0.523779 0.750000
vt 0.509901 1.000000
vt 0.509901 0.750000
vt 0.495653 1.000000
vt 0.495653 0.750000
vt 0.481157 1.000000
vt 0.481157 0.750000
vt 0.466535 1.000000
vt 0.375000 1.000000
vn 1.0000 0.0000 0.0000
vn 0.0000 0.0000 1.0000
vn -1.0000 0.0000 0.0000
vn 0.0000 0.0000 -1.0000
vn 0.0000 -1.0000 0.0000
vn 0.0000 1.0000 0.0000
vn 0.0000 0.4948 0.8690
vn 0.0000 0.8642 0.5031
vn 0.0000 0.9452 0.3264
vn 0.0000 0.9719 0.2355
vn 0.0000 0.9835 0.1809
vn 0.0000 0.9895 0.1443
vn 0.0000 0.9930 0.1177
vn 0.0000 0.9953 0.0973
vn 0.0000 0.9951 0.0991
vn 0.0000 0.9923 0.1240
vn 0.0000 0.9947 0.1026
vn 0.0000 0.9965 0.0835
vn 0.0000 0.9978 0.0663
vn 0.0000 0.9987 0.0504
vn 0.0000 0.9994 0.0354
vn 0.0000 0.9998 0.0210
vn 0.0000 1.0000 0.0070
vn 0.0000 -0.4948 0.8690
vn 0.0000 -0.8642 0.5032
vn 0.0000 -0.9452 0.3264
vn 0.0000 -0.9719 0.2355
vn 0.0000 -0.9835 0.1809
vn 0.0000 -0.9895 0.1443
vn 0.0000 -0.9930 0.1177
vn 0.0000 -0.9953 0.0973
vn 0.0000 -0.9951 0.0991
vn 0.0000 -0.9923 0.1240
vn 0.0000 -0.9947 0.1025
vn 0.0000 -0.9965 0.0835
vn 0.0000 -0.9978 0.0663
vn 0.0000 -0.9987 0.0504
vn 0.0000 -0.9994 0.0354
vn 0.0000 -0.9998 0.0210
vn 0.0000 -1.0000 0.0070
usemtl Материал.001
s off
f 49/85/7 50/86/7 52/87/7 51/88/7
f 51/88/8 52/87/8 56/89/8 55/90/8
f 55/90/9 56/89/9 54/91/9 53/92/9
f 53/92/10 54/91/10 50/93/10 49/94/10
f 51/95/11 55/90/11 53/92/11 49/96/11
f 56/89/12 52/97/12 50/98/12 54/91/12
f 62/99/8 59/100/8 64/101/8 81/102/8
f 58/103/11 59/104/11 62/99/11 61/105/11
f 57/106/7 63/107/7 65/108/7 66/109/7 67/110/7 68/111/7 69/112/7 70/113/7 71/114/7 72/115/7 73/116/7 74/117/7 75/118/7 76/119/7 77/120/7 78/121/7 79/122/7 80/123/7 64/124/7 59/104/7 58/103/7
f 58/125/10 61/105/10 60/126/10 57/127/10
f 61/105/9 62/99/9 81/102/9 83/128/9 84/129/9 85/130/9 86/131/9 87/132/9 88/133/9 89/134/9 90/135/9 91/136/9 92/137/9 93/138/9 94/139/9 95/140/9 96/141/9 97/142/9 98/143/9 82/144/9 60/126/9
f 81/102/13 64/101/13 80/145/13 83/146/13
f 83/146/14 80/145/14 79/147/14 84/148/14
f 84/148/15 79/147/15 78/149/15 85/150/15
f 85/150/16 78/149/16 77/151/16 86/152/16
f 86/152/17 77/151/17 76/153/17 87/154/17
f 87/154/18 76/153/18 75/155/18 88/156/18
f 88/156/19 75/155/19 74/157/19 89/158/19
f 89/158/20 74/157/20 73/159/20 90/160/20
f 90/161/21 73/162/21 72/163/21 91/164/21
f 91/164/22 72/163/22 71/165/22 92/166/22
f 92/166/23 71/165/23 70/167/23 93/168/23
f 93/168/24 70/167/24 69/169/24 94/170/24
f 94/170/25 69/169/25 68/171/25 95/172/25
f 95/172/26 68/171/26 67/173/26 96/174/26
f 96/174/27 67/173/27 66/175/27 97/176/27
f 97/176/28 66/175/28 65/177/28 98/178/28
f 98/178/29 65/177/29 63/179/29 82/144/29
f 60/126/12 82/144/12 63/179/12 57/180/12
f 104/181/8 101/182/8 106/183/8 123/184/8
f 100/185/12 101/186/12 104/181/12 103/187/12
f 99/188/9 105/189/9 107/190/9 108/191/9 109/192/9 110/193/9 111/194/9 112/195/9 113/196/9 114/197/9 115/198/9 116/199/9 117/200/9 118/201/9 119/202/9 120/203/9 121/204/9 122/205/9 106/206/9 101/186/9 100/185/9
f 100/207/10 103/187/10 102/208/10 99/209/10
f 103/187/7 104/181/7 123/184/7 125/210/7 126/211/7 127/212/7 128/213/7 129/214/7 130/215/7 131/216/7 132/217/7 133/218/7 134/219/7 135/220/7 136/221/7 137/222/7 138/223/7 139/224/7 140/225/7 124/226/7 102/208/7
f 123/184/30 106/183/30 122/227/30 125/228/30
f 125/228/31 122/227/31 121/229/31 126/230/31
f 126/230/32 121/229/32 120/231/32 127/232/32
f 127/232/33 120/231/33 119/233/33 128/234/33
f 128/234/34 119/233/34 118/235/34 129/236/34
f 129/236/35 118/235/35 117/237/35 130/238/35
f 130/238/36 117/237/36 116/239/36 131/240/36
f 131/240/37 116/239/37 115/241/37 132/242/37
f 132/243/38 115/244/38 114/245/38 133/246/38
f 133/246/39 114/245/39 113/247/39 134/248/39
f 134/248/40 113/247/40 112/249/40 135/250/40
f 135/250/41 112/249/41 111/251/41 136/252/41
f 136/252/42 111/251/42 110/253/42 137/254/42
f 137/254/43 110/253/43 109/255/43 138/256/43
f 138/256/44 109/255/44 108/257/44 139/258/44
f 139/258/45 108/257/45 107/259/45 140/260/45
f 140/260/46 107/259/46 105/261/46 124/226/46
f 102/208/11 124/226/11 105/261/11 99/262/11
