# Blender v2.91.2 OBJ File: 'slide.blend'
# www.blender.org
mtllib slide.mtl
o Куб.002
v 0.874075 0.140527 -0.410340
v 0.874075 3.940527 -0.410340
v -0.874075 0.140527 -0.410340
v -0.874075 3.940527 -0.410340
v 0.874075 0.140527 -0.436340
v 0.874075 3.940527 -0.436340
v -0.874075 0.140527 -0.436340
v -0.874075 3.940527 -0.436340
v 0.874093 0.140527 0.443657
v 0.874093 3.940526 0.443657
v 0.874093 0.140527 -0.436342
v 0.874093 3.940526 -0.436342
v 0.900093 0.140527 0.443657
v 0.900093 3.940526 0.443657
v 0.900093 0.140527 -0.436342
v 0.900093 3.940526 -0.436342
v -0.900093 0.140527 0.443658
v -0.900093 3.940526 0.443658
v -0.900093 0.140527 -0.436343
v -0.900093 3.940526 -0.436343
v -0.874093 0.140527 0.443658
v -0.874093 3.940526 0.443658
v -0.874093 0.140527 -0.436343
v -0.874093 3.940526 -0.436343
v -0.834202 0.000000 0.411490
v -0.834202 0.119748 0.411490
v -0.834202 0.000000 -0.404175
v -0.834202 0.119748 -0.404175
v 0.834202 0.000000 0.411490
v 0.834202 0.119748 0.411490
v 0.834202 0.000000 -0.404175
v 0.834202 0.119748 -0.404175
v -0.900104 0.120011 0.443708
v -0.900104 0.140278 0.443708
v -0.900104 0.120011 -0.436393
v -0.900104 0.140278 -0.436393
v 0.900104 0.120011 0.443708
v 0.900104 0.140278 0.443708
v 0.900104 0.120011 -0.436393
v 0.900104 0.140278 -0.436393
v -0.900104 3.940533 0.443708
v -0.900104 3.960800 0.443708
v -0.900104 3.940533 -0.436393
v -0.900104 3.960800 -0.436393
v 0.900104 3.940533 0.443708
v 0.900104 3.960800 0.443708
v 0.900104 3.940533 -0.436393
v 0.900104 3.960800 -0.436393
v 0.870400 1.499193 0.404352
v 0.870400 2.581861 0.404352
v 0.002358 1.499193 0.404353
v 0.002358 2.581861 0.404353
v 0.870400 1.499193 0.378353
v 0.870400 2.581861 0.378353
v 0.002358 1.499193 0.378353
v 0.002358 2.581861 0.378353
v -0.002358 1.499193 0.421649
v -0.002358 2.581861 0.421649
v -0.870400 1.499193 0.421649
v -0.870400 2.581861 0.421649
v -0.002358 1.499193 0.395649
v -0.002358 2.581861 0.395649
v -0.870400 1.499193 0.395649
v -0.870400 2.581861 0.395649
vt 0.375000 0.000000
vt 0.625000 0.000000
vt 0.625000 0.250000
vt 0.375000 0.250000
vt 0.625000 0.500000
vt 0.375000 0.500000
vt 0.625000 0.750000
vt 0.375000 0.750000
vt 0.625000 1.000000
vt 0.375000 1.000000
vt 0.125000 0.500000
vt 0.125000 0.750000
vt 0.875000 0.500000
vt 0.875000 0.750000
vt 0.375000 0.000000
vt 0.625000 0.000000
vt 0.625000 0.250000
vt 0.375000 0.250000
vt 0.625000 0.500000
vt 0.375000 0.500000
vt 0.625000 0.750000
vt 0.375000 0.750000
vt 0.625000 1.000000
vt 0.375000 1.000000
vt 0.125000 0.500000
vt 0.125000 0.750000
vt 0.875000 0.500000
vt 0.875000 0.750000
vt 0.375000 0.000000
vt 0.625000 0.000000
vt 0.625000 0.250000
vt 0.375000 0.250000
vt 0.625000 0.500000
vt 0.375000 0.500000
vt 0.625000 0.750000
vt 0.375000 0.750000
vt 0.625000 1.000000
vt 0.375000 1.000000
vt 0.125000 0.500000
vt 0.125000 0.750000
vt 0.875000 0.500000
vt 0.875000 0.750000
vt 0.375000 0.000000
vt 0.625000 0.000000
vt 0.625000 0.250000
vt 0.375000 0.250000
vt 0.625000 0.500000
vt 0.375000 0.500000
vt 0.625000 0.750000
vt 0.375000 0.750000
vt 0.625000 1.000000
vt 0.375000 1.000000
vt 0.125000 0.500000
vt 0.125000 0.750000
vt 0.875000 0.500000
vt 0.875000 0.750000
vt 0.375000 0.000000
vt 0.625000 0.000000
vt 0.625000 0.250000
vt 0.375000 0.250000
vt 0.625000 0.500000
vt 0.375000 0.500000
vt 0.625000 0.750000
vt 0.375000 0.750000
vt 0.625000 1.000000
vt 0.375000 1.000000
vt 0.125000 0.500000
vt 0.125000 0.750000
vt 0.875000 0.500000
vt 0.875000 0.750000
vt 0.375000 0.000000
vt 0.625000 0.000000
vt 0.625000 0.250000
vt 0.375000 0.250000
vt 0.625000 0.500000
vt 0.375000 0.500000
vt 0.625000 0.750000
vt 0.375000 0.750000
vt 0.625000 1.000000
vt 0.375000 1.000000
vt 0.125000 0.500000
vt 0.125000 0.750000
vt 0.875000 0.500000
vt 0.875000 0.750000
vt 0.375000 0.000000
vt 0.625000 0.000000
vt 0.625000 0.250000
vt 0.375000 0.250000
vt 0.625000 0.500000
vt 0.375000 0.500000
vt 0.625000 0.750000
vt 0.375000 0.750000
vt 0.625000 1.000000
vt 0.375000 1.000000
vt 0.125000 0.500000
vt 0.125000 0.750000
vt 0.875000 0.500000
vt 0.875000 0.750000
vt 0.375000 0.000000
vt 0.625000 0.000000
vt 0.625000 0.250000
vt 0.375000 0.250000
vt 0.625000 0.500000
vt 0.375000 0.500000
vt 0.625000 0.750000
vt 0.375000 0.750000
vt 0.625000 1.000000
vt 0.375000 1.000000
vt 0.125000 0.500000
vt 0.125000 0.750000
vt 0.875000 0.500000
vt 0.875000 0.750000
vn 0.0000 0.0000 1.0000
vn -1.0000 0.0000 0.0000
vn -0.0000 0.0000 -1.0000
vn 1.0000 0.0000 0.0000
vn 0.0000 -1.0000 0.0000
vn 0.0000 1.0000 0.0000
usemtl material
s off
f 1/1/1 2/2/1 4/3/1 3/4/1
f 3/4/2 4/3/2 8/5/2 7/6/2
f 7/6/3 8/5/3 6/7/3 5/8/3
f 5/8/4 6/7/4 2/9/4 1/10/4
f 3/11/5 7/6/5 5/8/5 1/12/5
f 8/5/6 4/13/6 2/14/6 6/7/6
f 9/15/2 10/16/2 12/17/2 11/18/2
f 11/18/3 12/17/3 16/19/3 15/20/3
f 15/20/4 16/19/4 14/21/4 13/22/4
f 13/22/1 14/21/1 10/23/1 9/24/1
f 11/25/5 15/20/5 13/22/5 9/26/5
f 16/19/6 12/27/6 10/28/6 14/21/6
f 17/29/2 18/30/2 20/31/2 19/32/2
f 19/32/3 20/31/3 24/33/3 23/34/3
f 23/34/4 24/33/4 22/35/4 21/36/4
f 21/36/1 22/35/1 18/37/1 17/38/1
f 19/39/5 23/34/5 21/36/5 17/40/5
f 24/33/6 20/41/6 18/42/6 22/35/6
f 25/43/2 26/44/2 28/45/2 27/46/2
f 27/46/3 28/45/3 32/47/3 31/48/3
f 31/48/4 32/47/4 30/49/4 29/50/4
f 29/50/1 30/49/1 26/51/1 25/52/1
f 27/53/5 31/48/5 29/50/5 25/54/5
f 32/47/6 28/55/6 26/56/6 30/49/6
f 33/57/2 34/58/2 36/59/2 35/60/2
f 35/60/3 36/59/3 40/61/3 39/62/3
f 39/62/4 40/61/4 38/63/4 37/64/4
f 37/64/1 38/63/1 34/65/1 33/66/1
f 35/67/5 39/62/5 37/64/5 33/68/5
f 40/61/6 36/69/6 34/70/6 38/63/6
f 41/71/2 42/72/2 44/73/2 43/74/2
f 43/74/3 44/73/3 48/75/3 47/76/3
f 47/76/4 48/75/4 46/77/4 45/78/4
f 45/78/1 46/77/1 42/79/1 41/80/1
f 43/81/5 47/76/5 45/78/5 41/82/5
f 48/75/6 44/83/6 42/84/6 46/77/6
f 49/85/1 50/86/1 52/87/1 51/88/1
f 51/88/2 52/87/2 56/89/2 55/90/2
f 55/90/3 56/89/3 54/91/3 53/92/3
f 53/92/4 54/91/4 50/93/4 49/94/4
f 51/95/5 55/90/5 53/92/5 49/96/5
f 56/89/6 52/97/6 50/98/6 54/91/6
f 57/99/1 58/100/1 60/101/1 59/102/1
f 59/102/2 60/101/2 64/103/2 63/104/2
f 63/104/3 64/103/3 62/105/3 61/106/3
f 61/106/4 62/105/4 58/107/4 57/108/4
f 59/109/5 63/104/5 61/106/5 57/110/5
f 64/103/6 60/111/6 58/112/6 62/105/6
o Куб.012
v 0.010557 0.140527 0.429181
v 0.010557 3.940527 0.429181
v -0.013785 0.140527 0.429181
v -0.013785 3.940527 0.429181
v 0.010557 0.140527 0.403181
v 0.010557 3.940527 0.403181
v -0.013785 0.140527 0.403181
v -0.013785 3.940527 0.403181
v 0.874092 0.140569 0.435181
v 0.874092 0.147969 0.435181
v -0.874092 0.140569 0.435181
v -0.874092 0.147969 0.435181
v 0.874092 0.140569 0.409181
v 0.874092 0.147969 0.409181
v -0.874092 0.140569 0.409181
v -0.874092 0.147969 0.409181
v 0.874075 3.777897 0.435181
v 0.874075 3.940211 0.435181
v -0.874075 3.777897 0.435181
v -0.874075 3.940211 0.435181
v 0.874075 3.777897 0.409181
v 0.874075 3.940211 0.409181
v -0.874075 3.777897 0.409181
v -0.874075 3.940211 0.409181
v -0.876421 0.140527 0.423011
v -0.876421 3.940527 0.423011
v -0.876421 0.140527 0.417764
v -0.876421 3.940527 0.417764
v -0.850421 0.140527 0.423011
v -0.850421 3.940527 0.423011
v -0.850421 0.140527 0.417764
v -0.850421 3.940527 0.417764
v 0.850421 0.140527 0.423011
v 0.850421 3.940527 0.423011
v 0.850421 0.140527 0.417764
v 0.850421 3.940527 0.417764
v 0.876421 0.140527 0.423011
v 0.876421 3.940527 0.423011
v 0.876421 0.140527 0.417764
v 0.876421 3.940527 0.417764
vt 0.375000 0.000000
vt 0.625000 0.000000
vt 0.625000 0.250000
vt 0.375000 0.250000
vt 0.625000 0.500000
vt 0.375000 0.500000
vt 0.625000 0.750000
vt 0.375000 0.750000
vt 0.625000 1.000000
vt 0.375000 1.000000
vt 0.125000 0.500000
vt 0.125000 0.750000
vt 0.875000 0.500000
vt 0.875000 0.750000
vt 0.375000 0.000000
vt 0.625000 0.000000
vt 0.625000 0.250000
vt 0.375000 0.250000
vt 0.625000 0.500000
vt 0.375000 0.500000
vt 0.625000 0.750000
vt 0.375000 0.750000
vt 0.625000 1.000000
vt 0.375000 1.000000
vt 0.125000 0.500000
vt 0.125000 0.750000
vt 0.875000 0.500000
vt 0.875000 0.750000
vt 0.375000 0.000000
vt 0.625000 0.000000
vt 0.625000 0.250000
vt 0.375000 0.250000
vt 0.625000 0.500000
vt 0.375000 0.500000
vt 0.625000 0.750000
vt 0.375000 0.750000
vt 0.625000 1.000000
vt 0.375000 1.000000
vt 0.125000 0.500000
vt 0.125000 0.750000
vt 0.875000 0.500000
vt 0.875000 0.750000
vt 0.375000 0.000000
vt 0.625000 0.000000
vt 0.625000 0.250000
vt 0.375000 0.250000
vt 0.625000 0.500000
vt 0.375000 0.500000
vt 0.625000 0.750000
vt 0.375000 0.750000
vt 0.625000 1.000000
vt 0.375000 1.000000
vt 0.125000 0.500000
vt 0.125000 0.750000
vt 0.875000 0.500000
vt 0.875000 0.750000
vt 0.375000 0.000000
vt 0.625000 0.000000
vt 0.625000 0.250000
vt 0.375000 0.250000
vt 0.625000 0.500000
vt 0.375000 0.500000
vt 0.625000 0.750000
vt 0.375000 0.750000
vt 0.625000 1.000000
vt 0.375000 1.000000
vt 0.125000 0.500000
vt 0.125000 0.750000
vt 0.875000 0.500000
vt 0.875000 0.750000
vn 0.0000 0.0000 1.0000
vn -1.0000 0.0000 0.0000
vn 0.0000 0.0000 -1.0000
vn 1.0000 0.0000 -0.0000
vn 0.0000 -1.0000 -0.0000
vn 0.0000 1.0000 -0.0000
usemtl material2
s off
f 65/113/7 66/114/7 68/115/7 67/116/7
f 67/116/8 68/115/8 72/117/8 71/118/8
f 71/118/9 72/117/9 70/119/9 69/120/9
f 69/120/10 70/119/10 66/121/10 65/122/10
f 67/123/11 71/118/11 69/120/11 65/124/11
f 72/117/12 68/125/12 66/126/12 70/119/12
f 73/127/7 74/128/7 76/129/7 75/130/7
f 75/130/8 76/129/8 80/131/8 79/132/8
f 79/132/9 80/131/9 78/133/9 77/134/9
f 77/134/10 78/133/10 74/135/10 73/136/10
f 75/137/11 79/132/11 77/134/11 73/138/11
f 80/131/12 76/139/12 74/140/12 78/133/12
f 81/141/7 82/142/7 84/143/7 83/144/7
f 83/144/8 84/143/8 88/145/8 87/146/8
f 87/146/9 88/145/9 86/147/9 85/148/9
f 85/148/10 86/147/10 82/149/10 81/150/10
f 83/151/11 87/146/11 85/148/11 81/152/11
f 88/145/12 84/153/12 82/154/12 86/147/12
f 89/155/8 90/156/8 92/157/8 91/158/8
f 91/158/9 92/157/9 96/159/9 95/160/9
f 95/160/10 96/159/10 94/161/10 93/162/10
f 93/162/7 94/161/7 90/163/7 89/164/7
f 91/165/11 95/160/11 93/162/11 89/166/11
f 96/159/12 92/167/12 90/168/12 94/161/12
f 97/169/8 98/170/8 100/171/8 99/172/8
f 99/172/9 100/171/9 104/173/9 103/174/9
f 103/174/10 104/173/10 102/175/10 101/176/10
f 101/176/7 102/175/7 98/177/7 97/178/7
f 99/179/11 103/174/11 101/176/11 97/180/11
f 104/173/12 100/181/12 98/182/12 102/175/12
o Куб.011_Куб.013
v -0.002358 0.140527 0.416340
v -0.002358 3.940527 0.416340
v -0.870400 0.140527 0.416340
v -0.870400 3.940527 0.416340
v -0.002358 0.140527 0.390340
v -0.002358 3.940527 0.390340
v -0.870400 0.140527 0.390340
v -0.870400 3.940527 0.390340
v 0.870400 0.140528 0.396025
v 0.870400 3.940527 0.396025
v 0.002358 0.140528 0.396026
v 0.002358 3.940527 0.396026
v 0.870400 0.140528 0.370025
v 0.870400 3.940527 0.370025
v 0.002358 0.140528 0.370026
v 0.002358 3.940527 0.370026
vt 0.375000 0.000000
vt 0.625000 0.000000
vt 0.625000 0.250000
vt 0.375000 0.250000
vt 0.625000 0.500000
vt 0.375000 0.500000
vt 0.625000 0.750000
vt 0.375000 0.750000
vt 0.625000 1.000000
vt 0.375000 1.000000
vt 0.125000 0.500000
vt 0.125000 0.750000
vt 0.875000 0.500000
vt 0.875000 0.750000
vt 0.375000 0.000000
vt 0.625000 0.000000
vt 0.625000 0.250000
vt 0.375000 0.250000
vt 0.625000 0.500000
vt 0.375000 0.500000
vt 0.625000 0.750000
vt 0.375000 0.750000
vt 0.625000 1.000000
vt 0.375000 1.000000
vt 0.125000 0.500000
vt 0.125000 0.750000
vt 0.875000 0.500000
vt 0.875000 0.750000
vn 0.0000 0.0000 1.0000
vn -1.0000 0.0000 0.0000
vn -0.0000 0.0000 -1.0000
vn 1.0000 0.0000 0.0000
vn 0.0000 -1.0000 0.0000
vn 0.0000 1.0000 0.0000
usemtl material1
s off
f 105/183/13 106/184/13 108/185/13 107/186/13
f 107/186/14 108/185/14 112/187/14 111/188/14
f 111/188/15 112/187/15 110/189/15 109/190/15
f 109/190/16 110/189/16 106/191/16 105/192/16
f 107/193/17 111/188/17 109/190/17 105/194/17
f 112/187/18 108/195/18 106/196/18 110/189/18
f 113/197/13 114/198/13 116/199/13 115/200/13
f 115/200/14 116/199/14 120/201/14 119/202/14
f 119/202/15 120/201/15 118/203/15 117/204/15
f 117/204/16 118/203/16 114/205/16 113/206/16
f 115/207/17 119/202/17 117/204/17 113/208/17
f 120/201/18 116/209/18 114/210/18 118/203/18
