# Blender v2.91.2 OBJ File: 'MALMx6x2.blend'
# www.blender.org
mtllib MALMx6x2.mtl
o Cube.001_Cube.002
v -0.800217 0.004357 0.423056
v -0.800217 2.464357 0.423056
v -0.800217 0.004357 -0.476783
v -0.800217 2.464357 -0.476783
v -0.766936 0.004357 0.423056
v -0.766936 2.464357 0.423056
v -0.766936 0.004357 -0.476783
v -0.766936 2.464357 -0.476783
v 0.765608 0.004357 0.423056
v 0.765608 2.464357 0.423056
v 0.765608 0.004357 -0.476783
v 0.765608 2.464357 -0.476783
v 0.798889 0.004357 0.423056
v 0.798889 2.464357 0.423056
v 0.798889 0.004357 -0.476783
v 0.798889 2.464357 -0.476783
v -0.800933 2.496881 0.479243
v 0.799389 2.496881 0.479243
v -0.800933 2.496881 -0.479243
v 0.799389 2.496881 -0.479243
v -0.800933 2.463600 0.479243
v 0.799389 2.463600 0.479243
v -0.800933 2.463600 -0.479243
v 0.799389 2.463600 -0.479243
vt -0.015858 -1.563432
vt 1.015858 -1.563432
vt 1.015858 -0.531716
vt -0.015858 -0.531716
vt 1.015858 0.500000
vt -0.015858 0.500000
vt 1.015858 1.531716
vt -0.015858 1.531716
vt 1.015858 2.563432
vt -0.015858 2.563432
vt -1.047574 0.500000
vt -1.047574 1.531716
vt 2.047574 0.500000
vt 2.047574 1.531716
vt -0.015858 -1.563432
vt 1.015858 -1.563432
vt 1.015858 -0.531716
vt -0.015858 -0.531716
vt 1.015858 0.500000
vt -0.015858 0.500000
vt 1.015858 1.531716
vt -0.015858 1.531716
vt 1.015858 2.563432
vt -0.015858 2.563432
vt -1.047574 0.500000
vt -1.047574 1.531716
vt 2.047574 0.500000
vt 2.047574 1.531716
vt -0.015858 -1.563432
vt 1.015858 -1.563432
vt 1.015858 -0.531716
vt -0.015858 -0.531716
vt 1.015858 0.500000
vt -0.015858 0.500000
vt 1.015858 1.531716
vt -0.015858 1.531716
vt 1.015858 2.563432
vt -0.015858 2.563432
vt -1.047574 0.500000
vt -1.047574 1.531716
vt 2.047574 0.500000
vt 2.047574 1.531716
vn -1.0000 0.0000 0.0000
vn 0.0000 0.0000 -1.0000
vn 1.0000 0.0000 0.0000
vn 0.0000 0.0000 1.0000
vn 0.0000 -1.0000 0.0000
vn 0.0000 1.0000 0.0000
usemtl Material.003
s off
f 1/1/1 2/2/1 4/3/1 3/4/1
f 3/4/2 4/3/2 8/5/2 7/6/2
f 7/6/3 8/5/3 6/7/3 5/8/3
f 5/8/4 6/7/4 2/9/4 1/10/4
f 3/11/5 7/6/5 5/8/5 1/12/5
f 8/5/6 4/13/6 2/14/6 6/7/6
f 9/15/1 10/16/1 12/17/1 11/18/1
f 11/18/2 12/17/2 16/19/2 15/20/2
f 15/20/3 16/19/3 14/21/3 13/22/3
f 13/22/4 14/21/4 10/23/4 9/24/4
f 11/25/5 15/20/5 13/22/5 9/26/5
f 16/19/6 12/27/6 10/28/6 14/21/6
f 17/29/6 18/30/6 20/31/6 19/32/6
f 19/32/2 20/31/2 24/33/2 23/34/2
f 23/34/5 24/33/5 22/35/5 21/36/5
f 21/36/4 22/35/4 18/37/4 17/38/4
f 19/39/1 23/34/1 21/36/1 17/40/1
f 24/33/3 20/41/3 18/42/3 22/35/3
o Cube.003_Cube.004
v -0.766301 0.023164 0.426289
v -0.766301 2.463142 0.426289
v -0.766301 0.023164 -0.480016
v -0.766301 2.463142 -0.480016
v 0.765312 0.023164 0.426289
v 0.765312 2.463142 0.426289
v 0.765312 0.023164 -0.480016
v 0.765312 2.463142 -0.480016
vt -0.029736 -1.618946
vt 1.029737 -1.618946
vt 1.029737 -0.559473
vt -0.029736 -0.559473
vt 1.029737 0.500000
vt -0.029736 0.500000
vt 1.029737 1.559473
vt -0.029736 1.559473
vt 1.029737 2.618946
vt -0.029736 2.618946
vt -1.089209 0.500000
vt -1.089209 1.559473
vt 2.089209 0.500000
vt 2.089209 1.559473
vn -1.0000 0.0000 0.0000
vn 0.0000 0.0000 -1.0000
vn 1.0000 0.0000 0.0000
vn 0.0000 0.0000 1.0000
vn 0.0000 -1.0000 0.0000
vn 0.0000 1.0000 0.0000
usemtl Material.004
s off
f 25/43/7 26/44/7 28/45/7 27/46/7
f 27/46/8 28/45/8 32/47/8 31/48/8
f 31/48/9 32/47/9 30/49/9 29/50/9
f 29/50/10 30/49/10 26/51/10 25/52/10
f 27/53/11 31/48/11 29/50/11 25/54/11
f 32/47/12 28/55/12 26/56/12 30/49/12
o Cube.004_Cube.005
v -0.799658 2.014359 0.478065
v -0.799658 2.439195 0.478065
v -0.799658 2.014359 -0.465855
v -0.799658 2.439195 -0.465855
v -0.010483 2.014359 0.478065
v -0.010483 2.439195 0.478065
v -0.010483 2.014359 -0.465855
v -0.010483 2.439195 -0.465855
v 0.009103 2.014360 0.478065
v 0.009103 2.439195 0.478065
v 0.009103 2.014360 -0.465854
v 0.009103 2.439195 -0.465854
v 0.798277 2.014360 0.478065
v 0.798277 2.439195 0.478065
v 0.798277 2.014360 -0.465854
v 0.798277 2.439195 -0.465854
vt -0.024744 -1.598975
vt 1.024744 -1.598975
vt 1.024744 -0.549487
vt -0.024744 -0.549487
vt 1.024744 0.500000
vt -0.024744 0.500000
vt 1.024744 1.549487
vt -0.024744 1.549487
vt 1.024744 2.598975
vt -0.024744 2.598975
vt -1.074231 0.500000
vt -1.074231 1.549487
vt 2.074231 0.500000
vt 2.074231 1.549487
vt -0.024744 -1.598975
vt 1.024744 -1.598975
vt 1.024744 -0.549487
vt -0.024744 -0.549487
vt 1.024744 0.500000
vt -0.024744 0.500000
vt 1.024744 1.549487
vt -0.024744 1.549487
vt 1.024744 2.598975
vt -0.024744 2.598975
vt -1.074231 0.500000
vt -1.074231 1.549487
vt 2.074231 0.500000
vt 2.074231 1.549487
vn -1.0000 0.0000 0.0000
vn 0.0000 0.0000 -1.0000
vn 1.0000 0.0000 0.0000
vn 0.0000 0.0000 1.0000
vn 0.0000 -1.0000 0.0000
vn 0.0000 1.0000 0.0000
usemtl Material.002
s off
f 33/57/13 34/58/13 36/59/13 35/60/13
f 35/60/14 36/59/14 40/61/14 39/62/14
f 39/62/15 40/61/15 38/63/15 37/64/15
f 37/64/16 38/63/16 34/65/16 33/66/16
f 35/67/17 39/62/17 37/64/17 33/68/17
f 40/61/18 36/69/18 34/70/18 38/63/18
f 41/71/13 42/72/13 44/73/13 43/74/13
f 43/74/14 44/73/14 48/75/14 47/76/14
f 47/76/15 48/75/15 46/77/15 45/78/15
f 45/78/16 46/77/16 42/79/16 41/80/16
f 43/81/17 47/76/17 45/78/17 41/82/17
f 48/75/18 44/83/18 42/84/18 46/77/18
o Cube.009_Cube.010
v -0.799166 0.174402 0.478065
v -0.799166 0.599238 0.478065
v -0.799166 0.174402 -0.465855
v -0.799166 0.599238 -0.465855
v 0.797172 0.174402 0.478065
v 0.797172 0.599238 0.478065
v 0.797172 0.174402 -0.465855
v 0.797172 0.599238 -0.465855
v -0.799166 1.558305 0.478065
v -0.799166 1.983140 0.478065
v -0.799166 1.558305 -0.465855
v -0.799166 1.983140 -0.465855
v 0.797172 1.558305 0.478065
v 0.797172 1.983140 0.478065
v 0.797172 1.558305 -0.465855
v 0.797172 1.983140 -0.465855
v -0.799166 1.098883 0.478065
v -0.799166 1.523718 0.478065
v -0.799166 1.098883 -0.465855
v -0.799166 1.523718 -0.465855
v 0.797172 1.098883 0.478065
v 0.797172 1.523718 0.478065
v 0.797172 1.098883 -0.465855
v 0.797172 1.523718 -0.465855
v -0.799166 0.633824 0.478065
v -0.799166 1.058660 0.478065
v -0.799166 0.633824 -0.465855
v -0.799166 1.058660 -0.465855
v 0.797172 0.633824 0.478065
v 0.797172 1.058660 0.478065
v 0.797172 0.633824 -0.465855
v 0.797172 1.058660 -0.465855
vt -0.025428 -1.601711
vt 1.025428 -1.601711
vt 1.025428 -0.550856
vt -0.025428 -0.550856
vt 1.025428 0.500000
vt -0.025428 0.500000
vt 1.025428 1.550856
vt -0.025428 1.550856
vt 1.025428 2.601711
vt -0.025428 2.601711
vt -1.076283 0.500000
vt -1.076283 1.550856
vt 2.076283 0.500000
vt 2.076283 1.550856
vt -0.025428 -1.601711
vt 1.025428 -1.601711
vt 1.025428 -0.550856
vt -0.025428 -0.550856
vt 1.025428 0.500000
vt -0.025428 0.500000
vt 1.025428 1.550856
vt -0.025428 1.550856
vt 1.025428 2.601711
vt -0.025428 2.601711
vt -1.076283 0.500000
vt -1.076283 1.550856
vt 2.076283 0.500000
vt 2.076283 1.550856
vt -0.025428 -1.601711
vt 1.025428 -1.601711
vt 1.025428 -0.550856
vt -0.025428 -0.550856
vt 1.025428 0.500000
vt -0.025428 0.500000
vt 1.025428 1.550856
vt -0.025428 1.550856
vt 1.025428 2.601711
vt -0.025428 2.601711
vt -1.076283 0.500000
vt -1.076283 1.550856
vt 2.076283 0.500000
vt 2.076283 1.550856
vt -0.025428 -1.601711
vt 1.025428 -1.601711
vt 1.025428 -0.550856
vt -0.025428 -0.550856
vt 1.025428 0.500000
vt -0.025428 0.500000
vt 1.025428 1.550856
vt -0.025428 1.550856
vt 1.025428 2.601711
vt -0.025428 2.601711
vt -1.076283 0.500000
vt -1.076283 1.550856
vt 2.076283 0.500000
vt 2.076283 1.550856
vn -1.0000 0.0000 0.0000
vn 0.0000 0.0000 -1.0000
vn 1.0000 0.0000 0.0000
vn 0.0000 0.0000 1.0000
vn 0.0000 -1.0000 0.0000
vn 0.0000 1.0000 0.0000
usemtl Material.001
s off
f 49/85/19 50/86/19 52/87/19 51/88/19
f 51/88/20 52/87/20 56/89/20 55/90/20
f 55/90/21 56/89/21 54/91/21 53/92/21
f 53/92/22 54/91/22 50/93/22 49/94/22
f 51/95/23 55/90/23 53/92/23 49/96/23
f 56/89/24 52/97/24 50/98/24 54/91/24
f 57/99/19 58/100/19 60/101/19 59/102/19
f 59/102/20 60/101/20 64/103/20 63/104/20
f 63/104/21 64/103/21 62/105/21 61/106/21
f 61/106/22 62/105/22 58/107/22 57/108/22
f 59/109/23 63/104/23 61/106/23 57/110/23
f 64/103/24 60/111/24 58/112/24 62/105/24
f 65/113/19 66/114/19 68/115/19 67/116/19
f 67/116/20 68/115/20 72/117/20 71/118/20
f 71/118/21 72/117/21 70/119/21 69/120/21
f 69/120/22 70/119/22 66/121/22 65/122/22
f 67/123/23 71/118/23 69/120/23 65/124/23
f 72/117/24 68/125/24 66/126/24 70/119/24
f 73/127/19 74/128/19 76/129/19 75/130/19
f 75/130/20 76/129/20 80/131/20 79/132/20
f 79/132/21 80/131/21 78/133/21 77/134/21
f 77/134/22 78/133/22 74/135/22 73/136/22
f 75/137/23 79/132/23 77/134/23 73/138/23
f 80/131/24 76/139/24 74/140/24 78/133/24
o Cube.010_Cube.011
v -0.799166 -0.000697 0.478065
v -0.799166 0.167108 0.478065
v -0.799166 -0.000697 -0.465855
v -0.799166 0.167108 -0.465855
v 0.797172 -0.000697 0.478065
v 0.797172 0.167108 0.478065
v 0.797172 -0.000697 -0.465855
v 0.797172 0.167108 -0.465855
vt -0.023895 -1.595580
vt 1.023895 -1.595580
vt 1.023895 -0.547790
vt -0.023895 -0.547790
vt 1.023895 0.500000
vt -0.023895 0.500000
vt 1.023895 1.547790
vt -0.023895 1.547790
vt 1.023895 2.595580
vt -0.023895 2.595580
vt -1.071685 0.500000
vt -1.071685 1.547790
vt 2.071685 0.500000
vt 2.071685 1.547790
vn -1.0000 0.0000 0.0000
vn 0.0000 0.0000 -1.0000
vn 1.0000 0.0000 0.0000
vn 0.0000 0.0000 1.0000
vn 0.0000 -1.0000 0.0000
vn 0.0000 1.0000 0.0000
usemtl Material.005
s off
f 81/141/25 82/142/25 84/143/25 83/144/25
f 83/144/26 84/143/26 88/145/26 87/146/26
f 87/146/27 88/145/27 86/147/27 85/148/27
f 85/148/28 86/147/28 82/149/28 81/150/28
f 83/151/29 87/146/29 85/148/29 81/152/29
f 88/145/30 84/153/30 82/154/30 86/147/30
