# Blender v2.91.2 OBJ File: 'MALMx3.blend'
# www.blender.org
mtllib MALMx3.mtl
o Cube.001_Cube.002
v -0.799399 -0.001405 0.426015
v -0.799399 1.558595 0.426015
v -0.799399 -0.001405 -0.479595
v -0.799399 1.558595 -0.479595
v -0.769257 -0.001405 0.426015
v -0.769257 1.558595 0.426015
v -0.769257 -0.001405 -0.479595
v -0.769257 1.558595 -0.479595
v 0.768553 -0.001405 0.426015
v 0.768553 1.558595 0.426015
v 0.768553 -0.001405 -0.479595
v 0.768553 1.558595 -0.479595
v 0.798694 -0.001405 0.426015
v 0.798694 1.558595 0.426015
v 0.798694 -0.001405 -0.479595
v 0.798694 1.558595 -0.479595
v -0.798770 1.586849 0.479189
v 0.799894 1.586850 0.479189
v -0.798770 1.586849 -0.479189
v 0.799894 1.586850 -0.479189
v -0.798770 1.556708 0.479189
v 0.799894 1.556708 0.479189
v -0.798770 1.556708 -0.479189
v 0.799894 1.556708 -0.479189
vt -0.565644 -3.762577
vt 1.565644 -3.762577
vt 1.565644 -1.631289
vt -0.565644 -1.631289
vt 1.565644 0.500000
vt -0.565644 0.500000
vt 1.565644 2.631289
vt -0.565644 2.631289
vt 1.565644 4.762577
vt -0.565644 4.762577
vt -2.696933 0.500000
vt -2.696933 2.631289
vt 3.696933 0.500000
vt 3.696933 2.631289
vt -0.565644 -3.762577
vt 1.565644 -3.762577
vt 1.565644 -1.631289
vt -0.565644 -1.631289
vt 1.565644 0.500000
vt -0.565644 0.500000
vt 1.565644 2.631289
vt -0.565644 2.631289
vt 1.565644 4.762577
vt -0.565644 4.762577
vt -2.696933 0.500000
vt -2.696933 2.631289
vt 3.696933 0.500000
vt 3.696933 2.631289
vt -0.565644 -3.762577
vt 1.565644 -3.762577
vt 1.565644 -1.631289
vt -0.565644 -1.631289
vt 1.565644 0.500000
vt -0.565644 0.500000
vt 1.565644 2.631289
vt -0.565644 2.631289
vt 1.565644 4.762577
vt -0.565644 4.762577
vt -2.696933 0.500000
vt -2.696933 2.631289
vt 3.696933 0.500000
vt 3.696933 2.631289
vn -1.0000 0.0000 0.0000
vn 0.0000 0.0000 -1.0000
vn 1.0000 0.0000 0.0000
vn 0.0000 0.0000 1.0000
vn 0.0000 -1.0000 0.0000
vn 0.0000 1.0000 0.0000
usemtl Material.001
s off
f 1/1/1 2/2/1 4/3/1 3/4/1
f 3/4/2 4/3/2 8/5/2 7/6/2
f 7/6/3 8/5/3 6/7/3 5/8/3
f 5/8/4 6/7/4 2/9/4 1/10/4
f 3/11/5 7/6/5 5/8/5 1/12/5
f 8/5/6 4/13/6 2/14/6 6/7/6
f 9/15/1 10/16/1 12/17/1 11/18/1
f 11/18/2 12/17/2 16/19/2 15/20/2
f 15/20/3 16/19/3 14/21/3 13/22/3
f 13/22/4 14/21/4 10/23/4 9/24/4
f 11/25/5 15/20/5 13/22/5 9/26/5
f 16/19/6 12/27/6 10/28/6 14/21/6
f 17/29/6 18/30/6 20/31/6 19/32/6
f 19/32/2 20/31/2 24/33/2 23/34/2
f 23/34/5 24/33/5 22/35/5 21/36/5
f 21/36/4 22/35/4 18/37/4 17/38/4
f 19/39/1 23/34/1 21/36/1 17/40/1
f 24/33/3 20/41/3 18/42/3 22/35/3
o Cube.003_Cube.004
v -0.778274 0.054076 0.426516
v -0.778274 1.556286 0.426516
v -0.778274 0.054076 -0.479765
v -0.778274 1.556286 -0.479765
v 0.778274 0.054076 0.426516
v 0.778274 1.556286 0.426516
v 0.778274 0.054076 -0.479765
v 0.778274 1.556286 -0.479765
vt -0.586620 -3.846478
vt 1.586620 -3.846478
vt 1.586620 -1.673239
vt -0.586620 -1.673239
vt 1.586620 0.500000
vt -0.586620 0.500000
vt 1.586620 2.673239
vt -0.586620 2.673239
vt 1.586620 4.846478
vt -0.586620 4.846478
vt -2.759859 0.500000
vt -2.759859 2.673239
vt 3.759858 0.500000
vt 3.759858 2.673239
vn -1.0000 0.0000 0.0000
vn 0.0000 0.0000 -1.0000
vn 1.0000 0.0000 0.0000
vn 0.0000 0.0000 1.0000
vn 0.0000 -1.0000 0.0000
vn 0.0000 1.0000 0.0000
usemtl Material.003
s off
f 25/43/7 26/44/7 28/45/7 27/46/7
f 27/46/8 28/45/8 32/47/8 31/48/8
f 31/48/9 32/47/9 30/49/9 29/50/9
f 29/50/10 30/49/10 26/51/10 25/52/10
f 27/53/11 31/48/11 29/50/11 25/54/11
f 32/47/12 28/55/12 26/56/12 30/49/12
o Cube.006_Cube.007
v -0.790144 0.580767 0.479189
v 0.791269 0.580767 0.479189
v -0.790144 0.580767 -0.479189
v 0.791269 0.580767 -0.479189
v -0.790144 0.166159 0.479189
v 0.791269 0.166160 0.479189
v -0.790144 0.166159 -0.479189
v 0.791269 0.166160 -0.479189
v -0.790144 1.516883 0.479189
v 0.791269 1.516883 0.479189
v -0.790144 1.516883 -0.479189
v 0.791269 1.516883 -0.479189
v -0.790144 1.102275 0.479189
v 0.791269 1.102276 0.479189
v -0.790144 1.102275 -0.479189
v 0.791269 1.102276 -0.479189
v -0.790144 1.049840 0.479189
v 0.791269 1.049840 0.479189
v -0.790144 1.049840 -0.479189
v 0.791269 1.049840 -0.479189
v -0.790144 0.635233 0.479189
v 0.791269 0.635233 0.479189
v -0.790144 0.635233 -0.479189
v 0.791269 0.635233 -0.479189
vt -0.007546 -1.530182
vt 1.007545 -1.530182
vt 1.007545 -0.515091
vt -0.007546 -0.515091
vt 1.007545 0.500000
vt -0.007546 0.500000
vt 1.007545 1.515091
vt -0.007546 1.515091
vt 1.007545 2.530182
vt -0.007546 2.530182
vt -1.022636 0.500000
vt -1.022636 1.515091
vt 2.022636 0.500000
vt 2.022636 1.515091
vt -0.007546 -1.530182
vt 1.007545 -1.530182
vt 1.007545 -0.515091
vt -0.007546 -0.515091
vt 1.007545 0.500000
vt -0.007546 0.500000
vt 1.007545 1.515091
vt -0.007546 1.515091
vt 1.007545 2.530182
vt -0.007546 2.530182
vt -1.022636 0.500000
vt -1.022636 1.515091
vt 2.022636 0.500000
vt 2.022636 1.515091
vt -0.007546 -1.530182
vt 1.007545 -1.530182
vt 1.007545 -0.515091
vt -0.007546 -0.515091
vt 1.007545 0.500000
vt -0.007546 0.500000
vt 1.007545 1.515091
vt -0.007546 1.515091
vt 1.007545 2.530182
vt -0.007546 2.530182
vt -1.022636 0.500000
vt -1.022636 1.515091
vt 2.022636 0.500000
vt 2.022636 1.515091
vn -0.0000 1.0000 0.0000
vn 0.0000 0.0000 -1.0000
vn 0.0000 -1.0000 0.0000
vn -0.0000 0.0000 1.0000
vn -1.0000 0.0000 0.0000
vn 1.0000 0.0000 0.0000
usemtl Material.002
s off
f 33/57/13 34/58/13 36/59/13 35/60/13
f 35/60/14 36/59/14 40/61/14 39/62/14
f 39/62/15 40/61/15 38/63/15 37/64/15
f 37/64/16 38/63/16 34/65/16 33/66/16
f 35/67/17 39/62/17 37/64/17 33/68/17
f 40/61/18 36/69/18 34/70/18 38/63/18
f 41/71/13 42/72/13 44/73/13 43/74/13
f 43/74/14 44/73/14 48/75/14 47/76/14
f 47/76/15 48/75/15 46/77/15 45/78/15
f 45/78/16 46/77/16 42/79/16 41/80/16
f 43/81/17 47/76/17 45/78/17 41/82/17
f 48/75/18 44/83/18 42/84/18 46/77/18
f 49/85/13 50/86/13 52/87/13 51/88/13
f 51/88/14 52/87/14 56/89/14 55/90/14
f 55/90/15 56/89/15 54/91/15 53/92/15
f 53/92/16 54/91/16 50/93/16 49/94/16
f 51/95/17 55/90/17 53/92/17 49/96/17
f 56/89/18 52/97/18 50/98/18 54/91/18
