# Blender v2.91.2 OBJ File: 'Наоми.blend'
# www.blender.org
mtllib Наоми.mtl
o Cube.002_Cube.004
v 0.634088 0.067018 -0.380535
v 0.634088 0.771017 -0.380535
v -0.634088 0.067018 -0.380535
v -0.634088 0.771017 -0.380535
v 0.634088 0.067018 -0.400095
v 0.634088 0.771017 -0.400095
v -0.634088 0.067018 -0.400095
v -0.634088 0.771017 -0.400095
v 0.614443 0.067018 0.400043
v 0.614443 0.771017 0.400043
v 0.614443 0.067018 -0.400043
v 0.614443 0.771017 -0.400043
v 0.634003 0.067018 0.400043
v 0.634003 0.771017 0.400043
v 0.634003 0.067018 -0.400043
v 0.634003 0.771017 -0.400043
v -0.634003 0.067018 0.400043
v -0.634003 0.771017 0.400043
v -0.634003 0.067018 -0.400043
v -0.634003 0.771017 -0.400043
v -0.614443 0.067018 0.400043
v -0.614443 0.771017 0.400043
v -0.614443 0.067018 -0.400043
v -0.614443 0.771017 -0.400043
v 0.634089 0.771038 -0.400112
v 0.634089 0.771038 0.400112
v -0.634089 0.771038 -0.400112
v -0.634089 0.771038 0.400112
v 0.634089 0.790598 -0.400112
v 0.634089 0.790598 0.400112
v -0.634089 0.790598 -0.400112
v -0.634089 0.790598 0.400112
v 0.634089 0.047475 -0.400112
v 0.634089 0.047475 0.400112
v -0.634089 0.047476 -0.400112
v -0.634089 0.047476 0.400112
v 0.634089 0.067036 -0.400112
v 0.634089 0.067036 0.400112
v -0.634089 0.067036 -0.400112
v -0.634089 0.067036 0.400112
vt 0.375000 0.000000
vt 0.625000 0.000000
vt 0.625000 0.250000
vt 0.375000 0.250000
vt 0.625000 0.500000
vt 0.375000 0.500000
vt 0.625000 0.750000
vt 0.375000 0.750000
vt 0.625000 1.000000
vt 0.375000 1.000000
vt 0.125000 0.500000
vt 0.125000 0.750000
vt 0.875000 0.500000
vt 0.875000 0.750000
vt 0.375000 0.000000
vt 0.625000 0.000000
vt 0.625000 0.250000
vt 0.375000 0.250000
vt 0.625000 0.500000
vt 0.375000 0.500000
vt 0.625000 0.750000
vt 0.375000 0.750000
vt 0.625000 1.000000
vt 0.375000 1.000000
vt 0.125000 0.500000
vt 0.125000 0.750000
vt 0.875000 0.500000
vt 0.875000 0.750000
vt 0.375000 0.000000
vt 0.625000 0.000000
vt 0.625000 0.250000
vt 0.375000 0.250000
vt 0.625000 0.500000
vt 0.375000 0.500000
vt 0.625000 0.750000
vt 0.375000 0.750000
vt 0.625000 1.000000
vt 0.375000 1.000000
vt 0.125000 0.500000
vt 0.125000 0.750000
vt 0.875000 0.500000
vt 0.875000 0.750000
vt 0.375000 0.000000
vt 0.625000 0.000000
vt 0.625000 0.250000
vt 0.375000 0.250000
vt 0.625000 0.500000
vt 0.375000 0.500000
vt 0.625000 0.750000
vt 0.375000 0.750000
vt 0.625000 1.000000
vt 0.375000 1.000000
vt 0.125000 0.500000
vt 0.125000 0.750000
vt 0.875000 0.500000
vt 0.875000 0.750000
vt 0.375000 0.000000
vt 0.625000 0.000000
vt 0.625000 0.250000
vt 0.375000 0.250000
vt 0.625000 0.500000
vt 0.375000 0.500000
vt 0.625000 0.750000
vt 0.375000 0.750000
vt 0.625000 1.000000
vt 0.375000 1.000000
vt 0.125000 0.500000
vt 0.125000 0.750000
vt 0.875000 0.500000
vt 0.875000 0.750000
vn 0.0000 0.0000 1.0000
vn -1.0000 0.0000 0.0000
vn -0.0000 0.0000 -1.0000
vn 1.0000 0.0000 0.0000
vn 0.0000 -1.0000 0.0000
vn 0.0000 1.0000 0.0000
usemtl Material.003
s off
f 1/1/1 2/2/1 4/3/1 3/4/1
f 3/4/2 4/3/2 8/5/2 7/6/2
f 7/6/3 8/5/3 6/7/3 5/8/3
f 5/8/4 6/7/4 2/9/4 1/10/4
f 3/11/5 7/6/5 5/8/5 1/12/5
f 8/5/6 4/13/6 2/14/6 6/7/6
f 9/15/2 10/16/2 12/17/2 11/18/2
f 11/18/3 12/17/3 16/19/3 15/20/3
f 15/20/4 16/19/4 14/21/4 13/22/4
f 13/22/1 14/21/1 10/23/1 9/24/1
f 11/25/5 15/20/5 13/22/5 9/26/5
f 16/19/6 12/27/6 10/28/6 14/21/6
f 17/29/2 18/30/2 20/31/2 19/32/2
f 19/32/3 20/31/3 24/33/3 23/34/3
f 23/34/4 24/33/4 22/35/4 21/36/4
f 21/36/1 22/35/1 18/37/1 17/38/1
f 19/39/5 23/34/5 21/36/5 17/40/5
f 24/33/6 20/41/6 18/42/6 22/35/6
f 25/43/5 26/44/5 28/45/5 27/46/5
f 27/46/2 28/45/2 32/47/2 31/48/2
f 31/48/6 32/47/6 30/49/6 29/50/6
f 29/50/4 30/49/4 26/51/4 25/52/4
f 27/53/3 31/48/3 29/50/3 25/54/3
f 32/47/1 28/55/1 26/56/1 30/49/1
f 33/57/5 34/58/5 36/59/5 35/60/5
f 35/60/2 36/59/2 40/61/2 39/62/2
f 39/62/6 40/61/6 38/63/6 37/64/6
f 37/64/4 38/63/4 34/65/4 33/66/4
f 35/67/3 39/62/3 37/64/3 33/68/3
f 40/61/1 36/69/1 34/70/1 38/63/1
o Cube.006_Cube.008
v -0.620038 0.069736 0.399594
v -0.620038 0.516087 0.399594
v -0.620038 0.069736 0.342320
v -0.620038 0.516087 0.342320
v 0.620038 0.069736 0.399594
v 0.620038 0.516087 0.399594
v 0.620038 0.069736 0.342320
v 0.620038 0.516087 0.342320
v -0.620038 0.524012 0.399594
v -0.620038 0.779803 0.399594
v -0.620038 0.524012 0.342320
v -0.620038 0.779803 0.342320
v 0.620038 0.524012 0.399594
v 0.620038 0.779803 0.399594
v 0.620038 0.524012 0.342320
v 0.620038 0.779803 0.342320
vt 0.375000 0.000000
vt 0.625000 0.000000
vt 0.625000 0.250000
vt 0.375000 0.250000
vt 0.625000 0.500000
vt 0.375000 0.500000
vt 0.625000 0.750000
vt 0.375000 0.750000
vt 0.625000 1.000000
vt 0.375000 1.000000
vt 0.125000 0.500000
vt 0.125000 0.750000
vt 0.875000 0.500000
vt 0.875000 0.750000
vt 0.375000 0.000000
vt 0.625000 0.000000
vt 0.625000 0.250000
vt 0.375000 0.250000
vt 0.625000 0.500000
vt 0.375000 0.500000
vt 0.625000 0.750000
vt 0.375000 0.750000
vt 0.625000 1.000000
vt 0.375000 1.000000
vt 0.125000 0.500000
vt 0.125000 0.750000
vt 0.875000 0.500000
vt 0.875000 0.750000
vn -1.0000 0.0000 0.0000
vn 0.0000 0.0000 -1.0000
vn 1.0000 0.0000 0.0000
vn 0.0000 0.0000 1.0000
vn 0.0000 -1.0000 0.0000
vn 0.0000 1.0000 0.0000
usemtl Material.002
s off
f 41/71/7 42/72/7 44/73/7 43/74/7
f 43/74/8 44/73/8 48/75/8 47/76/8
f 47/76/9 48/75/9 46/77/9 45/78/9
f 45/78/10 46/77/10 42/79/10 41/80/10
f 43/81/11 47/76/11 45/78/11 41/82/11
f 48/75/12 44/83/12 42/84/12 46/77/12
f 49/85/7 50/86/7 52/87/7 51/88/7
f 51/88/8 52/87/8 56/89/8 55/90/8
f 55/90/9 56/89/9 54/91/9 53/92/9
f 53/92/10 54/91/10 50/93/10 49/94/10
f 51/95/11 55/90/11 53/92/11 49/96/11
f 56/89/12 52/97/12 50/98/12 54/91/12
o Cube.007_Cube.009
v 0.629722 0.067018 0.375922
v 0.629722 0.771017 0.375922
v -0.629722 0.067018 0.375922
v -0.629722 0.771017 0.375922
v 0.629722 0.067018 0.356361
v 0.629722 0.771017 0.356361
v -0.629722 0.067018 0.356361
v -0.629722 0.771017 0.356361
vt 0.375000 0.000000
vt 0.625000 0.000000
vt 0.625000 0.250000
vt 0.375000 0.250000
vt 0.625000 0.500000
vt 0.375000 0.500000
vt 0.625000 0.750000
vt 0.375000 0.750000
vt 0.625000 1.000000
vt 0.375000 1.000000
vt 0.125000 0.500000
vt 0.125000 0.750000
vt 0.875000 0.500000
vt 0.875000 0.750000
vn 0.0000 0.0000 1.0000
vn -1.0000 0.0000 0.0000
vn -0.0000 0.0000 -1.0000
vn 1.0000 0.0000 0.0000
vn 0.0000 -1.0000 0.0000
vn 0.0000 1.0000 0.0000
usemtl Material.005
s off
f 57/99/13 58/100/13 60/101/13 59/102/13
f 59/102/14 60/101/14 64/103/14 63/104/14
f 63/104/15 64/103/15 62/105/15 61/106/15
f 61/106/16 62/105/16 58/107/16 57/108/16
f 59/109/17 63/104/17 61/106/17 57/110/17
f 64/103/18 60/111/18 58/112/18 62/105/18
o Cube.001_Cube.012
v -0.153319 0.310077 0.393361
v -0.153319 0.310077 0.415593
v -0.153319 0.319138 0.393361
v -0.153319 0.319138 0.415593
v 0.153319 0.310077 0.393361
v 0.153319 0.310077 0.415593
v 0.153319 0.319138 0.393361
v 0.153319 0.319138 0.415593
v -0.153319 0.296906 0.424655
v -0.153319 0.319139 0.424655
v -0.153319 0.296906 0.415593
v -0.153319 0.319139 0.415593
v 0.153319 0.296906 0.424655
v 0.153319 0.319139 0.424655
v 0.153319 0.296906 0.415593
v 0.153319 0.319139 0.415593
v -0.153319 0.664952 0.393360
v -0.153319 0.664952 0.415593
v -0.153319 0.674014 0.393360
v -0.153319 0.674014 0.415593
v 0.153319 0.664952 0.393360
v 0.153319 0.664952 0.415593
v 0.153319 0.674014 0.393360
v 0.153319 0.674014 0.415593
v -0.153319 0.651781 0.424655
v -0.153319 0.674014 0.424655
v -0.153319 0.651781 0.415593
v -0.153319 0.674014 0.415593
v 0.153319 0.651781 0.424655
v 0.153319 0.674014 0.424655
v 0.153319 0.651781 0.415593
v 0.153319 0.674014 0.415593
vt 0.375000 0.000000
vt 0.625000 0.000000
vt 0.625000 0.250000
vt 0.375000 0.250000
vt 0.625000 0.500000
vt 0.375000 0.500000
vt 0.625000 0.750000
vt 0.375000 0.750000
vt 0.625000 1.000000
vt 0.375000 1.000000
vt 0.125000 0.500000
vt 0.125000 0.750000
vt 0.875000 0.500000
vt 0.875000 0.750000
vt 0.375000 0.000000
vt 0.625000 0.000000
vt 0.625000 0.250000
vt 0.375000 0.250000
vt 0.625000 0.500000
vt 0.375000 0.500000
vt 0.625000 0.750000
vt 0.375000 0.750000
vt 0.625000 1.000000
vt 0.375000 1.000000
vt 0.125000 0.500000
vt 0.125000 0.750000
vt 0.875000 0.500000
vt 0.875000 0.750000
vt 0.375000 0.000000
vt 0.625000 0.000000
vt 0.625000 0.250000
vt 0.375000 0.250000
vt 0.625000 0.500000
vt 0.375000 0.500000
vt 0.625000 0.750000
vt 0.375000 0.750000
vt 0.625000 1.000000
vt 0.375000 1.000000
vt 0.125000 0.500000
vt 0.125000 0.750000
vt 0.875000 0.500000
vt 0.875000 0.750000
vt 0.375000 0.000000
vt 0.625000 0.000000
vt 0.625000 0.250000
vt 0.375000 0.250000
vt 0.625000 0.500000
vt 0.375000 0.500000
vt 0.625000 0.750000
vt 0.375000 0.750000
vt 0.625000 1.000000
vt 0.375000 1.000000
vt 0.125000 0.500000
vt 0.125000 0.750000
vt 0.875000 0.500000
vt 0.875000 0.750000
vn -1.0000 0.0000 0.0000
vn 0.0000 1.0000 0.0000
vn 1.0000 0.0000 0.0000
vn 0.0000 -1.0000 0.0000
vn 0.0000 0.0000 -1.0000
vn 0.0000 0.0000 1.0000
usemtl Material.001
s off
f 65/113/19 66/114/19 68/115/19 67/116/19
f 67/116/20 68/115/20 72/117/20 71/118/20
f 71/118/21 72/117/21 70/119/21 69/120/21
f 69/120/22 70/119/22 66/121/22 65/122/22
f 67/123/23 71/118/23 69/120/23 65/124/23
f 72/117/24 68/125/24 66/126/24 70/119/24
f 73/127/19 74/128/19 76/129/19 75/130/19
f 75/130/23 76/129/23 80/131/23 79/132/23
f 79/132/21 80/131/21 78/133/21 77/134/21
f 77/134/24 78/133/24 74/135/24 73/136/24
f 75/137/22 79/132/22 77/134/22 73/138/22
f 80/131/20 76/139/20 74/140/20 78/133/20
f 81/141/19 82/142/19 84/143/19 83/144/19
f 83/144/20 84/143/20 88/145/20 87/146/20
f 87/146/21 88/145/21 86/147/21 85/148/21
f 85/148/22 86/147/22 82/149/22 81/150/22
f 83/151/23 87/146/23 85/148/23 81/152/23
f 88/145/24 84/153/24 82/154/24 86/147/24
f 89/155/19 90/156/19 92/157/19 91/158/19
f 91/158/23 92/157/23 96/159/23 95/160/23
f 95/160/21 96/159/21 94/161/21 93/162/21
f 93/162/24 94/161/24 90/163/24 89/164/24
f 91/165/22 95/160/22 93/162/22 89/166/22
f 96/159/20 92/167/20 90/168/20 94/161/20
o Cube.005_Cube.016
v 0.372219 0.000000 -0.044593
v 0.372219 0.101212 -0.044593
v 0.372219 0.000000 -0.369669
v 0.372219 0.101212 -0.369669
v 0.559587 0.000000 -0.044593
v 0.559587 0.101212 -0.044593
v 0.559587 0.000000 -0.369669
v 0.559587 0.101212 -0.369669
v -0.559886 0.000000 0.370158
v -0.559886 0.101212 0.370158
v -0.559886 0.000000 0.045082
v -0.559886 0.101212 0.045082
v -0.372519 0.000000 0.370158
v -0.372519 0.101212 0.370158
v -0.372519 0.000000 0.045082
v -0.372519 0.101212 0.045082
v -0.559886 0.000000 -0.044593
v -0.559886 0.101212 -0.044593
v -0.559886 0.000000 -0.369669
v -0.559886 0.101212 -0.369669
v -0.372519 0.000000 -0.044593
v -0.372519 0.101212 -0.044593
v -0.372519 0.000000 -0.369669
v -0.372519 0.101212 -0.369669
v 0.372219 0.000000 0.370158
v 0.372219 0.101212 0.370158
v 0.372219 0.000000 0.045082
v 0.372219 0.101212 0.045082
v 0.559587 0.000000 0.370158
v 0.559587 0.101212 0.370158
v 0.559587 0.000000 0.045082
v 0.559587 0.101212 0.045082
vt 0.375000 0.000000
vt 0.625000 0.000000
vt 0.625000 0.250000
vt 0.375000 0.250000
vt 0.625000 0.500000
vt 0.375000 0.500000
vt 0.625000 0.750000
vt 0.375000 0.750000
vt 0.625000 1.000000
vt 0.375000 1.000000
vt 0.125000 0.500000
vt 0.125000 0.750000
vt 0.875000 0.500000
vt 0.875000 0.750000
vt 0.375000 0.000000
vt 0.625000 0.000000
vt 0.625000 0.250000
vt 0.375000 0.250000
vt 0.625000 0.500000
vt 0.375000 0.500000
vt 0.625000 0.750000
vt 0.375000 0.750000
vt 0.625000 1.000000
vt 0.375000 1.000000
vt 0.125000 0.500000
vt 0.125000 0.750000
vt 0.875000 0.500000
vt 0.875000 0.750000
vt 0.375000 0.000000
vt 0.625000 0.000000
vt 0.625000 0.250000
vt 0.375000 0.250000
vt 0.625000 0.500000
vt 0.375000 0.500000
vt 0.625000 0.750000
vt 0.375000 0.750000
vt 0.625000 1.000000
vt 0.375000 1.000000
vt 0.125000 0.500000
vt 0.125000 0.750000
vt 0.875000 0.500000
vt 0.875000 0.750000
vt 0.375000 0.000000
vt 0.625000 0.000000
vt 0.625000 0.250000
vt 0.375000 0.250000
vt 0.625000 0.500000
vt 0.375000 0.500000
vt 0.625000 0.750000
vt 0.375000 0.750000
vt 0.625000 1.000000
vt 0.375000 1.000000
vt 0.125000 0.500000
vt 0.125000 0.750000
vt 0.875000 0.500000
vt 0.875000 0.750000
vn -1.0000 0.0000 0.0000
vn 0.0000 0.0000 -1.0000
vn 1.0000 0.0000 0.0000
vn 0.0000 0.0000 1.0000
vn 0.0000 -1.0000 0.0000
vn 0.0000 1.0000 0.0000
usemtl Material.004
s off
f 97/169/25 98/170/25 100/171/25 99/172/25
f 99/172/26 100/171/26 104/173/26 103/174/26
f 103/174/27 104/173/27 102/175/27 101/176/27
f 101/176/28 102/175/28 98/177/28 97/178/28
f 99/179/29 103/174/29 101/176/29 97/180/29
f 104/173/30 100/181/30 98/182/30 102/175/30
f 105/183/25 106/184/25 108/185/25 107/186/25
f 107/186/26 108/185/26 112/187/26 111/188/26
f 111/188/27 112/187/27 110/189/27 109/190/27
f 109/190/28 110/189/28 106/191/28 105/192/28
f 107/193/29 111/188/29 109/190/29 105/194/29
f 112/187/30 108/195/30 106/196/30 110/189/30
f 113/197/25 114/198/25 116/199/25 115/200/25
f 115/200/26 116/199/26 120/201/26 119/202/26
f 119/202/27 120/201/27 118/203/27 117/204/27
f 117/204/28 118/203/28 114/205/28 113/206/28
f 115/207/29 119/202/29 117/204/29 113/208/29
f 120/201/30 116/209/30 114/210/30 118/203/30
f 121/211/25 122/212/25 124/213/25 123/214/25
f 123/214/26 124/213/26 128/215/26 127/216/26
f 127/216/27 128/215/27 126/217/27 125/218/27
f 125/218/28 126/217/28 122/219/28 121/220/28
f 123/221/29 127/216/29 125/218/29 121/222/29
f 128/215/30 124/223/30 122/224/30 126/217/30
