# Blender v2.91.2 OBJ File: 'BILLUNDx2x4.blend'
# www.blender.org
mtllib BILLUNDx2x4.mtl
o Cube_Cube.001
v -0.516902 0.129406 0.399992
v -0.516902 1.399403 0.399992
v -0.516902 0.129406 -0.399992
v -0.516902 1.399403 -0.399992
v -0.485354 0.129406 0.399992
v -0.485354 1.399403 0.399992
v -0.485354 0.129406 -0.399992
v -0.485354 1.399403 -0.399992
v 0.485354 0.129406 0.399992
v 0.485354 1.399403 0.399992
v 0.485354 0.129406 -0.399992
v 0.485354 1.399403 -0.399992
v 0.516902 0.129406 0.399992
v 0.516902 1.399403 0.399992
v 0.516902 0.129406 -0.399992
v 0.516902 1.399403 -0.399992
v -1.400094 -0.000152 0.399992
v -1.400094 1.399848 0.399992
v -1.400094 -0.000152 -0.399992
v -1.400094 1.399848 -0.399992
v -1.368546 -0.000152 0.399992
v -1.368546 1.399848 0.399992
v -1.368546 -0.000152 -0.399992
v -1.368546 1.399848 -0.399992
v 1.368546 -0.000152 0.399992
v 1.368546 1.399848 0.399992
v 1.368546 -0.000152 -0.399992
v 1.368546 1.399848 -0.399992
v 1.400094 -0.000152 0.399992
v 1.400094 1.399848 0.399992
v 1.400094 -0.000152 -0.399992
v 1.400094 1.399848 -0.399992
v 1.399772 1.399677 -0.399789
v 1.399772 1.399677 0.399789
v -1.399772 1.399677 -0.399789
v -1.399772 1.399677 0.399789
v 1.399772 1.431224 -0.399789
v 1.399772 1.431224 0.399789
v -1.399772 1.431225 -0.399789
v -1.399772 1.431225 0.399789
v 1.399772 0.098147 -0.399789
v 1.399772 0.098147 0.399789
v -1.399772 0.098147 -0.399789
v -1.399772 0.098147 0.399789
v 1.399772 0.129695 -0.399789
v 1.399772 0.129695 0.399789
v -1.399772 0.129695 -0.399789
v -1.399772 0.129695 0.399789
v -0.498407 0.747230 -0.399789
v -0.498407 0.747230 0.399789
v -1.395336 0.747230 -0.399789
v -1.395336 0.747230 0.399789
v -0.498407 0.767187 -0.399789
v -0.498407 0.767187 0.399789
v -1.395336 0.767187 -0.399789
v -1.395336 0.767187 0.399789
v -0.503193 0.757489 0.339671
v -0.503192 0.120496 0.339671
v -1.390551 0.757489 0.339671
v -1.390551 0.120495 0.339671
v -0.503193 0.757489 0.361671
v -0.503192 0.120496 0.361671
v -1.390551 0.757489 0.361671
v -1.390551 0.120495 0.361671
v 1.395817 0.000424 -0.402921
v 1.395817 0.000424 0.358548
v -1.395817 0.000424 -0.402921
v -1.395817 0.000424 0.358548
v 1.395817 0.099050 -0.402921
v 1.395817 0.099050 0.358548
v -1.395817 0.099050 -0.402921
v -1.395817 0.099050 0.358548
v 1.385277 1.409976 0.339671
v 1.385277 0.116840 0.339671
v 0.497918 1.409976 0.339671
v 0.497919 0.116840 0.339671
v 1.385277 1.409976 0.361671
v 1.385277 0.116840 0.361671
v 0.497918 1.409976 0.361671
v 0.497919 0.116840 0.361671
vt 0.264829 -0.440685
vt 0.735171 -0.440685
vt 0.735171 0.029657
vt 0.264829 0.029657
vt 0.735171 0.500000
vt 0.264829 0.500000
vt 0.735171 0.970343
vt 0.264829 0.970343
vt 0.735171 1.440686
vt 0.264829 1.440686
vt -0.205514 0.500000
vt -0.205514 0.970343
vt 1.205514 0.500000
vt 1.205514 0.970343
vt 0.264829 -0.440685
vt 0.735171 -0.440685
vt 0.735171 0.029657
vt 0.264829 0.029657
vt 0.735171 0.500000
vt 0.264829 0.500000
vt 0.735171 0.970343
vt 0.264829 0.970343
vt 0.735171 1.440686
vt 0.264829 1.440686
vt -0.205514 0.500000
vt -0.205514 0.970343
vt 1.205514 0.500000
vt 1.205514 0.970343
vt 0.264829 -0.440685
vt 0.735171 -0.440685
vt 0.735171 0.029657
vt 0.264829 0.029657
vt 0.735171 0.500000
vt 0.264829 0.500000
vt 0.735171 0.970343
vt 0.264829 0.970343
vt 0.735171 1.440686
vt 0.264829 1.440686
vt -0.205514 0.500000
vt -0.205514 0.970343
vt 1.205514 0.500000
vt 1.205514 0.970343
vt 0.264829 -0.440685
vt 0.735171 -0.440685
vt 0.735171 0.029657
vt 0.264829 0.029657
vt 0.735171 0.500000
vt 0.264829 0.500000
vt 0.735171 0.970343
vt 0.264829 0.970343
vt 0.735171 1.440686
vt 0.264829 1.440686
vt -0.205514 0.500000
vt -0.205514 0.970343
vt 1.205514 0.500000
vt 1.205514 0.970343
vt 0.264829 -0.440685
vt 0.735171 -0.440685
vt 0.735171 0.029657
vt 0.264829 0.029657
vt 0.735171 0.500000
vt 0.264829 0.500000
vt 0.735171 0.970343
vt 0.264829 0.970343
vt 0.735171 1.440686
vt 0.264829 1.440686
vt -0.205514 0.500000
vt -0.205514 0.970343
vt 1.205514 0.500000
vt 1.205514 0.970343
vt 0.264829 -0.440685
vt 0.735171 -0.440685
vt 0.735171 0.029657
vt 0.264829 0.029657
vt 0.735171 0.500000
vt 0.264829 0.500000
vt 0.735171 0.970343
vt 0.264829 0.970343
vt 0.735171 1.440686
vt 0.264829 1.440686
vt -0.205514 0.500000
vt -0.205514 0.970343
vt 1.205514 0.500000
vt 1.205514 0.970343
vt 0.264829 -0.440685
vt 0.735171 -0.440685
vt 0.735171 0.029657
vt 0.264829 0.029657
vt 0.735171 0.500000
vt 0.264829 0.500000
vt 0.735171 0.970343
vt 0.264829 0.970343
vt 0.735171 1.440686
vt 0.264829 1.440686
vt -0.205514 0.500000
vt -0.205514 0.970343
vt 1.205514 0.500000
vt 1.205514 0.970343
vt 0.264829 -0.440685
vt 0.735171 -0.440685
vt 0.735171 0.029657
vt 0.264829 0.029657
vt 0.735171 0.500000
vt 0.264829 0.500000
vt 0.735171 0.970343
vt 0.264829 0.970343
vt 0.735171 1.440686
vt 0.264829 1.440686
vt -0.205514 0.500000
vt -0.205514 0.970343
vt 1.205514 0.500000
vt 1.205514 0.970343
vt 0.264829 -0.440685
vt 0.735171 -0.440685
vt 0.735171 0.029657
vt 0.264829 0.029657
vt 0.735171 0.500000
vt 0.264829 0.500000
vt 0.735171 0.970343
vt 0.264829 0.970343
vt 0.735171 1.440686
vt 0.264829 1.440686
vt -0.205514 0.500000
vt -0.205514 0.970343
vt 1.205514 0.500000
vt 1.205514 0.970343
vt 0.264829 -0.440685
vt 0.735171 -0.440685
vt 0.735171 0.029657
vt 0.264829 0.029657
vt 0.735171 0.500000
vt 0.264829 0.500000
vt 0.735171 0.970343
vt 0.264829 0.970343
vt 0.735171 1.440686
vt 0.264829 1.440686
vt -0.205514 0.500000
vt -0.205514 0.970343
vt 1.205514 0.500000
vt 1.205514 0.970343
vn -1.0000 0.0000 0.0000
vn 0.0000 0.0000 -1.0000
vn 1.0000 0.0000 0.0000
vn 0.0000 0.0000 1.0000
vn 0.0000 -1.0000 0.0000
vn 0.0000 1.0000 0.0000
usemtl Material.002
s off
f 1/1/1 2/2/1 4/3/1 3/4/1
f 3/4/2 4/3/2 8/5/2 7/6/2
f 7/6/3 8/5/3 6/7/3 5/8/3
f 5/8/4 6/7/4 2/9/4 1/10/4
f 3/11/5 7/6/5 5/8/5 1/12/5
f 8/5/6 4/13/6 2/14/6 6/7/6
f 9/15/1 10/16/1 12/17/1 11/18/1
f 11/18/2 12/17/2 16/19/2 15/20/2
f 15/20/3 16/19/3 14/21/3 13/22/3
f 13/22/4 14/21/4 10/23/4 9/24/4
f 11/25/5 15/20/5 13/22/5 9/26/5
f 16/19/6 12/27/6 10/28/6 14/21/6
f 17/29/1 18/30/1 20/31/1 19/32/1
f 19/32/2 20/31/2 24/33/2 23/34/2
f 23/34/3 24/33/3 22/35/3 21/36/3
f 21/36/4 22/35/4 18/37/4 17/38/4
f 19/39/5 23/34/5 21/36/5 17/40/5
f 24/33/6 20/41/6 18/42/6 22/35/6
f 25/43/1 26/44/1 28/45/1 27/46/1
f 27/46/2 28/45/2 32/47/2 31/48/2
f 31/48/3 32/47/3 30/49/3 29/50/3
f 29/50/4 30/49/4 26/51/4 25/52/4
f 27/53/5 31/48/5 29/50/5 25/54/5
f 32/47/6 28/55/6 26/56/6 30/49/6
f 33/57/5 34/58/5 36/59/5 35/60/5
f 35/60/1 36/59/1 40/61/1 39/62/1
f 39/62/6 40/61/6 38/63/6 37/64/6
f 37/64/3 38/63/3 34/65/3 33/66/3
f 35/67/2 39/62/2 37/64/2 33/68/2
f 40/61/4 36/69/4 34/70/4 38/63/4
f 41/71/5 42/72/5 44/73/5 43/74/5
f 43/74/1 44/73/1 48/75/1 47/76/1
f 47/76/6 48/75/6 46/77/6 45/78/6
f 45/78/3 46/77/3 42/79/3 41/80/3
f 43/81/2 47/76/2 45/78/2 41/82/2
f 48/75/4 44/83/4 42/84/4 46/77/4
f 49/85/5 50/86/5 52/87/5 51/88/5
f 51/88/1 52/87/1 56/89/1 55/90/1
f 55/90/6 56/89/6 54/91/6 53/92/6
f 53/92/3 54/91/3 50/93/3 49/94/3
f 51/95/2 55/90/2 53/92/2 49/96/2
f 56/89/4 52/97/4 50/98/4 54/91/4
f 57/99/2 58/100/2 60/101/2 59/102/2
f 59/102/1 60/101/1 64/103/1 63/104/1
f 63/104/4 64/103/4 62/105/4 61/106/4
f 61/106/3 62/105/3 58/107/3 57/108/3
f 59/109/6 63/104/6 61/106/6 57/110/6
f 64/103/5 60/111/5 58/112/5 62/105/5
f 65/113/5 66/114/5 68/115/5 67/116/5
f 67/116/1 68/115/1 72/117/1 71/118/1
f 71/118/6 72/117/6 70/119/6 69/120/6
f 69/120/3 70/119/3 66/121/3 65/122/3
f 67/123/2 71/118/2 69/120/2 65/124/2
f 72/117/4 68/125/4 66/126/4 70/119/4
f 73/127/2 74/128/2 76/129/2 75/130/2
f 75/130/1 76/129/1 80/131/1 79/132/1
f 79/132/4 80/131/4 78/133/4 77/134/4
f 77/134/3 78/133/3 74/135/3 73/136/3
f 75/137/6 79/132/6 77/134/6 73/138/6
f 80/131/5 76/139/5 74/140/5 78/133/5
o Cube.004_Cube.005
v 1.399772 0.129406 -0.371600
v 1.399772 1.399403 -0.371600
v -1.399772 0.129406 -0.371600
v -1.399772 1.399403 -0.371600
v 1.399772 0.129406 -0.403148
v 1.399772 1.399403 -0.403148
v -1.399772 0.129406 -0.403148
v -1.399772 1.399403 -0.403148
vt 0.375000 0.000000
vt 0.625000 0.000000
vt 0.625000 0.250000
vt 0.375000 0.250000
vt 0.625000 0.500000
vt 0.375000 0.500000
vt 0.625000 0.750000
vt 0.375000 0.750000
vt 0.625000 1.000000
vt 0.375000 1.000000
vt 0.125000 0.500000
vt 0.125000 0.750000
vt 0.875000 0.500000
vt 0.875000 0.750000
vn 0.0000 0.0000 1.0000
vn -1.0000 0.0000 0.0000
vn -0.0000 0.0000 -1.0000
vn 1.0000 0.0000 0.0000
vn 0.0000 -1.0000 0.0000
vn 0.0000 1.0000 0.0000
usemtl Material.003
s off
f 81/141/7 82/142/7 84/143/7 83/144/7
f 83/144/8 84/143/8 88/145/8 87/146/8
f 87/146/9 88/145/9 86/147/9 85/148/9
f 85/148/10 86/147/10 82/149/10 81/150/10
f 83/151/11 87/146/11 85/148/11 81/152/11
f 88/145/12 84/153/12 82/154/12 86/147/12
o Cube.008_Cube.009
v 0.504588 0.515906 -0.399789
v 0.504588 0.515906 0.399789
v -0.499313 0.515906 -0.399789
v -0.499313 0.515906 0.399789
v 0.504588 0.536069 -0.399789
v 0.504588 0.536069 0.399789
v -0.499313 0.536069 -0.399789
v -0.499313 0.536069 0.399789
v 0.504588 0.978348 -0.399789
v 0.504588 0.978348 0.399789
v -0.499313 0.978348 -0.399789
v -0.499313 0.978348 0.399789
v 0.504588 0.998511 -0.399789
v 0.504588 0.998511 0.399789
v -0.499313 0.998511 -0.399789
v -0.499313 0.998511 0.399789
v -0.503193 0.703777 0.353059
v -0.503193 0.129221 0.353059
v -1.390551 0.703777 0.353059
v -1.390551 0.129221 0.353059
v -0.503193 0.703777 0.399365
v -0.503193 0.129221 0.399365
v -1.390551 0.703777 0.399365
v -1.390551 0.129221 0.399365
v 1.385277 1.354695 0.344465
v 1.385277 0.126122 0.344465
v 0.497918 1.354695 0.344465
v 0.497919 0.126122 0.344465
v 1.385277 1.354695 0.399275
v 1.385277 0.126122 0.399275
v 0.497918 1.354695 0.399275
v 0.497919 0.126122 0.399275
vt 0.375000 0.000000
vt 0.625000 0.000000
vt 0.625000 0.250000
vt 0.375000 0.250000
vt 0.625000 0.500000
vt 0.375000 0.500000
vt 0.625000 0.750000
vt 0.375000 0.750000
vt 0.625000 1.000000
vt 0.375000 1.000000
vt 0.125000 0.500000
vt 0.125000 0.750000
vt 0.875000 0.500000
vt 0.875000 0.750000
vt 0.375000 0.000000
vt 0.625000 0.000000
vt 0.625000 0.250000
vt 0.375000 0.250000
vt 0.625000 0.500000
vt 0.375000 0.500000
vt 0.625000 0.750000
vt 0.375000 0.750000
vt 0.625000 1.000000
vt 0.375000 1.000000
vt 0.125000 0.500000
vt 0.125000 0.750000
vt 0.875000 0.500000
vt 0.875000 0.750000
vt 0.375000 0.000000
vt 0.625000 0.000000
vt 0.625000 0.250000
vt 0.375000 0.250000
vt 0.625000 0.500000
vt 0.375000 0.500000
vt 0.625000 0.750000
vt 0.375000 0.750000
vt 0.625000 1.000000
vt 0.375000 1.000000
vt 0.125000 0.500000
vt 0.125000 0.750000
vt 0.875000 0.500000
vt 0.875000 0.750000
vt 0.375000 0.000000
vt 0.625000 0.000000
vt 0.625000 0.250000
vt 0.375000 0.250000
vt 0.625000 0.500000
vt 0.375000 0.500000
vt 0.625000 0.750000
vt 0.375000 0.750000
vt 0.625000 1.000000
vt 0.375000 1.000000
vt 0.125000 0.500000
vt 0.125000 0.750000
vt 0.875000 0.500000
vt 0.875000 0.750000
vn -0.0000 -1.0000 0.0000
vn -1.0000 0.0000 0.0000
vn 0.0000 1.0000 0.0000
vn 1.0000 0.0000 0.0000
vn -0.0000 0.0000 -1.0000
vn 0.0000 0.0000 1.0000
usemtl Material.001
s off
f 89/155/13 90/156/13 92/157/13 91/158/13
f 91/158/14 92/157/14 96/159/14 95/160/14
f 95/160/15 96/159/15 94/161/15 93/162/15
f 93/162/16 94/161/16 90/163/16 89/164/16
f 91/165/17 95/160/17 93/162/17 89/166/17
f 96/159/18 92/167/18 90/168/18 94/161/18
f 97/169/13 98/170/13 100/171/13 99/172/13
f 99/172/14 100/171/14 104/173/14 103/174/14
f 103/174/15 104/173/15 102/175/15 101/176/15
f 101/176/16 102/175/16 98/177/16 97/178/16
f 99/179/17 103/174/17 101/176/17 97/180/17
f 104/173/18 100/181/18 98/182/18 102/175/18
f 105/183/17 106/184/17 108/185/17 107/186/17
f 107/186/14 108/185/14 112/187/14 111/188/14
f 111/188/18 112/187/18 110/189/18 109/190/18
f 109/190/16 110/189/16 106/191/16 105/192/16
f 107/193/15 111/188/15 109/190/15 105/194/15
f 112/187/13 108/195/13 106/196/13 110/189/13
f 113/197/17 114/198/17 116/199/17 115/200/17
f 115/200/14 116/199/14 120/201/14 119/202/14
f 119/202/18 120/201/18 118/203/18 117/204/18
f 117/204/16 118/203/16 114/205/16 113/206/16
f 115/207/15 119/202/15 117/204/15 113/208/15
f 120/201/13 116/209/13 114/210/13 118/203/13
