# Blender v2.91.2 OBJ File: 'KABDRUPx5.blend'
# www.blender.org
mtllib KABDRUPx5.mtl
o Cube.003_Cube.004
v -0.409899 2.159960 0.350000
v -0.409899 2.187959 0.350000
v -0.409899 2.159960 -0.350000
v -0.409899 2.187959 -0.350000
v 0.409899 2.159960 0.350000
v 0.409899 2.187959 0.350000
v 0.409899 2.159960 -0.350000
v 0.409899 2.187959 -0.350000
v 0.381858 0.000000 0.322326
v 0.381858 2.160000 0.322326
v 0.381858 0.000000 -0.349959
v 0.381858 2.160000 -0.349959
v 0.409890 0.000000 0.322326
v 0.409890 2.160000 0.322326
v 0.409890 0.000000 -0.349959
v 0.409890 2.160000 -0.349959
v -0.409890 0.000000 0.322326
v -0.409890 2.160000 0.322326
v -0.409890 0.000000 -0.349959
v -0.409890 2.160000 -0.349959
v -0.381858 0.000000 0.322326
v -0.381858 2.160000 0.322326
v -0.381858 0.000000 -0.349959
v -0.381858 2.160000 -0.349959
v 0.408542 0.000000 -0.321906
v 0.408542 2.160000 -0.321906
v -0.408542 0.000000 -0.321906
v -0.408542 2.160000 -0.321906
v 0.408542 0.000000 -0.349939
v 0.408542 2.160000 -0.349939
v -0.408542 0.000000 -0.349939
v -0.408542 2.160000 -0.349939
v 0.408542 0.121852 0.321967
v 0.408542 2.159757 0.321967
v -0.408542 0.121852 0.321967
v -0.408542 2.159757 0.321967
v 0.408542 0.121852 0.295041
v 0.408542 2.159757 0.295041
v -0.408542 0.121852 0.295041
v -0.408542 2.159757 0.295041
v 0.408542 0.000000 0.295140
v 0.408542 2.160000 0.295140
v -0.408542 0.000000 0.295140
v -0.408542 2.160000 0.295140
v 0.408542 0.000000 0.268214
v 0.408542 2.160000 0.268214
v -0.408542 0.000000 0.268214
v -0.408542 2.160000 0.268214
vt 0.375000 0.000000
vt 0.625000 0.000000
vt 0.625000 0.250000
vt 0.375000 0.250000
vt 0.625000 0.500000
vt 0.375000 0.500000
vt 0.625000 0.750000
vt 0.375000 0.750000
vt 0.625000 1.000000
vt 0.375000 1.000000
vt 0.125000 0.500000
vt 0.125000 0.750000
vt 0.875000 0.500000
vt 0.875000 0.750000
vt 0.375000 0.000000
vt 0.625000 0.000000
vt 0.625000 0.250000
vt 0.375000 0.250000
vt 0.625000 0.500000
vt 0.375000 0.500000
vt 0.625000 0.750000
vt 0.375000 0.750000
vt 0.625000 1.000000
vt 0.375000 1.000000
vt 0.125000 0.500000
vt 0.125000 0.750000
vt 0.875000 0.500000
vt 0.875000 0.750000
vt 0.375000 0.000000
vt 0.625000 0.000000
vt 0.625000 0.250000
vt 0.375000 0.250000
vt 0.625000 0.500000
vt 0.375000 0.500000
vt 0.625000 0.750000
vt 0.375000 0.750000
vt 0.625000 1.000000
vt 0.375000 1.000000
vt 0.125000 0.500000
vt 0.125000 0.750000
vt 0.875000 0.500000
vt 0.875000 0.750000
vt 0.375000 0.000000
vt 0.625000 0.000000
vt 0.625000 0.250000
vt 0.375000 0.250000
vt 0.625000 0.500000
vt 0.375000 0.500000
vt 0.625000 0.750000
vt 0.375000 0.750000
vt 0.625000 1.000000
vt 0.375000 1.000000
vt 0.125000 0.500000
vt 0.125000 0.750000
vt 0.875000 0.500000
vt 0.875000 0.750000
vt 0.375000 0.000000
vt 0.625000 0.000000
vt 0.625000 0.250000
vt 0.375000 0.250000
vt 0.625000 0.500000
vt 0.375000 0.500000
vt 0.625000 0.750000
vt 0.375000 0.750000
vt 0.625000 1.000000
vt 0.375000 1.000000
vt 0.125000 0.500000
vt 0.125000 0.750000
vt 0.875000 0.500000
vt 0.875000 0.750000
vt 0.375000 0.000000
vt 0.625000 0.000000
vt 0.625000 0.250000
vt 0.375000 0.250000
vt 0.625000 0.500000
vt 0.375000 0.500000
vt 0.625000 0.750000
vt 0.375000 0.750000
vt 0.625000 1.000000
vt 0.375000 1.000000
vt 0.125000 0.500000
vt 0.125000 0.750000
vt 0.875000 0.500000
vt 0.875000 0.750000
vn -1.0000 0.0000 0.0000
vn 0.0000 0.0000 -1.0000
vn 1.0000 0.0000 0.0000
vn 0.0000 0.0000 1.0000
vn 0.0000 -1.0000 0.0000
vn 0.0000 1.0000 0.0000
usemtl Material.001
s off
f 1/1/1 2/2/1 4/3/1 3/4/1
f 3/4/2 4/3/2 8/5/2 7/6/2
f 7/6/3 8/5/3 6/7/3 5/8/3
f 5/8/4 6/7/4 2/9/4 1/10/4
f 3/11/5 7/6/5 5/8/5 1/12/5
f 8/5/6 4/13/6 2/14/6 6/7/6
f 9/15/1 10/16/1 12/17/1 11/18/1
f 11/18/2 12/17/2 16/19/2 15/20/2
f 15/20/3 16/19/3 14/21/3 13/22/3
f 13/22/4 14/21/4 10/23/4 9/24/4
f 11/25/5 15/20/5 13/22/5 9/26/5
f 16/19/6 12/27/6 10/28/6 14/21/6
f 17/29/1 18/30/1 20/31/1 19/32/1
f 19/32/2 20/31/2 24/33/2 23/34/2
f 23/34/3 24/33/3 22/35/3 21/36/3
f 21/36/4 22/35/4 18/37/4 17/38/4
f 19/39/5 23/34/5 21/36/5 17/40/5
f 24/33/6 20/41/6 18/42/6 22/35/6
f 25/43/4 26/44/4 28/45/4 27/46/4
f 27/46/1 28/45/1 32/47/1 31/48/1
f 31/48/2 32/47/2 30/49/2 29/50/2
f 29/50/3 30/49/3 26/51/3 25/52/3
f 27/53/5 31/48/5 29/50/5 25/54/5
f 32/47/6 28/55/6 26/56/6 30/49/6
f 33/57/4 34/58/4 36/59/4 35/60/4
f 35/60/1 36/59/1 40/61/1 39/62/1
f 39/62/2 40/61/2 38/63/2 37/64/2
f 37/64/3 38/63/3 34/65/3 33/66/3
f 35/67/5 39/62/5 37/64/5 33/68/5
f 40/61/6 36/69/6 34/70/6 38/63/6
f 41/71/4 42/72/4 44/73/4 43/74/4
f 43/74/1 44/73/1 48/75/1 47/76/1
f 47/76/2 48/75/2 46/77/2 45/78/2
f 45/78/3 46/77/3 42/79/3 41/80/3
f 43/81/5 47/76/5 45/78/5 41/82/5
f 48/75/6 44/83/6 42/84/6 46/77/6
o Cube.008_Cube.009
v 0.406742 0.959301 0.349920
v 0.406742 1.352198 0.349920
v -0.406742 0.959301 0.349920
v -0.406742 1.352198 0.349920
v 0.406742 0.959301 0.212111
v 0.406742 1.352198 0.212111
v -0.406742 0.959301 0.212111
v -0.406742 1.352198 0.212111
v 0.406742 1.753832 0.349920
v 0.406742 2.146729 0.349920
v -0.406742 1.753832 0.349920
v -0.406742 2.146729 0.349920
v 0.406742 1.753832 0.212111
v 0.406742 2.146729 0.212111
v -0.406742 1.753832 0.212111
v -0.406742 2.146729 0.212111
v 0.406742 1.356953 0.349920
v 0.406742 1.749850 0.349920
v -0.406742 1.356953 0.349920
v -0.406742 1.749850 0.349920
v 0.406742 1.356953 0.212111
v 0.406742 1.749850 0.212111
v -0.406742 1.356953 0.212111
v -0.406742 1.749850 0.212111
v 0.406742 0.561649 0.349920
v 0.406742 0.954546 0.349920
v -0.406742 0.561649 0.349920
v -0.406742 0.954546 0.349920
v 0.406742 0.561649 0.212111
v 0.406742 0.954546 0.212111
v -0.406742 0.561649 0.212111
v -0.406742 0.954546 0.212111
v 0.406742 0.163997 0.349920
v 0.406742 0.556894 0.349920
v -0.406742 0.163997 0.349920
v -0.406742 0.556894 0.349920
v 0.406742 0.163997 0.212111
v 0.406742 0.556894 0.212111
v -0.406742 0.163997 0.212111
v -0.406742 0.556894 0.212111
vt 0.375000 0.000000
vt 0.625000 0.000000
vt 0.625000 0.250000
vt 0.375000 0.250000
vt 0.625000 0.500000
vt 0.375000 0.500000
vt 0.625000 0.750000
vt 0.375000 0.750000
vt 0.625000 1.000000
vt 0.375000 1.000000
vt 0.125000 0.500000
vt 0.125000 0.750000
vt 0.875000 0.500000
vt 0.875000 0.750000
vt 0.375000 0.000000
vt 0.625000 0.000000
vt 0.625000 0.250000
vt 0.375000 0.250000
vt 0.625000 0.500000
vt 0.375000 0.500000
vt 0.625000 0.750000
vt 0.375000 0.750000
vt 0.625000 1.000000
vt 0.375000 1.000000
vt 0.125000 0.500000
vt 0.125000 0.750000
vt 0.875000 0.500000
vt 0.875000 0.750000
vt 0.375000 0.000000
vt 0.625000 0.000000
vt 0.625000 0.250000
vt 0.375000 0.250000
vt 0.625000 0.500000
vt 0.375000 0.500000
vt 0.625000 0.750000
vt 0.375000 0.750000
vt 0.625000 1.000000
vt 0.375000 1.000000
vt 0.125000 0.500000
vt 0.125000 0.750000
vt 0.875000 0.500000
vt 0.875000 0.750000
vt 0.375000 0.000000
vt 0.625000 0.000000
vt 0.625000 0.250000
vt 0.375000 0.250000
vt 0.625000 0.500000
vt 0.375000 0.500000
vt 0.625000 0.750000
vt 0.375000 0.750000
vt 0.625000 1.000000
vt 0.375000 1.000000
vt 0.125000 0.500000
vt 0.125000 0.750000
vt 0.875000 0.500000
vt 0.875000 0.750000
vt 0.375000 0.000000
vt 0.625000 0.000000
vt 0.625000 0.250000
vt 0.375000 0.250000
vt 0.625000 0.500000
vt 0.375000 0.500000
vt 0.625000 0.750000
vt 0.375000 0.750000
vt 0.625000 1.000000
vt 0.375000 1.000000
vt 0.125000 0.500000
vt 0.125000 0.750000
vt 0.875000 0.500000
vt 0.875000 0.750000
vn 0.0000 0.0000 1.0000
vn -1.0000 0.0000 0.0000
vn -0.0000 0.0000 -1.0000
vn 1.0000 0.0000 0.0000
vn 0.0000 -1.0000 0.0000
vn 0.0000 1.0000 0.0000
usemtl Material.002
s off
f 49/85/7 50/86/7 52/87/7 51/88/7
f 51/88/8 52/87/8 56/89/8 55/90/8
f 55/90/9 56/89/9 54/91/9 53/92/9
f 53/92/10 54/91/10 50/93/10 49/94/10
f 51/95/11 55/90/11 53/92/11 49/96/11
f 56/89/12 52/97/12 50/98/12 54/91/12
f 57/99/7 58/100/7 60/101/7 59/102/7
f 59/102/8 60/101/8 64/103/8 63/104/8
f 63/104/9 64/103/9 62/105/9 61/106/9
f 61/106/10 62/105/10 58/107/10 57/108/10
f 59/109/11 63/104/11 61/106/11 57/110/11
f 64/103/12 60/111/12 58/112/12 62/105/12
f 65/113/7 66/114/7 68/115/7 67/116/7
f 67/116/8 68/115/8 72/117/8 71/118/8
f 71/118/9 72/117/9 70/119/9 69/120/9
f 69/120/10 70/119/10 66/121/10 65/122/10
f 67/123/11 71/118/11 69/120/11 65/124/11
f 72/117/12 68/125/12 66/126/12 70/119/12
f 73/127/7 74/128/7 76/129/7 75/130/7
f 75/130/8 76/129/8 80/131/8 79/132/8
f 79/132/9 80/131/9 78/133/9 77/134/9
f 77/134/10 78/133/10 74/135/10 73/136/10
f 75/137/11 79/132/11 77/134/11 73/138/11
f 80/131/12 76/139/12 74/140/12 78/133/12
f 81/141/7 82/142/7 84/143/7 83/144/7
f 83/144/8 84/143/8 88/145/8 87/146/8
f 87/146/9 88/145/9 86/147/9 85/148/9
f 85/148/10 86/147/10 82/149/10 81/150/10
f 83/151/11 87/146/11 85/148/11 81/152/11
f 88/145/12 84/153/12 82/154/12 86/147/12
o Cube.009_Cube.015
v -0.182737 1.152511 0.376286
v -0.182737 1.187619 0.376286
v -0.182737 1.152511 0.361694
v -0.182737 1.187619 0.361694
v 0.182737 1.152511 0.376286
v 0.182737 1.187619 0.376286
v 0.182737 1.152511 0.361694
v 0.182737 1.187619 0.361694
v -0.182737 1.172428 0.327970
v -0.182737 1.172428 0.361692
v -0.182737 1.187620 0.327970
v -0.182737 1.187620 0.361692
v 0.182737 1.172428 0.327970
v 0.182737 1.172428 0.361692
v 0.182737 1.187620 0.327970
v 0.182737 1.187620 0.361692
v -0.182737 1.937439 0.376286
v -0.182737 1.972547 0.376286
v -0.182737 1.937439 0.361694
v -0.182737 1.972547 0.361694
v 0.182737 1.937439 0.376286
v 0.182737 1.972547 0.376286
v 0.182737 1.937439 0.361694
v 0.182737 1.972547 0.361694
v -0.182737 1.957355 0.327970
v -0.182737 1.957355 0.361692
v -0.182737 1.972548 0.327970
v -0.182737 1.972548 0.361692
v 0.182737 1.957355 0.327970
v 0.182737 1.957355 0.361692
v 0.182737 1.972548 0.327970
v 0.182737 1.972548 0.361692
v -0.182737 1.535480 0.376286
v -0.182737 1.570588 0.376286
v -0.182737 1.535480 0.361694
v -0.182737 1.570588 0.361694
v 0.182737 1.535480 0.376286
v 0.182737 1.570588 0.376286
v 0.182737 1.535480 0.361694
v 0.182737 1.570588 0.361694
v -0.182737 1.555396 0.327970
v -0.182737 1.555396 0.361692
v -0.182737 1.570589 0.327970
v -0.182737 1.570589 0.361692
v 0.182737 1.555396 0.327970
v 0.182737 1.555396 0.361692
v 0.182737 1.570589 0.327970
v 0.182737 1.570589 0.361692
v -0.182737 0.753717 0.376286
v -0.182737 0.788825 0.376286
v -0.182737 0.753717 0.361694
v -0.182737 0.788825 0.361694
v 0.182737 0.753717 0.376286
v 0.182737 0.788825 0.376286
v 0.182737 0.753717 0.361694
v 0.182737 0.788825 0.361694
v -0.182737 0.773633 0.327970
v -0.182737 0.773633 0.361692
v -0.182737 0.788826 0.327970
v -0.182737 0.788826 0.361692
v 0.182737 0.773633 0.327970
v 0.182737 0.773633 0.361692
v 0.182737 0.788826 0.327970
v 0.182737 0.788826 0.361692
v -0.182737 0.339098 0.376286
v -0.182737 0.374206 0.376286
v -0.182737 0.339098 0.361694
v -0.182737 0.374206 0.361694
v 0.182737 0.339098 0.376286
v 0.182737 0.374206 0.376286
v 0.182737 0.339098 0.361694
v 0.182737 0.374206 0.361694
v -0.182737 0.359014 0.327970
v -0.182737 0.359014 0.361692
v -0.182737 0.374207 0.327970
v -0.182737 0.374207 0.361692
v 0.182737 0.359014 0.327970
v 0.182737 0.359014 0.361692
v 0.182737 0.374207 0.327970
v 0.182737 0.374207 0.361692
vt 0.375000 0.000000
vt 0.625000 0.000000
vt 0.625000 0.250000
vt 0.375000 0.250000
vt 0.625000 0.500000
vt 0.375000 0.500000
vt 0.625000 0.750000
vt 0.375000 0.750000
vt 0.625000 1.000000
vt 0.375000 1.000000
vt 0.125000 0.500000
vt 0.125000 0.750000
vt 0.875000 0.500000
vt 0.875000 0.750000
vt 0.375000 0.000000
vt 0.625000 0.000000
vt 0.625000 0.250000
vt 0.375000 0.250000
vt 0.625000 0.500000
vt 0.375000 0.500000
vt 0.625000 0.750000
vt 0.375000 0.750000
vt 0.625000 1.000000
vt 0.375000 1.000000
vt 0.125000 0.500000
vt 0.125000 0.750000
vt 0.875000 0.500000
vt 0.875000 0.750000
vt 0.375000 0.000000
vt 0.625000 0.000000
vt 0.625000 0.250000
vt 0.375000 0.250000
vt 0.625000 0.500000
vt 0.375000 0.500000
vt 0.625000 0.750000
vt 0.375000 0.750000
vt 0.625000 1.000000
vt 0.375000 1.000000
vt 0.125000 0.500000
vt 0.125000 0.750000
vt 0.875000 0.500000
vt 0.875000 0.750000
vt 0.375000 0.000000
vt 0.625000 0.000000
vt 0.625000 0.250000
vt 0.375000 0.250000
vt 0.625000 0.500000
vt 0.375000 0.500000
vt 0.625000 0.750000
vt 0.375000 0.750000
vt 0.625000 1.000000
vt 0.375000 1.000000
vt 0.125000 0.500000
vt 0.125000 0.750000
vt 0.875000 0.500000
vt 0.875000 0.750000
vt 0.375000 0.000000
vt 0.625000 0.000000
vt 0.625000 0.250000
vt 0.375000 0.250000
vt 0.625000 0.500000
vt 0.375000 0.500000
vt 0.625000 0.750000
vt 0.375000 0.750000
vt 0.625000 1.000000
vt 0.375000 1.000000
vt 0.125000 0.500000
vt 0.125000 0.750000
vt 0.875000 0.500000
vt 0.875000 0.750000
vt 0.375000 0.000000
vt 0.625000 0.000000
vt 0.625000 0.250000
vt 0.375000 0.250000
vt 0.625000 0.500000
vt 0.375000 0.500000
vt 0.625000 0.750000
vt 0.375000 0.750000
vt 0.625000 1.000000
vt 0.375000 1.000000
vt 0.125000 0.500000
vt 0.125000 0.750000
vt 0.875000 0.500000
vt 0.875000 0.750000
vt 0.375000 0.000000
vt 0.625000 0.000000
vt 0.625000 0.250000
vt 0.375000 0.250000
vt 0.625000 0.500000
vt 0.375000 0.500000
vt 0.625000 0.750000
vt 0.375000 0.750000
vt 0.625000 1.000000
vt 0.375000 1.000000
vt 0.125000 0.500000
vt 0.125000 0.750000
vt 0.875000 0.500000
vt 0.875000 0.750000
vt 0.375000 0.000000
vt 0.625000 0.000000
vt 0.625000 0.250000
vt 0.375000 0.250000
vt 0.625000 0.500000
vt 0.375000 0.500000
vt 0.625000 0.750000
vt 0.375000 0.750000
vt 0.625000 1.000000
vt 0.375000 1.000000
vt 0.125000 0.500000
vt 0.125000 0.750000
vt 0.875000 0.500000
vt 0.875000 0.750000
vt 0.375000 0.000000
vt 0.625000 0.000000
vt 0.625000 0.250000
vt 0.375000 0.250000
vt 0.625000 0.500000
vt 0.375000 0.500000
vt 0.625000 0.750000
vt 0.375000 0.750000
vt 0.625000 1.000000
vt 0.375000 1.000000
vt 0.125000 0.500000
vt 0.125000 0.750000
vt 0.875000 0.500000
vt 0.875000 0.750000
vt 0.375000 0.000000
vt 0.625000 0.000000
vt 0.625000 0.250000
vt 0.375000 0.250000
vt 0.625000 0.500000
vt 0.375000 0.500000
vt 0.625000 0.750000
vt 0.375000 0.750000
vt 0.625000 1.000000
vt 0.375000 1.000000
vt 0.125000 0.500000
vt 0.125000 0.750000
vt 0.875000 0.500000
vt 0.875000 0.750000
vn -1.0000 0.0000 0.0000
vn 0.0000 0.0000 -1.0000
vn 1.0000 0.0000 0.0000
vn 0.0000 0.0000 1.0000
vn 0.0000 -1.0000 0.0000
vn 0.0000 1.0000 0.0000
usemtl Material.003
s off
f 89/155/13 90/156/13 92/157/13 91/158/13
f 91/158/14 92/157/14 96/159/14 95/160/14
f 95/160/15 96/159/15 94/161/15 93/162/15
f 93/162/16 94/161/16 90/163/16 89/164/16
f 91/165/17 95/160/17 93/162/17 89/166/17
f 96/159/18 92/167/18 90/168/18 94/161/18
f 97/169/13 98/170/13 100/171/13 99/172/13
f 99/172/18 100/171/18 104/173/18 103/174/18
f 103/174/15 104/173/15 102/175/15 101/176/15
f 101/176/17 102/175/17 98/177/17 97/178/17
f 99/179/14 103/174/14 101/176/14 97/180/14
f 104/173/16 100/181/16 98/182/16 102/175/16
f 105/183/13 106/184/13 108/185/13 107/186/13
f 107/186/14 108/185/14 112/187/14 111/188/14
f 111/188/15 112/187/15 110/189/15 109/190/15
f 109/190/16 110/189/16 106/191/16 105/192/16
f 107/193/17 111/188/17 109/190/17 105/194/17
f 112/187/18 108/195/18 106/196/18 110/189/18
f 113/197/13 114/198/13 116/199/13 115/200/13
f 115/200/18 116/199/18 120/201/18 119/202/18
f 119/202/15 120/201/15 118/203/15 117/204/15
f 117/204/17 118/203/17 114/205/17 113/206/17
f 115/207/14 119/202/14 117/204/14 113/208/14
f 120/201/16 116/209/16 114/210/16 118/203/16
f 121/211/13 122/212/13 124/213/13 123/214/13
f 123/214/14 124/213/14 128/215/14 127/216/14
f 127/216/15 128/215/15 126/217/15 125/218/15
f 125/218/16 126/217/16 122/219/16 121/220/16
f 123/221/17 127/216/17 125/218/17 121/222/17
f 128/215/18 124/223/18 122/224/18 126/217/18
f 129/225/13 130/226/13 132/227/13 131/228/13
f 131/228/18 132/227/18 136/229/18 135/230/18
f 135/230/15 136/229/15 134/231/15 133/232/15
f 133/232/17 134/231/17 130/233/17 129/234/17
f 131/235/14 135/230/14 133/232/14 129/236/14
f 136/229/16 132/237/16 130/238/16 134/231/16
f 137/239/13 138/240/13 140/241/13 139/242/13
f 139/242/14 140/241/14 144/243/14 143/244/14
f 143/244/15 144/243/15 142/245/15 141/246/15
f 141/246/16 142/245/16 138/247/16 137/248/16
f 139/249/17 143/244/17 141/246/17 137/250/17
f 144/243/18 140/251/18 138/252/18 142/245/18
f 145/253/13 146/254/13 148/255/13 147/256/13
f 147/256/18 148/255/18 152/257/18 151/258/18
f 151/258/15 152/257/15 150/259/15 149/260/15
f 149/260/17 150/259/17 146/261/17 145/262/17
f 147/263/14 151/258/14 149/260/14 145/264/14
f 152/257/16 148/265/16 146/266/16 150/259/16
f 153/267/13 154/268/13 156/269/13 155/270/13
f 155/270/14 156/269/14 160/271/14 159/272/14
f 159/272/15 160/271/15 158/273/15 157/274/15
f 157/274/16 158/273/16 154/275/16 153/276/16
f 155/277/17 159/272/17 157/274/17 153/278/17
f 160/271/18 156/279/18 154/280/18 158/273/18
f 161/281/13 162/282/13 164/283/13 163/284/13
f 163/284/18 164/283/18 168/285/18 167/286/18
f 167/286/15 168/285/15 166/287/15 165/288/15
f 165/288/17 166/287/17 162/289/17 161/290/17
f 163/291/14 167/286/14 165/288/14 161/292/14
f 168/285/16 164/293/16 162/294/16 166/287/16
