# Blender v2.91.2 OBJ File: 'KABDRUP.blend'
# www.blender.org
mtllib KABDRUP.mtl
o Cube.002_Cube.003
v 0.409391 0.000856 -0.291783
v 0.409391 0.960856 -0.291783
v -0.409391 0.000856 -0.291783
v -0.409391 0.960856 -0.291783
v 0.409391 0.000856 -0.319070
v 0.409391 0.960856 -0.319070
v -0.409391 0.000856 -0.319070
v -0.409391 0.960856 -0.319070
v 0.381241 0.000856 0.292012
v 0.381241 0.960856 0.292012
v 0.381241 0.000856 -0.320428
v 0.381241 0.960856 -0.320428
v 0.410014 0.000856 0.292012
v 0.410014 0.960856 0.292012
v 0.410014 0.000856 -0.320428
v 0.410014 0.960856 -0.320428
v -0.412212 0.000856 0.292012
v -0.412212 0.960856 0.292012
v -0.412212 0.000856 -0.320428
v -0.412212 0.960856 -0.320428
v -0.383439 0.000856 0.292012
v -0.383439 0.960856 0.292012
v -0.383439 0.000856 -0.320428
v -0.383439 0.960856 -0.320428
v -0.411972 0.989890 0.319507
v 0.409027 0.989890 0.319507
v -0.411972 0.989890 -0.319507
v 0.409027 0.989890 -0.319507
v -0.411972 0.961118 0.319507
v 0.409027 0.961118 0.319507
v -0.411972 0.961118 -0.319507
v 0.409027 0.961118 -0.319507
v -0.411972 0.128610 0.290553
v 0.409027 0.128610 0.290553
v -0.411972 0.128610 -0.318968
v 0.409027 0.128610 -0.318968
v -0.411972 0.099837 0.290553
v 0.409027 0.099837 0.290553
v -0.411972 0.099837 -0.318968
v 0.409027 0.099837 -0.318968
v -0.411972 0.098663 0.269538
v 0.409027 0.098663 0.269538
v -0.411972 0.098663 -0.297953
v 0.409027 0.098663 -0.297953
v -0.411972 0.002588 0.269538
v 0.409027 0.002588 0.269538
v -0.411972 0.002588 -0.297953
v 0.409027 0.002588 -0.297953
v -0.411617 0.954399 0.319463
v 0.408673 0.954399 0.319463
v -0.411617 0.954399 -0.310169
v 0.408673 0.954399 -0.310169
v -0.411617 0.523032 0.319463
v 0.408673 0.523032 0.319463
v -0.411617 0.523032 -0.310169
v 0.408673 0.523032 -0.310169
vt 0.375000 0.000000
vt 0.625000 0.000000
vt 0.625000 0.250000
vt 0.375000 0.250000
vt 0.625000 0.500000
vt 0.375000 0.500000
vt 0.625000 0.750000
vt 0.375000 0.750000
vt 0.625000 1.000000
vt 0.375000 1.000000
vt 0.125000 0.500000
vt 0.125000 0.750000
vt 0.875000 0.500000
vt 0.875000 0.750000
vt 0.375000 0.000000
vt 0.625000 0.000000
vt 0.625000 0.250000
vt 0.375000 0.250000
vt 0.625000 0.500000
vt 0.375000 0.500000
vt 0.625000 0.750000
vt 0.375000 0.750000
vt 0.625000 1.000000
vt 0.375000 1.000000
vt 0.125000 0.500000
vt 0.125000 0.750000
vt 0.875000 0.500000
vt 0.875000 0.750000
vt 0.375000 0.000000
vt 0.625000 0.000000
vt 0.625000 0.250000
vt 0.375000 0.250000
vt 0.625000 0.500000
vt 0.375000 0.500000
vt 0.625000 0.750000
vt 0.375000 0.750000
vt 0.625000 1.000000
vt 0.375000 1.000000
vt 0.125000 0.500000
vt 0.125000 0.750000
vt 0.875000 0.500000
vt 0.875000 0.750000
vt 0.375000 0.000000
vt 0.625000 0.000000
vt 0.625000 0.250000
vt 0.375000 0.250000
vt 0.625000 0.500000
vt 0.375000 0.500000
vt 0.625000 0.750000
vt 0.375000 0.750000
vt 0.625000 1.000000
vt 0.375000 1.000000
vt 0.125000 0.500000
vt 0.125000 0.750000
vt 0.875000 0.500000
vt 0.875000 0.750000
vt 0.375000 0.000000
vt 0.625000 0.000000
vt 0.625000 0.250000
vt 0.375000 0.250000
vt 0.625000 0.500000
vt 0.375000 0.500000
vt 0.625000 0.750000
vt 0.375000 0.750000
vt 0.625000 1.000000
vt 0.375000 1.000000
vt 0.125000 0.500000
vt 0.125000 0.750000
vt 0.875000 0.500000
vt 0.875000 0.750000
vt 0.375000 0.000000
vt 0.625000 0.000000
vt 0.625000 0.250000
vt 0.375000 0.250000
vt 0.625000 0.500000
vt 0.375000 0.500000
vt 0.625000 0.750000
vt 0.375000 0.750000
vt 0.625000 1.000000
vt 0.375000 1.000000
vt 0.125000 0.500000
vt 0.125000 0.750000
vt 0.875000 0.500000
vt 0.875000 0.750000
vt 0.375000 0.000000
vt 0.625000 0.000000
vt 0.625000 0.250000
vt 0.375000 0.250000
vt 0.625000 0.500000
vt 0.375000 0.500000
vt 0.625000 0.750000
vt 0.375000 0.750000
vt 0.625000 1.000000
vt 0.375000 1.000000
vt 0.125000 0.500000
vt 0.125000 0.750000
vt 0.875000 0.500000
vt 0.875000 0.750000
vn 0.0000 0.0000 1.0000
vn -1.0000 0.0000 0.0000
vn -0.0000 0.0000 -1.0000
vn 1.0000 0.0000 0.0000
vn 0.0000 -1.0000 0.0000
vn 0.0000 1.0000 0.0000
usemtl Material.001
s off
f 1/1/1 2/2/1 4/3/1 3/4/1
f 3/4/2 4/3/2 8/5/2 7/6/2
f 7/6/3 8/5/3 6/7/3 5/8/3
f 5/8/4 6/7/4 2/9/4 1/10/4
f 3/11/5 7/6/5 5/8/5 1/12/5
f 8/5/6 4/13/6 2/14/6 6/7/6
f 9/15/2 10/16/2 12/17/2 11/18/2
f 11/18/3 12/17/3 16/19/3 15/20/3
f 15/20/4 16/19/4 14/21/4 13/22/4
f 13/22/1 14/21/1 10/23/1 9/24/1
f 11/25/5 15/20/5 13/22/5 9/26/5
f 16/19/6 12/27/6 10/28/6 14/21/6
f 17/29/2 18/30/2 20/31/2 19/32/2
f 19/32/3 20/31/3 24/33/3 23/34/3
f 23/34/4 24/33/4 22/35/4 21/36/4
f 21/36/1 22/35/1 18/37/1 17/38/1
f 19/39/5 23/34/5 21/36/5 17/40/5
f 24/33/6 20/41/6 18/42/6 22/35/6
f 25/43/6 26/44/6 28/45/6 27/46/6
f 27/46/3 28/45/3 32/47/3 31/48/3
f 31/48/5 32/47/5 30/49/5 29/50/5
f 29/50/1 30/49/1 26/51/1 25/52/1
f 27/53/2 31/48/2 29/50/2 25/54/2
f 32/47/4 28/55/4 26/56/4 30/49/4
f 33/57/6 34/58/6 36/59/6 35/60/6
f 35/60/3 36/59/3 40/61/3 39/62/3
f 39/62/5 40/61/5 38/63/5 37/64/5
f 37/64/1 38/63/1 34/65/1 33/66/1
f 35/67/2 39/62/2 37/64/2 33/68/2
f 40/61/4 36/69/4 34/70/4 38/63/4
f 41/71/6 42/72/6 44/73/6 43/74/6
f 43/74/3 44/73/3 48/75/3 47/76/3
f 47/76/5 48/75/5 46/77/5 45/78/5
f 45/78/1 46/77/1 42/79/1 41/80/1
f 43/81/2 47/76/2 45/78/2 41/82/2
f 48/75/4 44/83/4 42/84/4 46/77/4
f 49/85/6 50/86/6 52/87/6 51/88/6
f 51/88/3 52/87/3 56/89/3 55/90/3
f 55/90/5 56/89/5 54/91/5 53/92/5
f 53/92/1 54/91/1 50/93/1 49/94/1
f 51/95/2 55/90/2 53/92/2 49/96/2
f 56/89/4 52/97/4 50/98/4 54/91/4
o Cube.008_Cube.009
v -0.149628 0.739164 0.302890
v -0.149628 0.739164 0.335965
v -0.149628 0.756698 0.302890
v -0.149628 0.756698 0.335965
v 0.149628 0.739164 0.302890
v 0.149628 0.739164 0.335965
v 0.149628 0.756698 0.302890
v 0.149628 0.756698 0.335965
v -0.149628 0.723624 0.353215
v -0.149628 0.756699 0.353215
v -0.149628 0.723624 0.335680
v -0.149628 0.756699 0.335680
v 0.149628 0.723624 0.353215
v 0.149628 0.756699 0.353215
v 0.149628 0.723624 0.335680
v 0.149628 0.756699 0.335680
vt 0.375000 0.000000
vt 0.625000 0.000000
vt 0.625000 0.250000
vt 0.375000 0.250000
vt 0.625000 0.500000
vt 0.375000 0.500000
vt 0.625000 0.750000
vt 0.375000 0.750000
vt 0.625000 1.000000
vt 0.375000 1.000000
vt 0.125000 0.500000
vt 0.125000 0.750000
vt 0.875000 0.500000
vt 0.875000 0.750000
vt 0.375000 0.000000
vt 0.625000 0.000000
vt 0.625000 0.250000
vt 0.375000 0.250000
vt 0.625000 0.500000
vt 0.375000 0.500000
vt 0.625000 0.750000
vt 0.375000 0.750000
vt 0.625000 1.000000
vt 0.375000 1.000000
vt 0.125000 0.500000
vt 0.125000 0.750000
vt 0.875000 0.500000
vt 0.875000 0.750000
vn -1.0000 0.0000 0.0000
vn 0.0000 1.0000 0.0000
vn 1.0000 0.0000 0.0000
vn 0.0000 -1.0000 0.0000
vn 0.0000 0.0000 -1.0000
vn 0.0000 0.0000 1.0000
usemtl Material.002
s off
f 57/99/7 58/100/7 60/101/7 59/102/7
f 59/102/8 60/101/8 64/103/8 63/104/8
f 63/104/9 64/103/9 62/105/9 61/106/9
f 61/106/10 62/105/10 58/107/10 57/108/10
f 59/109/11 63/104/11 61/106/11 57/110/11
f 64/103/12 60/111/12 58/112/12 62/105/12
f 65/113/7 66/114/7 68/115/7 67/116/7
f 67/116/11 68/115/11 72/117/11 71/118/11
f 71/118/9 72/117/9 70/119/9 69/120/9
f 69/120/12 70/119/12 66/121/12 65/122/12
f 67/123/10 71/118/10 69/120/10 65/124/10
f 72/117/8 68/125/8 66/126/8 70/119/8
