# Blender v2.91.2 OBJ File: 'KABDRUPx3.blend'
# www.blender.org
mtllib KABDRUPx3.mtl
o Cube.001_Cube.004
v 0.709845 0.000000 -0.321166
v 0.709845 1.380000 -0.321166
v -0.709845 0.000000 -0.321166
v -0.709845 1.380000 -0.321166
v 0.709845 0.000000 -0.347544
v 0.709845 1.380000 -0.347544
v -0.709845 0.000000 -0.347544
v -0.709845 1.380000 -0.347544
v 0.681921 0.000000 0.312050
v 0.681921 1.380000 0.312050
v 0.681921 0.000000 -0.347801
v 0.681921 1.380000 -0.347801
v 0.709797 0.000000 0.312050
v 0.709797 1.380000 0.312050
v 0.709797 0.000000 -0.347801
v 0.709797 1.380000 -0.347801
v -0.709797 0.000000 0.312652
v -0.709797 1.380000 0.312652
v -0.709797 0.000000 -0.347199
v -0.709797 1.380000 -0.347199
v -0.681921 0.000000 0.312652
v -0.681921 1.380000 0.312652
v -0.681921 0.000000 -0.347199
v -0.681921 1.380000 -0.347199
v 0.706596 0.056121 0.312276
v 0.706596 1.380013 0.312276
v -0.706596 0.056121 0.312276
v -0.706596 1.380013 0.312276
v 0.706596 0.056121 0.285898
v 0.706596 1.380013 0.285898
v -0.706596 0.056121 0.285898
v -0.706596 1.380013 0.285898
v 0.706596 0.000000 0.285763
v 0.706596 1.380000 0.285763
v -0.706596 0.000000 0.285763
v -0.706596 1.380000 0.285763
v 0.706596 0.000000 0.259385
v 0.706596 1.380000 0.259385
v -0.706596 0.000000 0.259385
v -0.706596 1.380000 0.259385
v 0.709817 1.379799 -0.348232
v 0.709817 1.379799 0.348293
v -0.709817 1.379799 -0.348231
v -0.709817 1.379799 0.348293
v 0.709817 1.407674 -0.348232
v 0.709817 1.407674 0.348293
v -0.709817 1.407675 -0.348231
v -0.709817 1.407675 0.348293
vt 0.375000 0.000000
vt 0.625000 0.000000
vt 0.625000 0.250000
vt 0.375000 0.250000
vt 0.625000 0.500000
vt 0.375000 0.500000
vt 0.625000 0.750000
vt 0.375000 0.750000
vt 0.625000 1.000000
vt 0.375000 1.000000
vt 0.125000 0.500000
vt 0.125000 0.750000
vt 0.875000 0.500000
vt 0.875000 0.750000
vt 0.375000 0.000000
vt 0.625000 0.000000
vt 0.625000 0.250000
vt 0.375000 0.250000
vt 0.625000 0.500000
vt 0.375000 0.500000
vt 0.625000 0.750000
vt 0.375000 0.750000
vt 0.625000 1.000000
vt 0.375000 1.000000
vt 0.125000 0.500000
vt 0.125000 0.750000
vt 0.875000 0.500000
vt 0.875000 0.750000
vt 0.375000 0.000000
vt 0.625000 0.000000
vt 0.625000 0.250000
vt 0.375000 0.250000
vt 0.625000 0.500000
vt 0.375000 0.500000
vt 0.625000 0.750000
vt 0.375000 0.750000
vt 0.625000 1.000000
vt 0.375000 1.000000
vt 0.125000 0.500000
vt 0.125000 0.750000
vt 0.875000 0.500000
vt 0.875000 0.750000
vt 0.375000 0.000000
vt 0.625000 0.000000
vt 0.625000 0.250000
vt 0.375000 0.250000
vt 0.625000 0.500000
vt 0.375000 0.500000
vt 0.625000 0.750000
vt 0.375000 0.750000
vt 0.625000 1.000000
vt 0.375000 1.000000
vt 0.125000 0.500000
vt 0.125000 0.750000
vt 0.875000 0.500000
vt 0.875000 0.750000
vt 0.375000 0.000000
vt 0.625000 0.000000
vt 0.625000 0.250000
vt 0.375000 0.250000
vt 0.625000 0.500000
vt 0.375000 0.500000
vt 0.625000 0.750000
vt 0.375000 0.750000
vt 0.625000 1.000000
vt 0.375000 1.000000
vt 0.125000 0.500000
vt 0.125000 0.750000
vt 0.875000 0.500000
vt 0.875000 0.750000
vt 0.375000 0.000000
vt 0.625000 0.000000
vt 0.625000 0.250000
vt 0.375000 0.250000
vt 0.625000 0.500000
vt 0.375000 0.500000
vt 0.625000 0.750000
vt 0.375000 0.750000
vt 0.625000 1.000000
vt 0.375000 1.000000
vt 0.125000 0.500000
vt 0.125000 0.750000
vt 0.875000 0.500000
vt 0.875000 0.750000
vn 0.0000 0.0000 1.0000
vn -1.0000 0.0000 0.0000
vn -0.0000 0.0000 -1.0000
vn 1.0000 0.0000 0.0000
vn 0.0000 -1.0000 0.0000
vn 0.0000 1.0000 0.0000
usemtl Material.001
s off
f 1/1/1 2/2/1 4/3/1 3/4/1
f 3/4/2 4/3/2 8/5/2 7/6/2
f 7/6/3 8/5/3 6/7/3 5/8/3
f 5/8/4 6/7/4 2/9/4 1/10/4
f 3/11/5 7/6/5 5/8/5 1/12/5
f 8/5/6 4/13/6 2/14/6 6/7/6
f 9/15/2 10/16/2 12/17/2 11/18/2
f 11/18/3 12/17/3 16/19/3 15/20/3
f 15/20/4 16/19/4 14/21/4 13/22/4
f 13/22/1 14/21/1 10/23/1 9/24/1
f 11/25/5 15/20/5 13/22/5 9/26/5
f 16/19/6 12/27/6 10/28/6 14/21/6
f 17/29/2 18/30/2 20/31/2 19/32/2
f 19/32/3 20/31/3 24/33/3 23/34/3
f 23/34/4 24/33/4 22/35/4 21/36/4
f 21/36/1 22/35/1 18/37/1 17/38/1
f 19/39/5 23/34/5 21/36/5 17/40/5
f 24/33/6 20/41/6 18/42/6 22/35/6
f 25/43/1 26/44/1 28/45/1 27/46/1
f 27/46/2 28/45/2 32/47/2 31/48/2
f 31/48/3 32/47/3 30/49/3 29/50/3
f 29/50/4 30/49/4 26/51/4 25/52/4
f 27/53/5 31/48/5 29/50/5 25/54/5
f 32/47/6 28/55/6 26/56/6 30/49/6
f 33/57/1 34/58/1 36/59/1 35/60/1
f 35/60/2 36/59/2 40/61/2 39/62/2
f 39/62/3 40/61/3 38/63/3 37/64/3
f 37/64/4 38/63/4 34/65/4 33/66/4
f 35/67/5 39/62/5 37/64/5 33/68/5
f 40/61/6 36/69/6 34/70/6 38/63/6
f 41/71/5 42/72/5 44/73/5 43/74/5
f 43/74/2 44/73/2 48/75/2 47/76/2
f 47/76/6 48/75/6 46/77/6 45/78/6
f 45/78/4 46/77/4 42/79/4 41/80/4
f 43/81/3 47/76/3 45/78/3 41/82/3
f 48/75/1 44/83/1 42/84/1 46/77/1
o Cube.008_Cube.011
v 0.706596 0.074964 0.346302
v 0.706596 0.499851 0.346302
v -0.706596 0.074964 0.346303
v -0.706596 0.499851 0.346303
v 0.706596 0.074964 0.153175
v 0.706596 0.499851 0.153175
v -0.706596 0.074964 0.153175
v -0.706596 0.499851 0.153175
v 0.706596 0.947273 0.346302
v 0.706596 1.372160 0.346302
v -0.706596 0.947273 0.346302
v -0.706596 1.372160 0.346302
v 0.706596 0.947273 0.153175
v 0.706596 1.372160 0.153175
v -0.706596 0.947273 0.153175
v -0.706596 1.372160 0.153175
v 0.706596 0.511118 0.346302
v 0.706596 0.936005 0.346302
v -0.706596 0.511118 0.346302
v -0.706596 0.936005 0.346302
v 0.706596 0.511118 0.153175
v 0.706596 0.936005 0.153175
v -0.706596 0.511118 0.153175
v -0.706596 0.936005 0.153175
vt 0.375000 0.000000
vt 0.625000 0.000000
vt 0.625000 0.250000
vt 0.375000 0.250000
vt 0.625000 0.500000
vt 0.375000 0.500000
vt 0.625000 0.750000
vt 0.375000 0.750000
vt 0.625000 1.000000
vt 0.375000 1.000000
vt 0.125000 0.500000
vt 0.125000 0.750000
vt 0.875000 0.500000
vt 0.875000 0.750000
vt 0.375000 0.000000
vt 0.625000 0.000000
vt 0.625000 0.250000
vt 0.375000 0.250000
vt 0.625000 0.500000
vt 0.375000 0.500000
vt 0.625000 0.750000
vt 0.375000 0.750000
vt 0.625000 1.000000
vt 0.375000 1.000000
vt 0.125000 0.500000
vt 0.125000 0.750000
vt 0.875000 0.500000
vt 0.875000 0.750000
vt 0.375000 0.000000
vt 0.625000 0.000000
vt 0.625000 0.250000
vt 0.375000 0.250000
vt 0.625000 0.500000
vt 0.375000 0.500000
vt 0.625000 0.750000
vt 0.375000 0.750000
vt 0.625000 1.000000
vt 0.375000 1.000000
vt 0.125000 0.500000
vt 0.125000 0.750000
vt 0.875000 0.500000
vt 0.875000 0.750000
vn 0.0000 0.0000 1.0000
vn -1.0000 0.0000 0.0000
vn -0.0000 0.0000 -1.0000
vn 1.0000 0.0000 0.0000
vn 0.0000 -1.0000 0.0000
vn 0.0000 1.0000 0.0000
usemtl Material.002
s off
f 49/85/7 50/86/7 52/87/7 51/88/7
f 51/88/8 52/87/8 56/89/8 55/90/8
f 55/90/9 56/89/9 54/91/9 53/92/9
f 53/92/10 54/91/10 50/93/10 49/94/10
f 51/95/11 55/90/11 53/92/11 49/96/11
f 56/89/12 52/97/12 50/98/12 54/91/12
f 57/99/7 58/100/7 60/101/7 59/102/7
f 59/102/8 60/101/8 64/103/8 63/104/8
f 63/104/9 64/103/9 62/105/9 61/106/9
f 61/106/10 62/105/10 58/107/10 57/108/10
f 59/109/11 63/104/11 61/106/11 57/110/11
f 64/103/12 60/111/12 58/112/12 62/105/12
f 65/113/7 66/114/7 68/115/7 67/116/7
f 67/116/8 68/115/8 72/117/8 71/118/8
f 71/118/9 72/117/9 70/119/9 69/120/9
f 69/120/10 70/119/10 66/121/10 65/122/10
f 67/123/11 71/118/11 69/120/11 65/124/11
f 72/117/12 68/125/12 66/126/12 70/119/12
o Cube.011_Cube.015
v -0.158192 0.257072 0.391895
v -0.158192 0.290946 0.391895
v -0.158192 0.257072 0.372987
v -0.158192 0.290946 0.372987
v 0.158192 0.257072 0.391895
v 0.158192 0.290946 0.391895
v 0.158192 0.257072 0.372987
v 0.158192 0.290946 0.372987
v -0.158192 0.272053 0.336239
v -0.158192 0.272053 0.373037
v -0.158192 0.290961 0.336239
v -0.158192 0.290961 0.373037
v 0.158192 0.272053 0.336239
v 0.158192 0.272053 0.373037
v 0.158192 0.290961 0.336239
v 0.158192 0.290961 0.373037
v -0.158192 1.167384 0.391895
v -0.158192 1.201259 0.391895
v -0.158192 1.167384 0.372988
v -0.158192 1.201259 0.372988
v 0.158192 1.167384 0.391895
v 0.158192 1.201259 0.391895
v 0.158192 1.167384 0.372988
v 0.158192 1.201259 0.372988
v -0.158192 1.182366 0.336239
v -0.158192 1.182366 0.373037
v -0.158192 1.201273 0.336239
v -0.158192 1.201273 0.373037
v 0.158192 1.182366 0.336239
v 0.158192 1.182366 0.373037
v 0.158192 1.201273 0.336239
v 0.158192 1.201273 0.373037
v -0.158192 0.714975 0.391895
v -0.158192 0.748850 0.391895
v -0.158192 0.714975 0.372988
v -0.158192 0.748850 0.372988
v 0.158192 0.714975 0.391895
v 0.158192 0.748850 0.391895
v 0.158192 0.714975 0.372988
v 0.158192 0.748850 0.372988
v -0.158192 0.729957 0.336239
v -0.158192 0.729957 0.373037
v -0.158192 0.748865 0.336239
v -0.158192 0.748865 0.373037
v 0.158192 0.729957 0.336239
v 0.158192 0.729957 0.373037
v 0.158192 0.748865 0.336239
v 0.158192 0.748865 0.373037
vt 0.375000 0.000000
vt 0.625000 0.000000
vt 0.625000 0.250000
vt 0.375000 0.250000
vt 0.625000 0.500000
vt 0.375000 0.500000
vt 0.625000 0.750000
vt 0.375000 0.750000
vt 0.625000 1.000000
vt 0.375000 1.000000
vt 0.125000 0.500000
vt 0.125000 0.750000
vt 0.875000 0.500000
vt 0.875000 0.750000
vt 0.375000 0.000000
vt 0.625000 0.000000
vt 0.625000 0.250000
vt 0.375000 0.250000
vt 0.625000 0.500000
vt 0.375000 0.500000
vt 0.625000 0.750000
vt 0.375000 0.750000
vt 0.625000 1.000000
vt 0.375000 1.000000
vt 0.125000 0.500000
vt 0.125000 0.750000
vt 0.875000 0.500000
vt 0.875000 0.750000
vt 0.375000 0.000000
vt 0.625000 0.000000
vt 0.625000 0.250000
vt 0.375000 0.250000
vt 0.625000 0.500000
vt 0.375000 0.500000
vt 0.625000 0.750000
vt 0.375000 0.750000
vt 0.625000 1.000000
vt 0.375000 1.000000
vt 0.125000 0.500000
vt 0.125000 0.750000
vt 0.875000 0.500000
vt 0.875000 0.750000
vt 0.375000 0.000000
vt 0.625000 0.000000
vt 0.625000 0.250000
vt 0.375000 0.250000
vt 0.625000 0.500000
vt 0.375000 0.500000
vt 0.625000 0.750000
vt 0.375000 0.750000
vt 0.625000 1.000000
vt 0.375000 1.000000
vt 0.125000 0.500000
vt 0.125000 0.750000
vt 0.875000 0.500000
vt 0.875000 0.750000
vt 0.375000 0.000000
vt 0.625000 0.000000
vt 0.625000 0.250000
vt 0.375000 0.250000
vt 0.625000 0.500000
vt 0.375000 0.500000
vt 0.625000 0.750000
vt 0.375000 0.750000
vt 0.625000 1.000000
vt 0.375000 1.000000
vt 0.125000 0.500000
vt 0.125000 0.750000
vt 0.875000 0.500000
vt 0.875000 0.750000
vt 0.375000 0.000000
vt 0.625000 0.000000
vt 0.625000 0.250000
vt 0.375000 0.250000
vt 0.625000 0.500000
vt 0.375000 0.500000
vt 0.625000 0.750000
vt 0.375000 0.750000
vt 0.625000 1.000000
vt 0.375000 1.000000
vt 0.125000 0.500000
vt 0.125000 0.750000
vt 0.875000 0.500000
vt 0.875000 0.750000
vn -1.0000 0.0000 0.0000
vn 0.0000 0.0000 -1.0000
vn 1.0000 0.0000 0.0000
vn 0.0000 0.0000 1.0000
vn 0.0000 -1.0000 0.0000
vn 0.0000 1.0000 0.0000
usemtl Material.003
s off
f 73/127/13 74/128/13 76/129/13 75/130/13
f 75/130/14 76/129/14 80/131/14 79/132/14
f 79/132/15 80/131/15 78/133/15 77/134/15
f 77/134/16 78/133/16 74/135/16 73/136/16
f 75/137/17 79/132/17 77/134/17 73/138/17
f 80/131/18 76/139/18 74/140/18 78/133/18
f 81/141/13 82/142/13 84/143/13 83/144/13
f 83/144/18 84/143/18 88/145/18 87/146/18
f 87/146/15 88/145/15 86/147/15 85/148/15
f 85/148/17 86/147/17 82/149/17 81/150/17
f 83/151/14 87/146/14 85/148/14 81/152/14
f 88/145/16 84/153/16 82/154/16 86/147/16
f 89/155/13 90/156/13 92/157/13 91/158/13
f 91/158/14 92/157/14 96/159/14 95/160/14
f 95/160/15 96/159/15 94/161/15 93/162/15
f 93/162/16 94/161/16 90/163/16 89/164/16
f 91/165/17 95/160/17 93/162/17 89/166/17
f 96/159/18 92/167/18 90/168/18 94/161/18
f 97/169/13 98/170/13 100/171/13 99/172/13
f 99/172/18 100/171/18 104/173/18 103/174/18
f 103/174/15 104/173/15 102/175/15 101/176/15
f 101/176/17 102/175/17 98/177/17 97/178/17
f 99/179/14 103/174/14 101/176/14 97/180/14
f 104/173/16 100/181/16 98/182/16 102/175/16
f 105/183/13 106/184/13 108/185/13 107/186/13
f 107/186/14 108/185/14 112/187/14 111/188/14
f 111/188/15 112/187/15 110/189/15 109/190/15
f 109/190/16 110/189/16 106/191/16 105/192/16
f 107/193/17 111/188/17 109/190/17 105/194/17
f 112/187/18 108/195/18 106/196/18 110/189/18
f 113/197/13 114/198/13 116/199/13 115/200/13
f 115/200/18 116/199/18 120/201/18 119/202/18
f 119/202/15 120/201/15 118/203/15 117/204/15
f 117/204/17 118/203/17 114/205/17 113/206/17
f 115/207/14 119/202/14 117/204/14 113/208/14
f 120/201/16 116/209/16 114/210/16 118/203/16
