# Blender v2.91.2 OBJ File: 'TRANBJERGx4.blend'
# www.blender.org
mtllib TRANBJERGx4.mtl
o cube_Plane
v 0.767838 0.000000 0.368450
v 0.767838 1.880000 0.368450
v 0.767838 0.000000 -0.399229
v 0.767838 1.880000 -0.399229
v 0.799992 0.000000 0.368450
v 0.799992 1.880000 0.368450
v 0.799992 0.000000 -0.399229
v 0.799992 1.880000 -0.399229
v -0.799992 0.000000 0.368450
v -0.799992 1.880000 0.368450
v -0.799992 0.000000 -0.399229
v -0.799992 1.880000 -0.399229
v -0.767838 0.000000 0.368450
v -0.767838 1.880000 0.368450
v -0.767838 0.000000 -0.399229
v -0.767838 1.880000 -0.399229
v 0.800015 0.000000 -0.367752
v 0.800015 1.880000 -0.367752
v -0.800015 0.000000 -0.367752
v -0.800015 1.880000 -0.367752
v 0.800015 0.000000 -0.399906
v 0.800015 1.880000 -0.399906
v -0.800015 0.000000 -0.399906
v -0.800015 1.880000 -0.399906
v 0.797628 0.000000 0.337435
v 0.797628 1.880000 0.337435
v -0.797628 0.000000 0.337435
v -0.797628 1.880000 0.337435
v 0.797628 0.000000 0.306568
v 0.797628 1.880000 0.306568
v -0.797628 0.000000 0.306568
v -0.797628 1.880000 0.306568
v -0.800000 1.879902 0.400000
v -0.800000 1.911902 0.400000
v -0.800000 1.879902 -0.400000
v -0.800000 1.911902 -0.400000
v 0.800000 1.879902 0.400000
v 0.800000 1.911902 0.400000
v 0.800000 1.879902 -0.400000
v 0.800000 1.911902 -0.400000
v 0.797628 0.147499 0.368332
v 0.797628 1.879883 0.368332
v -0.797628 0.147499 0.368332
v -0.797628 1.879883 0.368332
v 0.797628 0.147499 0.337464
v 0.797628 1.879883 0.337464
v -0.797628 0.147499 0.337464
v -0.797628 1.879883 0.337464
vt 0.375000 0.000000
vt 0.625000 0.000000
vt 0.625000 0.250000
vt 0.375000 0.250000
vt 0.625000 0.500000
vt 0.375000 0.500000
vt 0.625000 0.750000
vt 0.375000 0.750000
vt 0.625000 1.000000
vt 0.375000 1.000000
vt 0.125000 0.500000
vt 0.125000 0.750000
vt 0.875000 0.500000
vt 0.875000 0.750000
vt 0.375000 0.000000
vt 0.625000 0.000000
vt 0.625000 0.250000
vt 0.375000 0.250000
vt 0.625000 0.500000
vt 0.375000 0.500000
vt 0.625000 0.750000
vt 0.375000 0.750000
vt 0.625000 1.000000
vt 0.375000 1.000000
vt 0.125000 0.500000
vt 0.125000 0.750000
vt 0.875000 0.500000
vt 0.875000 0.750000
vt 0.375000 0.000000
vt 0.625000 0.000000
vt 0.625000 0.250000
vt 0.375000 0.250000
vt 0.625000 0.500000
vt 0.375000 0.500000
vt 0.625000 0.750000
vt 0.375000 0.750000
vt 0.625000 1.000000
vt 0.375000 1.000000
vt 0.125000 0.500000
vt 0.125000 0.750000
vt 0.875000 0.500000
vt 0.875000 0.750000
vt 0.375000 0.000000
vt 0.625000 0.000000
vt 0.625000 0.250000
vt 0.375000 0.250000
vt 0.625000 0.500000
vt 0.375000 0.500000
vt 0.625000 0.750000
vt 0.375000 0.750000
vt 0.625000 1.000000
vt 0.375000 1.000000
vt 0.125000 0.500000
vt 0.125000 0.750000
vt 0.875000 0.500000
vt 0.875000 0.750000
vt 0.375000 0.000000
vt 0.625000 0.000000
vt 0.625000 0.250000
vt 0.375000 0.250000
vt 0.625000 0.500000
vt 0.375000 0.500000
vt 0.625000 0.750000
vt 0.375000 0.750000
vt 0.625000 1.000000
vt 0.375000 1.000000
vt 0.125000 0.500000
vt 0.125000 0.750000
vt 0.875000 0.500000
vt 0.875000 0.750000
vt 0.375000 0.000000
vt 0.625000 0.000000
vt 0.625000 0.250000
vt 0.375000 0.250000
vt 0.625000 0.500000
vt 0.375000 0.500000
vt 0.625000 0.750000
vt 0.375000 0.750000
vt 0.625000 1.000000
vt 0.375000 1.000000
vt 0.125000 0.500000
vt 0.125000 0.750000
vt 0.875000 0.500000
vt 0.875000 0.750000
vn -1.0000 0.0000 0.0000
vn 0.0000 0.0000 -1.0000
vn 1.0000 0.0000 0.0000
vn 0.0000 0.0000 1.0000
vn 0.0000 -1.0000 0.0000
vn 0.0000 1.0000 0.0000
usemtl Material.001
s off
f 1/1/1 2/2/1 4/3/1 3/4/1
f 3/4/2 4/3/2 8/5/2 7/6/2
f 7/6/3 8/5/3 6/7/3 5/8/3
f 5/8/4 6/7/4 2/9/4 1/10/4
f 3/11/5 7/6/5 5/8/5 1/12/5
f 8/5/6 4/13/6 2/14/6 6/7/6
f 9/15/1 10/16/1 12/17/1 11/18/1
f 11/18/2 12/17/2 16/19/2 15/20/2
f 15/20/3 16/19/3 14/21/3 13/22/3
f 13/22/4 14/21/4 10/23/4 9/24/4
f 11/25/5 15/20/5 13/22/5 9/26/5
f 16/19/6 12/27/6 10/28/6 14/21/6
f 17/29/4 18/30/4 20/31/4 19/32/4
f 19/32/1 20/31/1 24/33/1 23/34/1
f 23/34/2 24/33/2 22/35/2 21/36/2
f 21/36/3 22/35/3 18/37/3 17/38/3
f 19/39/5 23/34/5 21/36/5 17/40/5
f 24/33/6 20/41/6 18/42/6 22/35/6
f 25/43/4 26/44/4 28/45/4 27/46/4
f 27/46/1 28/45/1 32/47/1 31/48/1
f 31/48/2 32/47/2 30/49/2 29/50/2
f 29/50/3 30/49/3 26/51/3 25/52/3
f 27/53/5 31/48/5 29/50/5 25/54/5
f 32/47/6 28/55/6 26/56/6 30/49/6
f 33/57/1 34/58/1 36/59/1 35/60/1
f 35/60/2 36/59/2 40/61/2 39/62/2
f 39/62/3 40/61/3 38/63/3 37/64/3
f 37/64/4 38/63/4 34/65/4 33/66/4
f 35/67/5 39/62/5 37/64/5 33/68/5
f 40/61/6 36/69/6 34/70/6 38/63/6
f 41/71/4 42/72/4 44/73/4 43/74/4
f 43/74/1 44/73/1 48/75/1 47/76/1
f 47/76/2 48/75/2 46/77/2 45/78/2
f 45/78/3 46/77/3 42/79/3 41/80/3
f 43/81/5 47/76/5 45/78/5 41/82/5
f 48/75/6 44/83/6 42/84/6 46/77/6
o Cube.009_Cube.010
v 0.797628 0.147360 0.398982
v 0.797628 0.528719 0.398982
v -0.797628 0.147360 0.398982
v -0.797628 0.528719 0.398982
v 0.797628 0.147360 0.262855
v 0.797628 0.528719 0.262855
v -0.797628 0.147360 0.262855
v -0.797628 0.528719 0.262855
v 0.797628 1.452431 0.398982
v 0.797628 1.833791 0.398982
v -0.797628 1.452431 0.398982
v -0.797628 1.833791 0.398982
v 0.797628 1.452431 0.262855
v 0.797628 1.833791 0.262855
v -0.797628 1.452431 0.262855
v -0.797628 1.833791 0.262855
v 0.797628 1.016354 0.398982
v 0.797628 1.397713 0.398982
v -0.797628 1.016354 0.398982
v -0.797628 1.397713 0.398982
v 0.797628 1.016354 0.262855
v 0.797628 1.397713 0.262855
v -0.797628 1.016354 0.262855
v -0.797628 1.397713 0.262855
v 0.797628 0.583437 0.398982
v 0.797628 0.964796 0.398982
v -0.797628 0.583437 0.398982
v -0.797628 0.964796 0.398982
v 0.797628 0.583437 0.262855
v 0.797628 0.964796 0.262855
v -0.797628 0.583437 0.262855
v -0.797628 0.964796 0.262855
vt 0.375000 0.000000
vt 0.625000 0.000000
vt 0.625000 0.250000
vt 0.375000 0.250000
vt 0.625000 0.500000
vt 0.375000 0.500000
vt 0.625000 0.750000
vt 0.375000 0.750000
vt 0.625000 1.000000
vt 0.375000 1.000000
vt 0.125000 0.500000
vt 0.125000 0.750000
vt 0.875000 0.500000
vt 0.875000 0.750000
vt 0.375000 0.000000
vt 0.625000 0.000000
vt 0.625000 0.250000
vt 0.375000 0.250000
vt 0.625000 0.500000
vt 0.375000 0.500000
vt 0.625000 0.750000
vt 0.375000 0.750000
vt 0.625000 1.000000
vt 0.375000 1.000000
vt 0.125000 0.500000
vt 0.125000 0.750000
vt 0.875000 0.500000
vt 0.875000 0.750000
vt 0.375000 0.000000
vt 0.625000 0.000000
vt 0.625000 0.250000
vt 0.375000 0.250000
vt 0.625000 0.500000
vt 0.375000 0.500000
vt 0.625000 0.750000
vt 0.375000 0.750000
vt 0.625000 1.000000
vt 0.375000 1.000000
vt 0.125000 0.500000
vt 0.125000 0.750000
vt 0.875000 0.500000
vt 0.875000 0.750000
vt 0.375000 0.000000
vt 0.625000 0.000000
vt 0.625000 0.250000
vt 0.375000 0.250000
vt 0.625000 0.500000
vt 0.375000 0.500000
vt 0.625000 0.750000
vt 0.375000 0.750000
vt 0.625000 1.000000
vt 0.375000 1.000000
vt 0.125000 0.500000
vt 0.125000 0.750000
vt 0.875000 0.500000
vt 0.875000 0.750000
vn 0.0000 0.0000 1.0000
vn -1.0000 0.0000 0.0000
vn -0.0000 0.0000 -1.0000
vn 1.0000 0.0000 0.0000
vn 0.0000 -1.0000 0.0000
vn 0.0000 1.0000 0.0000
usemtl Material.002
s off
f 49/85/7 50/86/7 52/87/7 51/88/7
f 51/88/8 52/87/8 56/89/8 55/90/8
f 55/90/9 56/89/9 54/91/9 53/92/9
f 53/92/10 54/91/10 50/93/10 49/94/10
f 51/95/11 55/90/11 53/92/11 49/96/11
f 56/89/12 52/97/12 50/98/12 54/91/12
f 57/99/7 58/100/7 60/101/7 59/102/7
f 59/102/8 60/101/8 64/103/8 63/104/8
f 63/104/9 64/103/9 62/105/9 61/106/9
f 61/106/10 62/105/10 58/107/10 57/108/10
f 59/109/11 63/104/11 61/106/11 57/110/11
f 64/103/12 60/111/12 58/112/12 62/105/12
f 65/113/7 66/114/7 68/115/7 67/116/7
f 67/116/8 68/115/8 72/117/8 71/118/8
f 71/118/9 72/117/9 70/119/9 69/120/9
f 69/120/10 70/119/10 66/121/10 65/122/10
f 67/123/11 71/118/11 69/120/11 65/124/11
f 72/117/12 68/125/12 66/126/12 70/119/12
f 73/127/7 74/128/7 76/129/7 75/130/7
f 75/130/8 76/129/8 80/131/8 79/132/8
f 79/132/9 80/131/9 78/133/9 77/134/9
f 77/134/10 78/133/10 74/135/10 73/136/10
f 75/137/11 79/132/11 77/134/11 73/138/11
f 80/131/12 76/139/12 74/140/12 78/133/12
