# Blender v2.91.2 OBJ File: 'BILLUND.blend'
# www.blender.org
mtllib BILLUND.mtl
o Куб.002
v 0.783963 0.000000 -0.484000
v 0.783963 3.860000 -0.484000
v -0.783963 0.000000 -0.484000
v -0.783963 3.860000 -0.484000
v 0.783963 0.000000 -0.510000
v 0.783963 3.860000 -0.510000
v -0.783963 0.000000 -0.510000
v -0.783963 3.860000 -0.510000
v 0.783974 0.000000 0.510000
v 0.783974 3.860000 0.510000
v 0.783974 0.000000 -0.510000
v 0.783974 3.860000 -0.510000
v 0.809974 0.000000 0.510000
v 0.809974 3.860000 0.510000
v 0.809974 0.000000 -0.510000
v 0.809974 3.860000 -0.510000
v -0.809974 0.000000 0.510000
v -0.809974 3.860000 0.510000
v -0.809974 0.000000 -0.510000
v -0.809974 3.860000 -0.510000
v -0.783974 0.000000 0.510000
v -0.783974 3.860000 0.510000
v -0.783974 0.000000 -0.510000
v -0.783974 3.860000 -0.510000
v -0.783826 3.833972 0.509966
v -0.783826 3.859972 0.509966
v -0.783826 3.833972 -0.486647
v -0.783826 3.859972 -0.486647
v 0.783826 3.833972 0.509966
v 0.783826 3.859972 0.509966
v 0.783826 3.833972 -0.486647
v 0.783826 3.859972 -0.486647
v -0.783826 0.000929 0.468681
v -0.783826 0.026929 0.468681
v -0.783826 0.000929 -0.483379
v -0.783826 0.026929 -0.483379
v 0.783826 0.000929 0.468681
v 0.783826 0.026929 0.468681
v 0.783826 0.000929 -0.483379
v 0.783826 0.026929 -0.483379
v 0.783963 0.000000 0.468926
v 0.783963 3.860000 0.468926
v -0.783963 0.000000 0.468926
v -0.783963 3.860000 0.468926
v 0.783963 0.000000 0.442925
v 0.783963 3.860000 0.442925
v -0.783963 0.000000 0.442926
v -0.783963 3.860000 0.442926
v -0.783826 0.123917 0.509869
v -0.783826 0.149917 0.509869
v -0.783826 0.123917 -0.499128
v -0.783826 0.149917 -0.499128
v 0.783826 0.123917 0.509869
v 0.783826 0.149917 0.509869
v 0.783826 0.123917 -0.499128
v 0.783826 0.149917 -0.499128
vt 0.375000 0.000000
vt 0.625000 0.000000
vt 0.625000 0.250000
vt 0.375000 0.250000
vt 0.625000 0.500000
vt 0.375000 0.500000
vt 0.625000 0.750000
vt 0.375000 0.750000
vt 0.625000 1.000000
vt 0.375000 1.000000
vt 0.125000 0.500000
vt 0.125000 0.750000
vt 0.875000 0.500000
vt 0.875000 0.750000
vt 0.375000 0.000000
vt 0.625000 0.000000
vt 0.625000 0.250000
vt 0.375000 0.250000
vt 0.625000 0.500000
vt 0.375000 0.500000
vt 0.625000 0.750000
vt 0.375000 0.750000
vt 0.625000 1.000000
vt 0.375000 1.000000
vt 0.125000 0.500000
vt 0.125000 0.750000
vt 0.875000 0.500000
vt 0.875000 0.750000
vt 0.375000 0.000000
vt 0.625000 0.000000
vt 0.625000 0.250000
vt 0.375000 0.250000
vt 0.625000 0.500000
vt 0.375000 0.500000
vt 0.625000 0.750000
vt 0.375000 0.750000
vt 0.625000 1.000000
vt 0.375000 1.000000
vt 0.125000 0.500000
vt 0.125000 0.750000
vt 0.875000 0.500000
vt 0.875000 0.750000
vt 0.375000 0.000000
vt 0.625000 0.000000
vt 0.625000 0.250000
vt 0.375000 0.250000
vt 0.625000 0.500000
vt 0.375000 0.500000
vt 0.625000 0.750000
vt 0.375000 0.750000
vt 0.625000 1.000000
vt 0.375000 1.000000
vt 0.125000 0.500000
vt 0.125000 0.750000
vt 0.875000 0.500000
vt 0.875000 0.750000
vt 0.375000 0.000000
vt 0.625000 0.000000
vt 0.625000 0.250000
vt 0.375000 0.250000
vt 0.625000 0.500000
vt 0.375000 0.500000
vt 0.625000 0.750000
vt 0.375000 0.750000
vt 0.625000 1.000000
vt 0.375000 1.000000
vt 0.125000 0.500000
vt 0.125000 0.750000
vt 0.875000 0.500000
vt 0.875000 0.750000
vt 0.375000 0.000000
vt 0.625000 0.000000
vt 0.625000 0.250000
vt 0.375000 0.250000
vt 0.625000 0.500000
vt 0.375000 0.500000
vt 0.625000 0.750000
vt 0.375000 0.750000
vt 0.625000 1.000000
vt 0.375000 1.000000
vt 0.125000 0.500000
vt 0.125000 0.750000
vt 0.875000 0.500000
vt 0.875000 0.750000
vt 0.375000 0.000000
vt 0.625000 0.000000
vt 0.625000 0.250000
vt 0.375000 0.250000
vt 0.625000 0.500000
vt 0.375000 0.500000
vt 0.625000 0.750000
vt 0.375000 0.750000
vt 0.625000 1.000000
vt 0.375000 1.000000
vt 0.125000 0.500000
vt 0.125000 0.750000
vt 0.875000 0.500000
vt 0.875000 0.750000
vn 0.0000 0.0000 1.0000
vn -1.0000 0.0000 0.0000
vn -0.0000 0.0000 -1.0000
vn 1.0000 0.0000 0.0000
vn 0.0000 -1.0000 0.0000
vn 0.0000 1.0000 0.0000
usemtl Материал.001
s off
f 1/1/1 2/2/1 4/3/1 3/4/1
f 3/4/2 4/3/2 8/5/2 7/6/2
f 7/6/3 8/5/3 6/7/3 5/8/3
f 5/8/4 6/7/4 2/9/4 1/10/4
f 3/11/5 7/6/5 5/8/5 1/12/5
f 8/5/6 4/13/6 2/14/6 6/7/6
f 9/15/2 10/16/2 12/17/2 11/18/2
f 11/18/3 12/17/3 16/19/3 15/20/3
f 15/20/4 16/19/4 14/21/4 13/22/4
f 13/22/1 14/21/1 10/23/1 9/24/1
f 11/25/5 15/20/5 13/22/5 9/26/5
f 16/19/6 12/27/6 10/28/6 14/21/6
f 17/29/2 18/30/2 20/31/2 19/32/2
f 19/32/3 20/31/3 24/33/3 23/34/3
f 23/34/4 24/33/4 22/35/4 21/36/4
f 21/36/1 22/35/1 18/37/1 17/38/1
f 19/39/5 23/34/5 21/36/5 17/40/5
f 24/33/6 20/41/6 18/42/6 22/35/6
f 25/43/2 26/44/2 28/45/2 27/46/2
f 27/46/3 28/45/3 32/47/3 31/48/3
f 31/48/4 32/47/4 30/49/4 29/50/4
f 29/50/1 30/49/1 26/51/1 25/52/1
f 27/53/5 31/48/5 29/50/5 25/54/5
f 32/47/6 28/55/6 26/56/6 30/49/6
f 33/57/2 34/58/2 36/59/2 35/60/2
f 35/60/3 36/59/3 40/61/3 39/62/3
f 39/62/4 40/61/4 38/63/4 37/64/4
f 37/64/1 38/63/1 34/65/1 33/66/1
f 35/67/5 39/62/5 37/64/5 33/68/5
f 40/61/6 36/69/6 34/70/6 38/63/6
f 41/71/1 42/72/1 44/73/1 43/74/1
f 43/74/2 44/73/2 48/75/2 47/76/2
f 47/76/3 48/75/3 46/77/3 45/78/3
f 45/78/4 46/77/4 42/79/4 41/80/4
f 43/81/5 47/76/5 45/78/5 41/82/5
f 48/75/6 44/83/6 42/84/6 46/77/6
f 49/85/2 50/86/2 52/87/2 51/88/2
f 51/88/3 52/87/3 56/89/3 55/90/3
f 55/90/4 56/89/4 54/91/4 53/92/4
f 53/92/1 54/91/1 50/93/1 49/94/1
f 51/95/5 55/90/5 53/92/5 49/96/5
f 56/89/6 52/97/6 50/98/6 54/91/6
o Куб.006
v 0.782226 0.164078 0.509888
v 0.782226 0.566788 0.509888
v -0.782226 0.164078 0.509888
v -0.782226 0.566788 0.509888
v 0.782226 0.164078 0.483888
v 0.782226 0.566788 0.483888
v -0.782226 0.164078 0.483888
v -0.782226 0.566788 0.483888
v 0.782226 0.603873 0.509888
v 0.782226 1.006582 0.509888
v -0.782226 0.603873 0.509888
v -0.782226 1.006582 0.509888
v 0.782226 0.603873 0.483888
v 0.782226 1.006582 0.483888
v -0.782226 0.603873 0.483888
v -0.782226 1.006582 0.483888
v -0.001926 1.040491 0.509888
v -0.001926 3.766712 0.509888
v -0.783156 1.040491 0.509888
v -0.783156 3.766712 0.509888
v -0.001926 1.040491 0.483888
v -0.001926 3.766712 0.483888
v -0.783156 1.040491 0.483888
v -0.783156 3.766712 0.483888
v 0.783156 1.040491 0.509888
v 0.783156 3.766712 0.509888
v 0.001926 1.040491 0.509888
v 0.001926 3.766712 0.509888
v 0.783156 1.040491 0.483888
v 0.783156 3.766712 0.483888
v 0.001926 1.040491 0.483888
v 0.001926 3.766712 0.483888
vt 0.375000 0.000000
vt 0.625000 0.000000
vt 0.625000 0.250000
vt 0.375000 0.250000
vt 0.625000 0.500000
vt 0.375000 0.500000
vt 0.625000 0.750000
vt 0.375000 0.750000
vt 0.625000 1.000000
vt 0.375000 1.000000
vt 0.125000 0.500000
vt 0.125000 0.750000
vt 0.875000 0.500000
vt 0.875000 0.750000
vt 0.375000 0.000000
vt 0.625000 0.000000
vt 0.625000 0.250000
vt 0.375000 0.250000
vt 0.625000 0.500000
vt 0.375000 0.500000
vt 0.625000 0.750000
vt 0.375000 0.750000
vt 0.625000 1.000000
vt 0.375000 1.000000
vt 0.125000 0.500000
vt 0.125000 0.750000
vt 0.875000 0.500000
vt 0.875000 0.750000
vt 0.375000 0.000000
vt 0.625000 0.000000
vt 0.625000 0.250000
vt 0.375000 0.250000
vt 0.625000 0.500000
vt 0.375000 0.500000
vt 0.625000 0.750000
vt 0.375000 0.750000
vt 0.625000 1.000000
vt 0.375000 1.000000
vt 0.125000 0.500000
vt 0.125000 0.750000
vt 0.875000 0.500000
vt 0.875000 0.750000
vt 0.375000 0.000000
vt 0.625000 0.000000
vt 0.625000 0.250000
vt 0.375000 0.250000
vt 0.625000 0.500000
vt 0.375000 0.500000
vt 0.625000 0.750000
vt 0.375000 0.750000
vt 0.625000 1.000000
vt 0.375000 1.000000
vt 0.125000 0.500000
vt 0.125000 0.750000
vt 0.875000 0.500000
vt 0.875000 0.750000
vn 0.0000 0.0000 1.0000
vn -1.0000 0.0000 0.0000
vn -0.0000 0.0000 -1.0000
vn 1.0000 0.0000 0.0000
vn 0.0000 -1.0000 0.0000
vn 0.0000 1.0000 0.0000
usemtl Материал
s off
f 57/99/7 58/100/7 60/101/7 59/102/7
f 59/102/8 60/101/8 64/103/8 63/104/8
f 63/104/9 64/103/9 62/105/9 61/106/9
f 61/106/10 62/105/10 58/107/10 57/108/10
f 59/109/11 63/104/11 61/106/11 57/110/11
f 64/103/12 60/111/12 58/112/12 62/105/12
f 65/113/7 66/114/7 68/115/7 67/116/7
f 67/116/8 68/115/8 72/117/8 71/118/8
f 71/118/9 72/117/9 70/119/9 69/120/9
f 69/120/10 70/119/10 66/121/10 65/122/10
f 67/123/11 71/118/11 69/120/11 65/124/11
f 72/117/12 68/125/12 66/126/12 70/119/12
f 73/127/7 74/128/7 76/129/7 75/130/7
f 75/130/8 76/129/8 80/131/8 79/132/8
f 79/132/9 80/131/9 78/133/9 77/134/9
f 77/134/10 78/133/10 74/135/10 73/136/10
f 75/137/11 79/132/11 77/134/11 73/138/11
f 80/131/12 76/139/12 74/140/12 78/133/12
f 81/141/7 82/142/7 84/143/7 83/144/7
f 83/144/8 84/143/8 88/145/8 87/146/8
f 87/146/9 88/145/9 86/147/9 85/148/9
f 85/148/10 86/147/10 82/149/10 81/150/10
f 83/151/11 87/146/11 85/148/11 81/152/11
f 88/145/12 84/153/12 82/154/12 86/147/12
