# Blender v2.91.2 OBJ File: 'БРИМНЭС.blend'
# www.blender.org
mtllib БРИМНЭС.mtl
o Cube.005_Cube.006
v -1.200000 1.500059 0.650000
v -1.200000 1.532059 0.650000
v -1.200000 1.500059 -0.650000
v -1.200000 1.532059 -0.650000
v 1.200000 1.500059 0.650000
v 1.200000 1.532059 0.650000
v 1.200000 1.500059 -0.650000
v 1.200000 1.532059 -0.650000
v 1.168211 0.000000 0.613008
v 1.168211 1.500000 0.613008
v 1.168211 0.000000 -0.649975
v 1.168211 1.500000 -0.649975
v 1.199929 0.000000 0.613008
v 1.199929 1.500000 0.613008
v 1.199929 0.000000 -0.649975
v 1.199929 1.500000 -0.649975
v -1.199929 0.000000 0.613008
v -1.199929 1.500000 0.613008
v -1.199929 0.000000 -0.649975
v -1.199929 1.500000 -0.649975
v -1.168211 0.000000 0.613008
v -1.168211 1.500000 0.613008
v -1.168211 0.000000 -0.649975
v -1.168211 1.500000 -0.649975
v -0.500577 0.000000 0.613008
v -0.500577 1.500000 0.613008
v -0.500577 0.000000 -0.649975
v -0.500577 1.500000 -0.649975
v -0.468858 0.000000 0.613008
v -0.468858 1.500000 0.613008
v -0.468858 0.000000 -0.649975
v -0.468858 1.500000 -0.649975
v 1.168153 0.605652 -0.618273
v 1.168153 1.500023 -0.618273
v -0.468714 0.605652 -0.618273
v -0.468714 1.500023 -0.618273
v 1.168153 0.605652 -0.649992
v 1.168153 1.500023 -0.649992
v -0.468714 0.605652 -0.649992
v -0.468714 1.500023 -0.649992
v 1.168153 1.282334 -0.341717
v 1.168153 1.432130 -0.341717
v -0.468714 1.282334 -0.341717
v -0.468714 1.432130 -0.341717
v 1.168153 1.282334 -0.460147
v 1.168153 1.432130 -0.460147
v -0.468714 1.282334 -0.460147
v -0.468714 1.432130 -0.460147
v -0.468739 0.000000 -0.617705
v -0.468739 1.500000 -0.617705
v -1.199656 0.000000 -0.617705
v -1.199656 1.500000 -0.617705
v -0.468739 0.000000 -0.649424
v -0.468739 1.500000 -0.649424
v -1.199656 0.000000 -0.649424
v -1.199656 1.500000 -0.649424
vt -40.417332 -163.169327
vt 41.417313 -163.169327
vt 41.417313 -81.334663
vt -40.417332 -81.334663
vt 41.417313 0.499991
vt -40.417332 0.499991
vt 41.417313 82.334648
vt -40.417332 82.334648
vt 41.417313 164.169327
vt -40.417332 164.169327
vt -122.251976 0.499991
vt -122.251976 82.334648
vt 123.251968 0.499991
vt 123.251968 82.334648
vt -40.417332 -163.169327
vt 41.417313 -163.169327
vt 41.417313 -81.334663
vt -40.417332 -81.334663
vt 41.417313 0.499991
vt -40.417332 0.499991
vt 41.417313 82.334648
vt -40.417332 82.334648
vt 41.417313 164.169327
vt -40.417332 164.169327
vt -122.251976 0.499991
vt -122.251976 82.334648
vt 123.251968 0.499991
vt 123.251968 82.334648
vt -40.417332 -163.169327
vt 41.417313 -163.169327
vt 41.417313 -81.334663
vt -40.417332 -81.334663
vt 41.417313 0.499991
vt -40.417332 0.499991
vt 41.417313 82.334648
vt -40.417332 82.334648
vt 41.417313 164.169327
vt -40.417332 164.169327
vt -122.251976 0.499991
vt -122.251976 82.334648
vt 123.251968 0.499991
vt 123.251968 82.334648
vt -40.417332 -163.169327
vt 41.417313 -163.169327
vt 41.417313 -81.334663
vt -40.417332 -81.334663
vt 41.417313 0.499991
vt -40.417332 0.499991
vt 41.417313 82.334648
vt -40.417332 82.334648
vt 41.417313 164.169327
vt -40.417332 164.169327
vt -122.251976 0.499991
vt -122.251976 82.334648
vt 123.251968 0.499991
vt 123.251968 82.334648
vt -40.417332 -163.169327
vt 41.417313 -163.169327
vt 41.417313 -81.334663
vt -40.417332 -81.334663
vt 41.417313 0.499991
vt -40.417332 0.499991
vt 41.417313 82.334648
vt -40.417332 82.334648
vt 41.417313 164.169327
vt -40.417332 164.169327
vt -122.251976 0.499991
vt -122.251976 82.334648
vt 123.251968 0.499991
vt 123.251968 82.334648
vt -40.417332 -163.169327
vt 41.417313 -163.169327
vt 41.417313 -81.334663
vt -40.417332 -81.334663
vt 41.417313 0.499991
vt -40.417332 0.499991
vt 41.417313 82.334648
vt -40.417332 82.334648
vt 41.417313 164.169327
vt -40.417332 164.169327
vt -122.251976 0.499991
vt -122.251976 82.334648
vt 123.251968 0.499991
vt 123.251968 82.334648
vt -40.417332 -163.169327
vt 41.417313 -163.169327
vt 41.417313 -81.334663
vt -40.417332 -81.334663
vt 41.417313 0.499991
vt -40.417332 0.499991
vt 41.417313 82.334648
vt -40.417332 82.334648
vt 41.417313 164.169327
vt -40.417332 164.169327
vt -122.251976 0.499991
vt -122.251976 82.334648
vt 123.251968 0.499991
vt 123.251968 82.334648
vn -1.0000 0.0000 0.0000
vn 0.0000 0.0000 -1.0000
vn 1.0000 0.0000 0.0000
vn 0.0000 0.0000 1.0000
vn 0.0000 -1.0000 0.0000
vn 0.0000 1.0000 0.0000
usemtl Material.002
s off
f 1/1/1 2/2/1 4/3/1 3/4/1
f 3/4/2 4/3/2 8/5/2 7/6/2
f 7/6/3 8/5/3 6/7/3 5/8/3
f 5/8/4 6/7/4 2/9/4 1/10/4
f 3/11/5 7/6/5 5/8/5 1/12/5
f 8/5/6 4/13/6 2/14/6 6/7/6
f 9/15/1 10/16/1 12/17/1 11/18/1
f 11/18/2 12/17/2 16/19/2 15/20/2
f 15/20/3 16/19/3 14/21/3 13/22/3
f 13/22/4 14/21/4 10/23/4 9/24/4
f 11/25/5 15/20/5 13/22/5 9/26/5
f 16/19/6 12/27/6 10/28/6 14/21/6
f 17/29/1 18/30/1 20/31/1 19/32/1
f 19/32/2 20/31/2 24/33/2 23/34/2
f 23/34/3 24/33/3 22/35/3 21/36/3
f 21/36/4 22/35/4 18/37/4 17/38/4
f 19/39/5 23/34/5 21/36/5 17/40/5
f 24/33/6 20/41/6 18/42/6 22/35/6
f 25/43/1 26/44/1 28/45/1 27/46/1
f 27/46/2 28/45/2 32/47/2 31/48/2
f 31/48/3 32/47/3 30/49/3 29/50/3
f 29/50/4 30/49/4 26/51/4 25/52/4
f 27/53/5 31/48/5 29/50/5 25/54/5
f 32/47/6 28/55/6 26/56/6 30/49/6
f 33/57/4 34/58/4 36/59/4 35/60/4
f 35/60/1 36/59/1 40/61/1 39/62/1
f 39/62/2 40/61/2 38/63/2 37/64/2
f 37/64/3 38/63/3 34/65/3 33/66/3
f 35/67/5 39/62/5 37/64/5 33/68/5
f 40/61/6 36/69/6 34/70/6 38/63/6
f 41/71/4 42/72/4 44/73/4 43/74/4
f 43/74/1 44/73/1 48/75/1 47/76/1
f 47/76/2 48/75/2 46/77/2 45/78/2
f 45/78/3 46/77/3 42/79/3 41/80/3
f 43/81/5 47/76/5 45/78/5 41/82/5
f 48/75/6 44/83/6 42/84/6 46/77/6
f 49/85/4 50/86/4 52/87/4 51/88/4
f 51/88/1 52/87/1 56/89/1 55/90/1
f 55/90/2 56/89/2 54/91/2 53/92/2
f 53/92/3 54/91/3 50/93/3 49/94/3
f 51/95/5 55/90/5 53/92/5 49/96/5
f 56/89/6 52/97/6 50/98/6 54/91/6
o Cube.008_Cube.009
v -0.470288 0.117689 0.649399
v -0.470288 1.230389 0.649399
v -1.198107 0.117689 0.649399
v -1.198107 1.230389 0.649399
v -0.470288 0.117689 0.493557
v -0.470288 1.230389 0.493557
v -1.198107 0.117689 0.493557
v -1.198107 1.230389 0.493557
v -0.470288 0.000000 0.492652
v -0.470288 1.500000 0.492652
v -1.198107 0.000000 0.492652
v -1.198107 1.500000 0.492652
v -0.470288 0.000000 0.460933
v -0.470288 1.500000 0.460933
v -1.198107 0.000000 0.460933
v -1.198107 1.500000 0.460933
v -0.470288 1.235915 0.649399
v -0.470288 1.493201 0.649399
v -1.198107 1.235915 0.649399
v -1.198107 1.493201 0.649399
v -0.470288 1.235915 0.493557
v -0.470288 1.493201 0.493557
v -1.198107 1.235915 0.493557
v -1.198107 1.493201 0.493557
vt 0.375000 0.000000
vt 0.625000 0.000000
vt 0.625000 0.250000
vt 0.375000 0.250000
vt 0.625000 0.500000
vt 0.375000 0.500000
vt 0.625000 0.750000
vt 0.375000 0.750000
vt 0.625000 1.000000
vt 0.375000 1.000000
vt 0.125000 0.500000
vt 0.125000 0.750000
vt 0.875000 0.500000
vt 0.875000 0.750000
vt 0.375000 0.000000
vt 0.625000 0.000000
vt 0.625000 0.250000
vt 0.375000 0.250000
vt 0.625000 0.500000
vt 0.375000 0.500000
vt 0.625000 0.750000
vt 0.375000 0.750000
vt 0.625000 1.000000
vt 0.375000 1.000000
vt 0.125000 0.500000
vt 0.125000 0.750000
vt 0.875000 0.500000
vt 0.875000 0.750000
vt 0.375000 0.000000
vt 0.625000 0.000000
vt 0.625000 0.250000
vt 0.375000 0.250000
vt 0.625000 0.500000
vt 0.375000 0.500000
vt 0.625000 0.750000
vt 0.375000 0.750000
vt 0.625000 1.000000
vt 0.375000 1.000000
vt 0.125000 0.500000
vt 0.125000 0.750000
vt 0.875000 0.500000
vt 0.875000 0.750000
vn 0.0000 0.0000 1.0000
vn -1.0000 0.0000 0.0000
vn 0.0000 0.0000 -1.0000
vn 1.0000 0.0000 0.0000
vn 0.0000 -1.0000 0.0000
vn 0.0000 1.0000 0.0000
usemtl Material.003
s off
f 57/99/7 58/100/7 60/101/7 59/102/7
f 59/102/8 60/101/8 64/103/8 63/104/8
f 63/104/9 64/103/9 62/105/9 61/106/9
f 61/106/10 62/105/10 58/107/10 57/108/10
f 59/109/11 63/104/11 61/106/11 57/110/11
f 64/103/12 60/111/12 58/112/12 62/105/12
f 65/113/7 66/114/7 68/115/7 67/116/7
f 67/116/8 68/115/8 72/117/8 71/118/8
f 71/118/9 72/117/9 70/119/9 69/120/9
f 69/120/10 70/119/10 66/121/10 65/122/10
f 67/123/11 71/118/11 69/120/11 65/124/11
f 72/117/12 68/125/12 66/126/12 70/119/12
f 73/127/7 74/128/7 76/129/7 75/130/7
f 75/130/8 76/129/8 80/131/8 79/132/8
f 79/132/9 80/131/9 78/133/9 77/134/9
f 77/134/10 78/133/10 74/135/10 73/136/10
f 75/137/11 79/132/11 77/134/11 73/138/11
f 80/131/12 76/139/12 74/140/12 78/133/12
o Cube.011_Cube.012
v -0.622497 0.119158 0.657913
v -0.622497 1.230200 0.657913
v -0.622497 0.119158 0.649369
v -0.622497 1.230200 0.649369
v -0.468347 0.119158 0.657913
v -0.468347 1.230200 0.657913
v -0.468347 0.119158 0.649369
v -0.468347 1.230200 0.649369
v -1.197930 0.119158 0.657913
v -1.197930 1.230200 0.657913
v -1.197930 0.119158 0.649369
v -1.197930 1.230200 0.649369
v -1.043780 0.119158 0.657913
v -1.043780 1.230200 0.657913
v -1.043780 0.119158 0.649369
v -1.043780 1.230200 0.649369
v -1.043985 1.230333 0.657913
v -0.622768 1.230333 0.657913
v -1.043985 1.230333 0.649369
v -0.622768 1.230333 0.649369
v -1.043985 1.076183 0.657913
v -0.622768 1.076183 0.657913
v -1.043985 1.076183 0.649369
v -0.622768 1.076183 0.649369
v -1.043985 0.273308 0.657913
v -0.622768 0.273308 0.657913
v -1.043985 0.273308 0.649369
v -0.622768 0.273308 0.649369
v -1.043985 0.119158 0.657913
v -0.622768 0.119158 0.657913
v -1.043985 0.119158 0.649369
v -0.622768 0.119158 0.649369
vt 0.375000 0.000000
vt 0.625000 0.000000
vt 0.625000 0.250000
vt 0.375000 0.250000
vt 0.625000 0.500000
vt 0.375000 0.500000
vt 0.625000 0.750000
vt 0.375000 0.750000
vt 0.625000 1.000000
vt 0.375000 1.000000
vt 0.125000 0.500000
vt 0.125000 0.750000
vt 0.875000 0.500000
vt 0.875000 0.750000
vt 0.375000 0.000000
vt 0.625000 0.000000
vt 0.625000 0.250000
vt 0.375000 0.250000
vt 0.625000 0.500000
vt 0.375000 0.500000
vt 0.625000 0.750000
vt 0.375000 0.750000
vt 0.625000 1.000000
vt 0.375000 1.000000
vt 0.125000 0.500000
vt 0.125000 0.750000
vt 0.875000 0.500000
vt 0.875000 0.750000
vt 0.375000 0.000000
vt 0.625000 0.000000
vt 0.625000 0.250000
vt 0.375000 0.250000
vt 0.625000 0.500000
vt 0.375000 0.500000
vt 0.625000 0.750000
vt 0.375000 0.750000
vt 0.625000 1.000000
vt 0.375000 1.000000
vt 0.125000 0.500000
vt 0.125000 0.750000
vt 0.875000 0.500000
vt 0.875000 0.750000
vt 0.375000 0.000000
vt 0.625000 0.000000
vt 0.625000 0.250000
vt 0.375000 0.250000
vt 0.625000 0.500000
vt 0.375000 0.500000
vt 0.625000 0.750000
vt 0.375000 0.750000
vt 0.625000 1.000000
vt 0.375000 1.000000
vt 0.125000 0.500000
vt 0.125000 0.750000
vt 0.875000 0.500000
vt 0.875000 0.750000
vn -1.0000 0.0000 0.0000
vn 0.0000 0.0000 -1.0000
vn 1.0000 0.0000 0.0000
vn 0.0000 0.0000 1.0000
vn 0.0000 -1.0000 0.0000
vn 0.0000 1.0000 0.0000
usemtl Material.004
s off
f 81/141/13 82/142/13 84/143/13 83/144/13
f 83/144/14 84/143/14 88/145/14 87/146/14
f 87/146/15 88/145/15 86/147/15 85/148/15
f 85/148/16 86/147/16 82/149/16 81/150/16
f 83/151/17 87/146/17 85/148/17 81/152/17
f 88/145/18 84/153/18 82/154/18 86/147/18
f 89/155/13 90/156/13 92/157/13 91/158/13
f 91/158/14 92/157/14 96/159/14 95/160/14
f 95/160/15 96/159/15 94/161/15 93/162/15
f 93/162/16 94/161/16 90/163/16 89/164/16
f 91/165/17 95/160/17 93/162/17 89/166/17
f 96/159/18 92/167/18 90/168/18 94/161/18
f 97/169/18 98/170/18 100/171/18 99/172/18
f 99/172/14 100/171/14 104/173/14 103/174/14
f 103/174/17 104/173/17 102/175/17 101/176/17
f 101/176/16 102/175/16 98/177/16 97/178/16
f 99/179/13 103/174/13 101/176/13 97/180/13
f 104/173/15 100/181/15 98/182/15 102/175/15
f 105/183/18 106/184/18 108/185/18 107/186/18
f 107/186/14 108/185/14 112/187/14 111/188/14
f 111/188/17 112/187/17 110/189/17 109/190/17
f 109/190/16 110/189/16 106/191/16 105/192/16
f 107/193/13 111/188/13 109/190/13 105/194/13
f 112/187/15 108/195/15 106/196/15 110/189/15
o Cube.015_Cube.017
v -0.550990 0.857894 0.668856
v -0.535964 0.857894 0.668856
v -0.550990 0.857894 0.645186
v -0.535964 0.857894 0.645186
v -0.550990 0.532279 0.668856
v -0.535964 0.532279 0.668856
v -0.550990 0.532279 0.645186
v -0.535964 0.532279 0.645186
v -0.562095 0.858208 0.679013
v -0.549993 0.858208 0.687919
v -0.548066 0.858208 0.659949
v -0.535964 0.858208 0.668855
v -0.562095 0.531965 0.679013
v -0.549993 0.531965 0.687919
v -0.548066 0.531965 0.659949
v -0.535964 0.531965 0.668855
v -1.001688 1.428719 0.668856
v -1.001688 1.443745 0.668856
v -1.001688 1.428719 0.645187
v -1.001688 1.443745 0.645187
v -0.676073 1.428720 0.668856
v -0.676073 1.443745 0.668856
v -0.676073 1.428720 0.645187
v -0.676073 1.443745 0.645187
v -1.002002 1.417614 0.679013
v -1.002002 1.429716 0.687919
v -1.002002 1.431643 0.659949
v -1.002002 1.443745 0.668855
v -0.675758 1.417614 0.679013
v -0.675758 1.429716 0.687919
v -0.675758 1.431643 0.659949
v -0.675758 1.443745 0.668855
vt 0.375000 0.000000
vt 0.625000 0.000000
vt 0.625000 0.250000
vt 0.375000 0.250000
vt 0.625000 0.500000
vt 0.375000 0.500000
vt 0.625000 0.750000
vt 0.375000 0.750000
vt 0.625000 1.000000
vt 0.375000 1.000000
vt 0.125000 0.500000
vt 0.125000 0.750000
vt 0.875000 0.500000
vt 0.875000 0.750000
vt 0.375000 0.000000
vt 0.625000 0.000000
vt 0.625000 0.250000
vt 0.375000 0.250000
vt 0.625000 0.500000
vt 0.375000 0.500000
vt 0.625000 0.750000
vt 0.375000 0.750000
vt 0.625000 1.000000
vt 0.375000 1.000000
vt 0.125000 0.500000
vt 0.125000 0.750000
vt 0.875000 0.500000
vt 0.875000 0.750000
vt 0.375000 0.000000
vt 0.625000 0.000000
vt 0.625000 0.250000
vt 0.375000 0.250000
vt 0.625000 0.500000
vt 0.375000 0.500000
vt 0.625000 0.750000
vt 0.375000 0.750000
vt 0.625000 1.000000
vt 0.375000 1.000000
vt 0.125000 0.500000
vt 0.125000 0.750000
vt 0.875000 0.500000
vt 0.875000 0.750000
vt 0.375000 0.000000
vt 0.625000 0.000000
vt 0.625000 0.250000
vt 0.375000 0.250000
vt 0.625000 0.500000
vt 0.375000 0.500000
vt 0.625000 0.750000
vt 0.375000 0.750000
vt 0.625000 1.000000
vt 0.375000 1.000000
vt 0.125000 0.500000
vt 0.125000 0.750000
vt 0.875000 0.500000
vt 0.875000 0.750000
vn 0.0000 1.0000 0.0000
vn 0.0000 0.0000 -1.0000
vn 0.0000 -1.0000 0.0000
vn 0.0000 0.0000 1.0000
vn -1.0000 0.0000 0.0000
vn 1.0000 0.0000 0.0000
vn 0.5927 0.0000 -0.8054
vn -0.5927 0.0000 0.8054
vn -0.8054 0.0000 -0.5927
vn 0.8054 0.0000 0.5927
vn -0.0000 0.5927 -0.8054
vn 0.0000 -0.5927 0.8054
vn 0.0000 -0.8054 -0.5927
vn 0.0000 0.8054 0.5927
usemtl Material.001
s off
f 113/197/19 114/198/19 116/199/19 115/200/19
f 115/200/20 116/199/20 120/201/20 119/202/20
f 119/202/21 120/201/21 118/203/21 117/204/21
f 117/204/22 118/203/22 114/205/22 113/206/22
f 115/207/23 119/202/23 117/204/23 113/208/23
f 120/201/24 116/209/24 114/210/24 118/203/24
f 121/211/19 122/212/19 124/213/19 123/214/19
f 123/214/25 124/213/25 128/215/25 127/216/25
f 127/216/21 128/215/21 126/217/21 125/218/21
f 125/218/26 126/217/26 122/219/26 121/220/26
f 123/221/27 127/216/27 125/218/27 121/222/27
f 128/215/28 124/223/28 122/224/28 126/217/28
f 129/225/23 130/226/23 132/227/23 131/228/23
f 131/228/20 132/227/20 136/229/20 135/230/20
f 135/230/24 136/229/24 134/231/24 133/232/24
f 133/232/22 134/231/22 130/233/22 129/234/22
f 131/235/21 135/230/21 133/232/21 129/236/21
f 136/229/19 132/237/19 130/238/19 134/231/19
f 137/239/23 138/240/23 140/241/23 139/242/23
f 139/242/29 140/241/29 144/243/29 143/244/29
f 143/244/24 144/243/24 142/245/24 141/246/24
f 141/246/30 142/245/30 138/247/30 137/248/30
f 139/249/31 143/244/31 141/246/31 137/250/31
f 144/243/32 140/251/32 138/252/32 142/245/32
