# Blender v2.91.2 OBJ File: 'ЛАНЕБЕРГ.blend'
# www.blender.org
mtllib ЛАНЕБЕРГ.mtl
o Cube.006_Cube.008
v 1.254976 1.342033 0.731053
v 1.254975 1.342033 -0.731053
v 1.172705 1.342033 0.731053
v 1.172704 1.342033 -0.731053
v 1.254976 1.241996 0.731053
v 1.254975 1.241996 -0.731053
v 1.172705 1.241996 0.731053
v 1.172704 1.241996 -0.731053
v -1.258943 0.000000 0.756767
v -1.258943 1.340000 0.756767
v -1.258943 0.000000 0.668317
v -1.258943 1.340000 0.668317
v -1.167276 0.000000 0.756767
v -1.167276 1.340000 0.756767
v -1.167276 0.000000 0.668317
v -1.167276 1.340000 0.668317
v -1.258943 0.000000 -0.668317
v -1.258943 1.340000 -0.668317
v -1.258943 0.000000 -0.756767
v -1.258943 1.340000 -0.756767
v -1.167276 0.000000 -0.668317
v -1.167276 1.340000 -0.668317
v -1.167276 0.000000 -0.756767
v -1.167276 1.340000 -0.756767
v 1.167277 0.000000 0.756767
v 1.167277 1.340000 0.756767
v 1.167277 0.000000 0.668317
v 1.167277 1.340000 0.668317
v 1.258944 0.000000 0.756767
v 1.258944 1.340000 0.756767
v 1.258944 0.000000 0.668317
v 1.258944 1.340000 0.668317
v 1.167277 0.000000 -0.668317
v 1.167277 1.340000 -0.668317
v 1.167277 0.000000 -0.756767
v 1.167277 1.340000 -0.756767
v 1.258944 0.000000 -0.668317
v 1.258944 1.340000 -0.668317
v 1.258944 0.000000 -0.756767
v 1.258944 1.340000 -0.756767
v -1.899999 1.340148 0.800000
v -1.899999 1.398219 0.800000
v -1.899999 1.340148 -0.800000
v -1.899999 1.398219 -0.800000
v 1.900000 1.340148 0.800000
v 1.900000 1.398219 0.800000
v 1.900000 1.340148 -0.800000
v 1.900000 1.398219 -0.800000
v -1.213887 1.342032 -0.671676
v 1.213888 1.342033 -0.671676
v -1.213887 1.342032 -0.752462
v 1.213888 1.342033 -0.752462
v -1.213887 1.241996 -0.671676
v 1.213888 1.241996 -0.671676
v -1.213887 1.241996 -0.752462
v 1.213888 1.241996 -0.752462
v -1.213887 1.342032 0.753677
v 1.213887 1.342033 0.753677
v -1.213887 1.342032 0.671407
v 1.213887 1.342033 0.671407
v -1.213887 1.241996 0.753677
v 1.213887 1.241996 0.753677
v -1.213887 1.241996 0.671407
v 1.213887 1.241996 0.671407
v -1.172704 1.342033 0.731053
v -1.172704 1.342033 -0.731053
v -1.254975 1.342033 0.731053
v -1.254975 1.342033 -0.731053
v -1.172704 1.241996 0.731053
v -1.172704 1.241996 -0.731053
v -1.254975 1.241996 0.731053
v -1.254975 1.241996 -0.731053
vt 0.375000 0.000000
vt 0.625000 0.000000
vt 0.625000 0.250000
vt 0.375000 0.250000
vt 0.625000 0.500000
vt 0.375000 0.500000
vt 0.625000 0.750000
vt 0.375000 0.750000
vt 0.625000 1.000000
vt 0.375000 1.000000
vt 0.125000 0.500000
vt 0.125000 0.750000
vt 0.875000 0.500000
vt 0.875000 0.750000
vt 0.375000 0.000000
vt 0.625000 0.000000
vt 0.625000 0.250000
vt 0.375000 0.250000
vt 0.625000 0.500000
vt 0.375000 0.500000
vt 0.625000 0.750000
vt 0.375000 0.750000
vt 0.625000 1.000000
vt 0.375000 1.000000
vt 0.125000 0.500000
vt 0.125000 0.750000
vt 0.875000 0.500000
vt 0.875000 0.750000
vt 0.375000 0.000000
vt 0.625000 0.000000
vt 0.625000 0.250000
vt 0.375000 0.250000
vt 0.625000 0.500000
vt 0.375000 0.500000
vt 0.625000 0.750000
vt 0.375000 0.750000
vt 0.625000 1.000000
vt 0.375000 1.000000
vt 0.125000 0.500000
vt 0.125000 0.750000
vt 0.875000 0.500000
vt 0.875000 0.750000
vt 0.375000 0.000000
vt 0.625000 0.000000
vt 0.625000 0.250000
vt 0.375000 0.250000
vt 0.625000 0.500000
vt 0.375000 0.500000
vt 0.625000 0.750000
vt 0.375000 0.750000
vt 0.625000 1.000000
vt 0.375000 1.000000
vt 0.125000 0.500000
vt 0.125000 0.750000
vt 0.875000 0.500000
vt 0.875000 0.750000
vt 0.375000 0.000000
vt 0.625000 0.000000
vt 0.625000 0.250000
vt 0.375000 0.250000
vt 0.625000 0.500000
vt 0.375000 0.500000
vt 0.625000 0.750000
vt 0.375000 0.750000
vt 0.625000 1.000000
vt 0.375000 1.000000
vt 0.125000 0.500000
vt 0.125000 0.750000
vt 0.875000 0.500000
vt 0.875000 0.750000
vt 0.375000 0.000000
vt 0.625000 0.000000
vt 0.625000 0.250000
vt 0.375000 0.250000
vt 0.625000 0.500000
vt 0.375000 0.500000
vt 0.625000 0.750000
vt 0.375000 0.750000
vt 0.625000 1.000000
vt 0.375000 1.000000
vt 0.125000 0.500000
vt 0.125000 0.750000
vt 0.875000 0.500000
vt 0.875000 0.750000
vt 0.375000 0.000000
vt 0.625000 0.000000
vt 0.625000 0.250000
vt 0.375000 0.250000
vt 0.625000 0.500000
vt 0.375000 0.500000
vt 0.625000 0.750000
vt 0.375000 0.750000
vt 0.625000 1.000000
vt 0.375000 1.000000
vt 0.125000 0.500000
vt 0.125000 0.750000
vt 0.875000 0.500000
vt 0.875000 0.750000
vt 0.375000 0.000000
vt 0.625000 0.000000
vt 0.625000 0.250000
vt 0.375000 0.250000
vt 0.625000 0.500000
vt 0.375000 0.500000
vt 0.625000 0.750000
vt 0.375000 0.750000
vt 0.625000 1.000000
vt 0.375000 1.000000
vt 0.125000 0.500000
vt 0.125000 0.750000
vt 0.875000 0.500000
vt 0.875000 0.750000
vt 0.375000 0.000000
vt 0.625000 0.000000
vt 0.625000 0.250000
vt 0.375000 0.250000
vt 0.625000 0.500000
vt 0.375000 0.500000
vt 0.625000 0.750000
vt 0.375000 0.750000
vt 0.625000 1.000000
vt 0.375000 1.000000
vt 0.125000 0.500000
vt 0.125000 0.750000
vt 0.875000 0.500000
vt 0.875000 0.750000
vn 0.0000 1.0000 -0.0000
vn -1.0000 0.0000 0.0000
vn 0.0000 -1.0000 0.0000
vn 1.0000 0.0000 -0.0000
vn 0.0000 0.0000 1.0000
vn 0.0000 0.0000 -1.0000
usemtl Material.001
s off
f 1/1/1 2/2/1 4/3/1 3/4/1
f 3/4/2 4/3/2 8/5/2 7/6/2
f 7/6/3 8/5/3 6/7/3 5/8/3
f 5/8/4 6/7/4 2/9/4 1/10/4
f 3/11/5 7/6/5 5/8/5 1/12/5
f 8/5/6 4/13/6 2/14/6 6/7/6
f 9/15/2 10/16/2 12/17/2 11/18/2
f 11/18/6 12/17/6 16/19/6 15/20/6
f 15/20/4 16/19/4 14/21/4 13/22/4
f 13/22/5 14/21/5 10/23/5 9/24/5
f 11/25/3 15/20/3 13/22/3 9/26/3
f 16/19/1 12/27/1 10/28/1 14/21/1
f 17/29/2 18/30/2 20/31/2 19/32/2
f 19/32/6 20/31/6 24/33/6 23/34/6
f 23/34/4 24/33/4 22/35/4 21/36/4
f 21/36/5 22/35/5 18/37/5 17/38/5
f 19/39/3 23/34/3 21/36/3 17/40/3
f 24/33/1 20/41/1 18/42/1 22/35/1
f 25/43/2 26/44/2 28/45/2 27/46/2
f 27/46/6 28/45/6 32/47/6 31/48/6
f 31/48/4 32/47/4 30/49/4 29/50/4
f 29/50/5 30/49/5 26/51/5 25/52/5
f 27/53/3 31/48/3 29/50/3 25/54/3
f 32/47/1 28/55/1 26/56/1 30/49/1
f 33/57/2 34/58/2 36/59/2 35/60/2
f 35/60/6 36/59/6 40/61/6 39/62/6
f 39/62/4 40/61/4 38/63/4 37/64/4
f 37/64/5 38/63/5 34/65/5 33/66/5
f 35/67/3 39/62/3 37/64/3 33/68/3
f 40/61/1 36/69/1 34/70/1 38/63/1
f 41/71/2 42/72/2 44/73/2 43/74/2
f 43/74/6 44/73/6 48/75/6 47/76/6
f 47/76/4 48/75/4 46/77/4 45/78/4
f 45/78/5 46/77/5 42/79/5 41/80/5
f 43/81/3 47/76/3 45/78/3 41/82/3
f 48/75/1 44/83/1 42/84/1 46/77/1
f 49/85/1 50/86/1 52/87/1 51/88/1
f 51/88/6 52/87/6 56/89/6 55/90/6
f 55/90/3 56/89/3 54/91/3 53/92/3
f 53/92/5 54/91/5 50/93/5 49/94/5
f 51/95/2 55/90/2 53/92/2 49/96/2
f 56/89/4 52/97/4 50/98/4 54/91/4
f 57/99/1 58/100/1 60/101/1 59/102/1
f 59/102/6 60/101/6 64/103/6 63/104/6
f 63/104/3 64/103/3 62/105/3 61/106/3
f 61/106/5 62/105/5 58/107/5 57/108/5
f 59/109/2 63/104/2 61/106/2 57/110/2
f 64/103/4 60/111/4 58/112/4 62/105/4
f 65/113/1 66/114/1 68/115/1 67/116/1
f 67/116/2 68/115/2 72/117/2 71/118/2
f 71/118/3 72/117/3 70/119/3 69/120/3
f 69/120/4 70/119/4 66/121/4 65/122/4
f 67/123/5 71/118/5 69/120/5 65/124/5
f 72/117/6 68/125/6 66/126/6 70/119/6
