# Blender v2.91.2 OBJ File: 'STEFAN.blend'
# www.blender.org
mtllib STEFAN.mtl
o Cube.005_Cube.006
v -0.410160 0.738527 0.490000
v -0.410160 0.773621 0.490000
v -0.410160 0.738527 -0.490000
v -0.410160 0.773621 -0.490000
v 0.410160 0.738527 0.490000
v 0.410160 0.773621 0.490000
v 0.410160 0.738527 -0.490000
v 0.410160 0.773621 -0.490000
v -0.406814 -0.000920 -0.419953
v -0.406814 0.737736 -0.419953
v -0.406814 -0.000920 -0.485675
v -0.406814 0.737736 -0.485675
v -0.341092 -0.000920 -0.419953
v -0.341092 0.737736 -0.419953
v -0.341092 -0.000920 -0.485675
v -0.341092 0.737736 -0.485675
v 0.341092 -0.000920 -0.419953
v 0.341092 0.737736 -0.419953
v 0.341092 -0.000920 -0.485675
v 0.341092 0.737736 -0.485675
v 0.406814 -0.000920 -0.419953
v 0.406814 0.737736 -0.419953
v 0.406814 -0.000920 -0.485675
v 0.406814 0.737736 -0.485675
v 0.341092 -0.000920 0.485675
v 0.341092 0.737736 0.485675
v 0.341092 -0.000920 0.419953
v 0.341092 0.737736 0.419953
v 0.406814 -0.000920 0.485675
v 0.406814 0.737736 0.485675
v 0.406814 -0.000920 0.419953
v 0.406814 0.737736 0.419953
v -0.406814 -0.000920 0.485675
v -0.406814 0.737736 0.485675
v -0.406814 -0.000920 0.419953
v -0.406814 0.737736 0.419953
v -0.341092 -0.000920 0.485675
v -0.341092 0.737736 0.485675
v -0.341092 -0.000920 0.419953
v -0.341092 0.737736 0.419953
v -0.340675 0.670487 0.485675
v -0.340675 0.737637 0.485675
v -0.340675 0.670487 0.419953
v -0.340675 0.737637 0.419953
v 0.340675 0.670487 0.485675
v 0.340675 0.737637 0.485675
v 0.340675 0.670487 0.419953
v 0.340675 0.737637 0.419953
v -0.340675 0.670487 -0.419953
v -0.340675 0.737636 -0.419953
v -0.340675 0.670487 -0.485675
v -0.340675 0.737636 -0.485675
v 0.340675 0.670487 -0.419953
v 0.340675 0.737636 -0.419953
v 0.340675 0.670487 -0.485675
v 0.340675 0.737636 -0.485675
v 0.341092 0.670487 0.419041
v 0.341092 0.737637 0.419041
v 0.341092 0.670487 -0.419041
v 0.341092 0.737637 -0.419041
v 0.406814 0.670487 0.419041
v 0.406814 0.737637 0.419041
v 0.406814 0.670487 -0.419041
v 0.406814 0.737637 -0.419041
v -0.406814 0.670487 0.419041
v -0.406814 0.737637 0.419041
v -0.406814 0.670487 -0.419041
v -0.406814 0.737637 -0.419041
v -0.341092 0.670487 0.419041
v -0.341092 0.737637 0.419041
v -0.341092 0.670487 -0.419041
v -0.341092 0.737637 -0.419041
v 0.341092 0.760909 -0.431628
v 0.341092 1.795003 -0.511819
v 0.341092 0.757011 -0.481898
v 0.341092 1.791105 -0.562089
v 0.406814 0.760909 -0.431628
v 0.406814 1.795003 -0.511819
v 0.406814 0.757011 -0.481898
v 0.406814 1.791105 -0.562089
v -0.406814 0.760909 -0.431628
v -0.406814 1.795003 -0.511819
v -0.406814 0.757011 -0.481898
v -0.406814 1.791105 -0.562089
v -0.341092 0.760909 -0.431628
v -0.341092 1.795003 -0.511819
v -0.341092 0.757011 -0.481898
v -0.341092 1.791105 -0.562089
v -0.398414 1.096731 -0.461900
v 0.398414 1.096731 -0.461900
v -0.398414 1.093762 -0.503804
v 0.398414 1.093762 -0.503804
v -0.398414 1.031174 -0.457255
v 0.398414 1.031174 -0.457255
v -0.398414 1.028205 -0.499159
v 0.398414 1.028205 -0.499159
v -0.398414 1.792838 -0.515556
v 0.398414 1.792838 -0.515556
v -0.398414 1.789857 -0.557623
v 0.398414 1.789857 -0.557623
v -0.398414 1.687996 -0.508127
v 0.398414 1.687996 -0.508127
v -0.398414 1.685016 -0.550195
v 0.398414 1.685016 -0.550195
v -0.025500 1.047163 -0.460805
v -0.025500 1.775805 -0.517309
v -0.025500 1.044357 -0.496996
v -0.025500 1.772998 -0.553500
v 0.025500 1.047163 -0.460805
v 0.025500 1.775805 -0.517309
v 0.025500 1.044357 -0.496996
v 0.025500 1.772998 -0.553500
v -0.121956 1.047163 -0.460805
v -0.121956 1.775805 -0.517309
v -0.121956 1.044357 -0.496996
v -0.121956 1.772998 -0.553500
v -0.070956 1.047163 -0.460805
v -0.070956 1.775805 -0.517309
v -0.070956 1.044357 -0.496996
v -0.070956 1.772998 -0.553500
v 0.070956 1.047163 -0.460805
v 0.070956 1.775805 -0.517309
v 0.070956 1.044357 -0.496996
v 0.070956 1.772998 -0.553500
v 0.121956 1.047163 -0.460805
v 0.121956 1.775805 -0.517309
v 0.121956 1.044357 -0.496996
v 0.121956 1.772998 -0.553500
vt 0.375000 0.000000
vt 0.625000 0.000000
vt 0.625000 0.250000
vt 0.375000 0.250000
vt 0.625000 0.500000
vt 0.375000 0.500000
vt 0.625000 0.750000
vt 0.375000 0.750000
vt 0.625000 1.000000
vt 0.375000 1.000000
vt 0.125000 0.500000
vt 0.125000 0.750000
vt 0.875000 0.500000
vt 0.875000 0.750000
vt 0.375000 0.000000
vt 0.625000 0.000000
vt 0.625000 0.250000
vt 0.375000 0.250000
vt 0.625000 0.500000
vt 0.375000 0.500000
vt 0.625000 0.750000
vt 0.375000 0.750000
vt 0.625000 1.000000
vt 0.375000 1.000000
vt 0.125000 0.500000
vt 0.125000 0.750000
vt 0.875000 0.500000
vt 0.875000 0.750000
vt 0.375000 0.000000
vt 0.625000 0.000000
vt 0.625000 0.250000
vt 0.375000 0.250000
vt 0.625000 0.500000
vt 0.375000 0.500000
vt 0.625000 0.750000
vt 0.375000 0.750000
vt 0.625000 1.000000
vt 0.375000 1.000000
vt 0.125000 0.500000
vt 0.125000 0.750000
vt 0.875000 0.500000
vt 0.875000 0.750000
vt 0.375000 0.000000
vt 0.625000 0.000000
vt 0.625000 0.250000
vt 0.375000 0.250000
vt 0.625000 0.500000
vt 0.375000 0.500000
vt 0.625000 0.750000
vt 0.375000 0.750000
vt 0.625000 1.000000
vt 0.375000 1.000000
vt 0.125000 0.500000
vt 0.125000 0.750000
vt 0.875000 0.500000
vt 0.875000 0.750000
vt 0.375000 0.000000
vt 0.625000 0.000000
vt 0.625000 0.250000
vt 0.375000 0.250000
vt 0.625000 0.500000
vt 0.375000 0.500000
vt 0.625000 0.750000
vt 0.375000 0.750000
vt 0.625000 1.000000
vt 0.375000 1.000000
vt 0.125000 0.500000
vt 0.125000 0.750000
vt 0.875000 0.500000
vt 0.875000 0.750000
vt 0.375000 0.000000
vt 0.625000 0.000000
vt 0.625000 0.250000
vt 0.375000 0.250000
vt 0.625000 0.500000
vt 0.375000 0.500000
vt 0.625000 0.750000
vt 0.375000 0.750000
vt 0.625000 1.000000
vt 0.375000 1.000000
vt 0.125000 0.500000
vt 0.125000 0.750000
vt 0.875000 0.500000
vt 0.875000 0.750000
vt 0.375000 0.000000
vt 0.625000 0.000000
vt 0.625000 0.250000
vt 0.375000 0.250000
vt 0.625000 0.500000
vt 0.375000 0.500000
vt 0.625000 0.750000
vt 0.375000 0.750000
vt 0.625000 1.000000
vt 0.375000 1.000000
vt 0.125000 0.500000
vt 0.125000 0.750000
vt 0.875000 0.500000
vt 0.875000 0.750000
vt 0.375000 0.000000
vt 0.625000 0.000000
vt 0.625000 0.250000
vt 0.375000 0.250000
vt 0.625000 0.500000
vt 0.375000 0.500000
vt 0.625000 0.750000
vt 0.375000 0.750000
vt 0.625000 1.000000
vt 0.375000 1.000000
vt 0.125000 0.500000
vt 0.125000 0.750000
vt 0.875000 0.500000
vt 0.875000 0.750000
vt 0.375000 0.000000
vt 0.625000 0.000000
vt 0.625000 0.250000
vt 0.375000 0.250000
vt 0.625000 0.500000
vt 0.375000 0.500000
vt 0.625000 0.750000
vt 0.375000 0.750000
vt 0.625000 1.000000
vt 0.375000 1.000000
vt 0.125000 0.500000
vt 0.125000 0.750000
vt 0.875000 0.500000
vt 0.875000 0.750000
vt 0.375000 0.000000
vt 0.625000 0.000000
vt 0.625000 0.250000
vt 0.375000 0.250000
vt 0.625000 0.500000
vt 0.375000 0.500000
vt 0.625000 0.750000
vt 0.375000 0.750000
vt 0.625000 1.000000
vt 0.375000 1.000000
vt 0.125000 0.500000
vt 0.125000 0.750000
vt 0.875000 0.500000
vt 0.875000 0.750000
vt 0.375000 0.000000
vt 0.625000 0.000000
vt 0.625000 0.250000
vt 0.375000 0.250000
vt 0.625000 0.500000
vt 0.375000 0.500000
vt 0.625000 0.750000
vt 0.375000 0.750000
vt 0.625000 1.000000
vt 0.375000 1.000000
vt 0.125000 0.500000
vt 0.125000 0.750000
vt 0.875000 0.500000
vt 0.875000 0.750000
vt 0.375000 0.000000
vt 0.625000 0.000000
vt 0.625000 0.250000
vt 0.375000 0.250000
vt 0.625000 0.500000
vt 0.375000 0.500000
vt 0.625000 0.750000
vt 0.375000 0.750000
vt 0.625000 1.000000
vt 0.375000 1.000000
vt 0.125000 0.500000
vt 0.125000 0.750000
vt 0.875000 0.500000
vt 0.875000 0.750000
vt 0.375000 0.000000
vt 0.625000 0.000000
vt 0.625000 0.250000
vt 0.375000 0.250000
vt 0.625000 0.500000
vt 0.375000 0.500000
vt 0.625000 0.750000
vt 0.375000 0.750000
vt 0.625000 1.000000
vt 0.375000 1.000000
vt 0.125000 0.500000
vt 0.125000 0.750000
vt 0.875000 0.500000
vt 0.875000 0.750000
vt 0.375000 0.000000
vt 0.625000 0.000000
vt 0.625000 0.250000
vt 0.375000 0.250000
vt 0.625000 0.500000
vt 0.375000 0.500000
vt 0.625000 0.750000
vt 0.375000 0.750000
vt 0.625000 1.000000
vt 0.375000 1.000000
vt 0.125000 0.500000
vt 0.125000 0.750000
vt 0.875000 0.500000
vt 0.875000 0.750000
vt 0.375000 0.000000
vt 0.625000 0.000000
vt 0.625000 0.250000
vt 0.375000 0.250000
vt 0.625000 0.500000
vt 0.375000 0.500000
vt 0.625000 0.750000
vt 0.375000 0.750000
vt 0.625000 1.000000
vt 0.375000 1.000000
vt 0.125000 0.500000
vt 0.125000 0.750000
vt 0.875000 0.500000
vt 0.875000 0.750000
vt 0.375000 0.000000
vt 0.625000 0.000000
vt 0.625000 0.250000
vt 0.375000 0.250000
vt 0.625000 0.500000
vt 0.375000 0.500000
vt 0.625000 0.750000
vt 0.375000 0.750000
vt 0.625000 1.000000
vt 0.375000 1.000000
vt 0.125000 0.500000
vt 0.125000 0.750000
vt 0.875000 0.500000
vt 0.875000 0.750000
vn -1.0000 0.0000 0.0000
vn 0.0000 0.0000 -1.0000
vn 1.0000 0.0000 0.0000
vn 0.0000 0.0000 1.0000
vn 0.0000 -1.0000 0.0000
vn 0.0000 1.0000 0.0000
vn 0.0000 -0.0773 -0.9970
vn 0.0000 0.0773 0.9970
vn 0.0000 -0.9970 0.0773
vn 0.0000 0.9970 -0.0773
vn -0.0000 0.9975 -0.0707
vn -0.0000 -0.0707 -0.9975
vn 0.0000 -0.9975 0.0707
vn 0.0000 0.0707 0.9975
usemtl Material.001
s off
f 1/1/1 2/2/1 4/3/1 3/4/1
f 3/4/2 4/3/2 8/5/2 7/6/2
f 7/6/3 8/5/3 6/7/3 5/8/3
f 5/8/4 6/7/4 2/9/4 1/10/4
f 3/11/5 7/6/5 5/8/5 1/12/5
f 8/5/6 4/13/6 2/14/6 6/7/6
f 9/15/1 10/16/1 12/17/1 11/18/1
f 11/18/2 12/17/2 16/19/2 15/20/2
f 15/20/3 16/19/3 14/21/3 13/22/3
f 13/22/4 14/21/4 10/23/4 9/24/4
f 11/25/5 15/20/5 13/22/5 9/26/5
f 16/19/6 12/27/6 10/28/6 14/21/6
f 17/29/1 18/30/1 20/31/1 19/32/1
f 19/32/2 20/31/2 24/33/2 23/34/2
f 23/34/3 24/33/3 22/35/3 21/36/3
f 21/36/4 22/35/4 18/37/4 17/38/4
f 19/39/5 23/34/5 21/36/5 17/40/5
f 24/33/6 20/41/6 18/42/6 22/35/6
f 25/43/1 26/44/1 28/45/1 27/46/1
f 27/46/2 28/45/2 32/47/2 31/48/2
f 31/48/3 32/47/3 30/49/3 29/50/3
f 29/50/4 30/49/4 26/51/4 25/52/4
f 27/53/5 31/48/5 29/50/5 25/54/5
f 32/47/6 28/55/6 26/56/6 30/49/6
f 33/57/1 34/58/1 36/59/1 35/60/1
f 35/60/2 36/59/2 40/61/2 39/62/2
f 39/62/3 40/61/3 38/63/3 37/64/3
f 37/64/4 38/63/4 34/65/4 33/66/4
f 35/67/5 39/62/5 37/64/5 33/68/5
f 40/61/6 36/69/6 34/70/6 38/63/6
f 41/71/1 42/72/1 44/73/1 43/74/1
f 43/74/2 44/73/2 48/75/2 47/76/2
f 47/76/3 48/75/3 46/77/3 45/78/3
f 45/78/4 46/77/4 42/79/4 41/80/4
f 43/81/5 47/76/5 45/78/5 41/82/5
f 48/75/6 44/83/6 42/84/6 46/77/6
f 49/85/1 50/86/1 52/87/1 51/88/1
f 51/88/2 52/87/2 56/89/2 55/90/2
f 55/90/3 56/89/3 54/91/3 53/92/3
f 53/92/4 54/91/4 50/93/4 49/94/4
f 51/95/5 55/90/5 53/92/5 49/96/5
f 56/89/6 52/97/6 50/98/6 54/91/6
f 57/99/1 58/100/1 60/101/1 59/102/1
f 59/102/2 60/101/2 64/103/2 63/104/2
f 63/104/3 64/103/3 62/105/3 61/106/3
f 61/106/4 62/105/4 58/107/4 57/108/4
f 59/109/5 63/104/5 61/106/5 57/110/5
f 64/103/6 60/111/6 58/112/6 62/105/6
f 65/113/1 66/114/1 68/115/1 67/116/1
f 67/116/2 68/115/2 72/117/2 71/118/2
f 71/118/3 72/117/3 70/119/3 69/120/3
f 69/120/4 70/119/4 66/121/4 65/122/4
f 67/123/5 71/118/5 69/120/5 65/124/5
f 72/117/6 68/125/6 66/126/6 70/119/6
f 73/127/1 74/128/1 76/129/1 75/130/1
f 75/130/7 76/129/7 80/131/7 79/132/7
f 79/132/3 80/131/3 78/133/3 77/134/3
f 77/134/8 78/133/8 74/135/8 73/136/8
f 75/137/9 79/132/9 77/134/9 73/138/9
f 80/131/10 76/139/10 74/140/10 78/133/10
f 81/141/1 82/142/1 84/143/1 83/144/1
f 83/144/7 84/143/7 88/145/7 87/146/7
f 87/146/3 88/145/3 86/147/3 85/148/3
f 85/148/8 86/147/8 82/149/8 81/150/8
f 83/151/9 87/146/9 85/148/9 81/152/9
f 88/145/10 84/153/10 82/154/10 86/147/10
f 89/155/11 90/156/11 92/157/11 91/158/11
f 91/158/12 92/157/12 96/159/12 95/160/12
f 95/160/13 96/159/13 94/161/13 93/162/13
f 93/162/14 94/161/14 90/163/14 89/164/14
f 91/165/1 95/160/1 93/162/1 89/166/1
f 96/159/3 92/167/3 90/168/3 94/161/3
f 97/169/11 98/170/11 100/171/11 99/172/11
f 99/172/12 100/171/12 104/173/12 103/174/12
f 103/174/13 104/173/13 102/175/13 101/176/13
f 101/176/14 102/175/14 98/177/14 97/178/14
f 99/179/1 103/174/1 101/176/1 97/180/1
f 104/173/3 100/181/3 98/182/3 102/175/3
f 105/183/1 106/184/1 108/185/1 107/186/1
f 107/186/7 108/185/7 112/187/7 111/188/7
f 111/188/3 112/187/3 110/189/3 109/190/3
f 109/190/8 110/189/8 106/191/8 105/192/8
f 107/193/9 111/188/9 109/190/9 105/194/9
f 112/187/10 108/195/10 106/196/10 110/189/10
f 113/197/1 114/198/1 116/199/1 115/200/1
f 115/200/7 116/199/7 120/201/7 119/202/7
f 119/202/3 120/201/3 118/203/3 117/204/3
f 117/204/8 118/203/8 114/205/8 113/206/8
f 115/207/9 119/202/9 117/204/9 113/208/9
f 120/201/10 116/209/10 114/210/10 118/203/10
f 121/211/1 122/212/1 124/213/1 123/214/1
f 123/214/7 124/213/7 128/215/7 127/216/7
f 127/216/3 128/215/3 126/217/3 125/218/3
f 125/218/8 126/217/8 122/219/8 121/220/8
f 123/221/9 127/216/9 125/218/9 121/222/9
f 128/215/10 124/223/10 122/224/10 126/217/10
