# Blender v2.91.2 OBJ File: 'Детройт.blend'
# www.blender.org
mtllib Детройт.mtl
o Cube.002_Cube.003
v -1.127550 1.537704 0.600240
v 1.127550 1.537704 0.600240
v -1.127550 1.537704 -0.600240
v 1.127550 1.537704 -0.600240
v -1.127550 1.500050 0.600240
v 1.127550 1.500050 0.600240
v -1.127550 1.500050 -0.600240
v 1.127550 1.500050 -0.600240
v -1.127594 -0.000000 0.600240
v -1.127594 1.500000 0.600240
v -1.127594 -0.000000 -0.600240
v -1.127594 1.500000 -0.600240
v -1.089941 -0.000000 0.600240
v -1.089941 1.500000 0.600240
v -1.089941 -0.000000 -0.600240
v -1.089941 1.500000 -0.600240
v 0.577560 -0.000000 0.600240
v 0.577560 1.500000 0.600240
v 0.577560 -0.000000 -0.600240
v 0.577560 1.500000 -0.600240
v 0.615213 -0.000000 0.600240
v 0.615213 1.500000 0.600240
v 0.615213 -0.000000 -0.600240
v 0.615213 1.500000 -0.600240
v 0.576073 1.140743 -0.561794
v 0.576073 1.498606 -0.561794
v -1.090361 1.140743 -0.561794
v -1.090361 1.498606 -0.561794
v 0.576073 1.140743 -0.599447
v 0.576073 1.498606 -0.599447
v -1.090361 1.140743 -0.599447
v -1.090361 1.498606 -0.599447
vt 0.375000 0.000000
vt 0.625000 0.000000
vt 0.625000 0.250000
vt 0.375000 0.250000
vt 0.625000 0.500000
vt 0.375000 0.500000
vt 0.625000 0.750000
vt 0.375000 0.750000
vt 0.625000 1.000000
vt 0.375000 1.000000
vt 0.125000 0.500000
vt 0.125000 0.750000
vt 0.875000 0.500000
vt 0.875000 0.750000
vt 0.375000 0.000000
vt 0.625000 0.000000
vt 0.625000 0.250000
vt 0.375000 0.250000
vt 0.625000 0.500000
vt 0.375000 0.500000
vt 0.625000 0.750000
vt 0.375000 0.750000
vt 0.625000 1.000000
vt 0.375000 1.000000
vt 0.125000 0.500000
vt 0.125000 0.750000
vt 0.875000 0.500000
vt 0.875000 0.750000
vt 0.375000 0.000000
vt 0.625000 0.000000
vt 0.625000 0.250000
vt 0.375000 0.250000
vt 0.625000 0.500000
vt 0.375000 0.500000
vt 0.625000 0.750000
vt 0.375000 0.750000
vt 0.625000 1.000000
vt 0.375000 1.000000
vt 0.125000 0.500000
vt 0.125000 0.750000
vt 0.875000 0.500000
vt 0.875000 0.750000
vt 0.375000 0.000000
vt 0.625000 0.000000
vt 0.625000 0.250000
vt 0.375000 0.250000
vt 0.625000 0.500000
vt 0.375000 0.500000
vt 0.625000 0.750000
vt 0.375000 0.750000
vt 0.625000 1.000000
vt 0.375000 1.000000
vt 0.125000 0.500000
vt 0.125000 0.750000
vt 0.875000 0.500000
vt 0.875000 0.750000
vn -0.0000 1.0000 0.0000
vn 0.0000 0.0000 -1.0000
vn 0.0000 -1.0000 0.0000
vn -0.0000 0.0000 1.0000
vn -1.0000 0.0000 0.0000
vn 1.0000 0.0000 0.0000
usemtl Material.001
s off
f 1/1/1 2/2/1 4/3/1 3/4/1
f 3/4/2 4/3/2 8/5/2 7/6/2
f 7/6/3 8/5/3 6/7/3 5/8/3
f 5/8/4 6/7/4 2/9/4 1/10/4
f 3/11/5 7/6/5 5/8/5 1/12/5
f 8/5/6 4/13/6 2/14/6 6/7/6
f 9/15/5 10/16/5 12/17/5 11/18/5
f 11/18/2 12/17/2 16/19/2 15/20/2
f 15/20/6 16/19/6 14/21/6 13/22/6
f 13/22/4 14/21/4 10/23/4 9/24/4
f 11/25/3 15/20/3 13/22/3 9/26/3
f 16/19/1 12/27/1 10/28/1 14/21/1
f 17/29/5 18/30/5 20/31/5 19/32/5
f 19/32/2 20/31/2 24/33/2 23/34/2
f 23/34/6 24/33/6 22/35/6 21/36/6
f 21/36/4 22/35/4 18/37/4 17/38/4
f 19/39/3 23/34/3 21/36/3 17/40/3
f 24/33/1 20/41/1 18/42/1 22/35/1
f 25/43/4 26/44/4 28/45/4 27/46/4
f 27/46/5 28/45/5 32/47/5 31/48/5
f 31/48/2 32/47/2 30/49/2 29/50/2
f 29/50/6 30/49/6 26/51/6 25/52/6
f 27/53/3 31/48/3 29/50/3 25/54/3
f 32/47/1 28/55/1 26/56/1 30/49/1
o Cube.011_Cube.012
v 0.615428 -0.004377 -0.600392
v 1.128021 -0.004377 -0.600392
v 0.615428 -0.004377 0.600392
v 1.128021 -0.004377 0.600392
v 0.615428 0.025082 -0.600392
v 1.128021 0.025082 -0.600392
v 0.615428 0.025082 0.600392
v 1.128021 0.025082 0.600392
v 0.615428 1.247847 -0.600392
v 1.128021 1.247847 -0.600392
v 0.615428 1.247847 0.600392
v 1.128021 1.247847 0.600392
v 0.615428 1.277306 -0.600392
v 1.128021 1.277306 -0.600392
v 0.615428 1.277306 0.600392
v 1.128021 1.277306 0.600392
v 0.615428 0.934879 -0.600392
v 1.128021 0.934879 -0.600392
v 0.615428 0.934879 0.600392
v 1.128021 0.934879 0.600392
v 0.615428 0.964339 -0.600392
v 1.128021 0.964338 -0.600392
v 0.615428 0.964339 0.600392
v 1.128021 0.964338 0.600392
v 0.615428 0.623631 -0.600392
v 1.128021 0.623631 -0.600392
v 0.615428 0.623631 0.600392
v 1.128021 0.623631 0.600392
v 0.615428 0.653090 -0.600392
v 1.128021 0.653090 -0.600392
v 0.615428 0.653090 0.600392
v 1.128021 0.653090 0.600392
v 0.615428 0.308944 -0.600392
v 1.128021 0.308944 -0.600392
v 0.615428 0.308944 0.600392
v 1.128021 0.308944 0.600392
v 0.615428 0.338403 -0.600392
v 1.128021 0.338403 -0.600392
v 0.615428 0.338403 0.600392
v 1.128021 0.338403 0.600392
v 0.615428 1.248302 -0.600626
v 1.128021 1.248302 -0.600626
v 0.615428 0.964788 -0.600626
v 1.128021 0.964789 -0.600626
v 0.615428 1.248302 -0.562237
v 1.128021 1.248302 -0.562237
v 0.615428 0.964788 -0.562237
v 1.128021 0.964789 -0.562237
v 0.615428 0.934435 0.561780
v 1.128021 0.934435 0.561780
v 0.615428 0.653665 0.561780
v 1.128021 0.653665 0.561780
v 0.615428 0.934435 0.600169
v 1.128021 0.934435 0.600169
v 0.615428 0.653665 0.600169
v 1.128021 0.653665 0.600168
v 0.615428 0.623607 -0.600626
v 1.128021 0.623607 -0.600626
v 0.615428 0.338258 -0.600626
v 1.128021 0.338258 -0.600626
v 0.615428 0.623607 -0.562237
v 1.128021 0.623607 -0.562237
v 0.615428 0.338258 -0.562237
v 1.128021 0.338258 -0.562237
v 0.615428 0.308739 0.562118
v 1.128021 0.308739 0.562118
v 0.615428 0.024986 0.562118
v 1.128021 0.024986 0.562118
v 0.615428 0.308739 0.600507
v 1.128021 0.308739 0.600507
v 0.615428 0.024986 0.600507
v 1.128021 0.024986 0.600507
vt 0.375000 0.000000
vt 0.625000 0.000000
vt 0.625000 0.250000
vt 0.375000 0.250000
vt 0.625000 0.500000
vt 0.375000 0.500000
vt 0.625000 0.750000
vt 0.375000 0.750000
vt 0.625000 1.000000
vt 0.375000 1.000000
vt 0.125000 0.500000
vt 0.125000 0.750000
vt 0.875000 0.500000
vt 0.875000 0.750000
vt 0.375000 0.000000
vt 0.625000 0.000000
vt 0.625000 0.250000
vt 0.375000 0.250000
vt 0.625000 0.500000
vt 0.375000 0.500000
vt 0.625000 0.750000
vt 0.375000 0.750000
vt 0.625000 1.000000
vt 0.375000 1.000000
vt 0.125000 0.500000
vt 0.125000 0.750000
vt 0.875000 0.500000
vt 0.875000 0.750000
vt 0.375000 0.000000
vt 0.625000 0.000000
vt 0.625000 0.250000
vt 0.375000 0.250000
vt 0.625000 0.500000
vt 0.375000 0.500000
vt 0.625000 0.750000
vt 0.375000 0.750000
vt 0.625000 1.000000
vt 0.375000 1.000000
vt 0.125000 0.500000
vt 0.125000 0.750000
vt 0.875000 0.500000
vt 0.875000 0.750000
vt 0.375000 0.000000
vt 0.625000 0.000000
vt 0.625000 0.250000
vt 0.375000 0.250000
vt 0.625000 0.500000
vt 0.375000 0.500000
vt 0.625000 0.750000
vt 0.375000 0.750000
vt 0.625000 1.000000
vt 0.375000 1.000000
vt 0.125000 0.500000
vt 0.125000 0.750000
vt 0.875000 0.500000
vt 0.875000 0.750000
vt 0.375000 0.000000
vt 0.625000 0.000000
vt 0.625000 0.250000
vt 0.375000 0.250000
vt 0.625000 0.500000
vt 0.375000 0.500000
vt 0.625000 0.750000
vt 0.375000 0.750000
vt 0.625000 1.000000
vt 0.375000 1.000000
vt 0.125000 0.500000
vt 0.125000 0.750000
vt 0.875000 0.500000
vt 0.875000 0.750000
vt 0.375000 0.000000
vt 0.625000 0.000000
vt 0.625000 0.250000
vt 0.375000 0.250000
vt 0.625000 0.500000
vt 0.375000 0.500000
vt 0.625000 0.750000
vt 0.375000 0.750000
vt 0.625000 1.000000
vt 0.375000 1.000000
vt 0.125000 0.500000
vt 0.125000 0.750000
vt 0.875000 0.500000
vt 0.875000 0.750000
vt 0.375000 0.000000
vt 0.625000 0.000000
vt 0.625000 0.250000
vt 0.375000 0.250000
vt 0.625000 0.500000
vt 0.375000 0.500000
vt 0.625000 0.750000
vt 0.375000 0.750000
vt 0.625000 1.000000
vt 0.375000 1.000000
vt 0.125000 0.500000
vt 0.125000 0.750000
vt 0.875000 0.500000
vt 0.875000 0.750000
vt 0.375000 0.000000
vt 0.625000 0.000000
vt 0.625000 0.250000
vt 0.375000 0.250000
vt 0.625000 0.500000
vt 0.375000 0.500000
vt 0.625000 0.750000
vt 0.375000 0.750000
vt 0.625000 1.000000
vt 0.375000 1.000000
vt 0.125000 0.500000
vt 0.125000 0.750000
vt 0.875000 0.500000
vt 0.875000 0.750000
vt 0.375000 0.000000
vt 0.625000 0.000000
vt 0.625000 0.250000
vt 0.375000 0.250000
vt 0.625000 0.500000
vt 0.375000 0.500000
vt 0.625000 0.750000
vt 0.375000 0.750000
vt 0.625000 1.000000
vt 0.375000 1.000000
vt 0.125000 0.500000
vt 0.125000 0.750000
vt 0.875000 0.500000
vt 0.875000 0.750000
vn -0.0000 -1.0000 0.0000
vn 0.0000 0.0000 1.0000
vn 0.0000 1.0000 0.0000
vn -0.0000 0.0000 -1.0000
vn -1.0000 0.0000 -0.0000
vn 1.0000 0.0000 0.0000
usemtl Material.002
s off
f 33/57/7 34/58/7 36/59/7 35/60/7
f 35/60/8 36/59/8 40/61/8 39/62/8
f 39/62/9 40/61/9 38/63/9 37/64/9
f 37/64/10 38/63/10 34/65/10 33/66/10
f 35/67/11 39/62/11 37/64/11 33/68/11
f 40/61/12 36/69/12 34/70/12 38/63/12
f 41/71/7 42/72/7 44/73/7 43/74/7
f 43/74/8 44/73/8 48/75/8 47/76/8
f 47/76/9 48/75/9 46/77/9 45/78/9
f 45/78/10 46/77/10 42/79/10 41/80/10
f 43/81/11 47/76/11 45/78/11 41/82/11
f 48/75/12 44/83/12 42/84/12 46/77/12
f 49/85/7 50/86/7 52/87/7 51/88/7
f 51/88/8 52/87/8 56/89/8 55/90/8
f 55/90/9 56/89/9 54/91/9 53/92/9
f 53/92/10 54/91/10 50/93/10 49/94/10
f 51/95/11 55/90/11 53/92/11 49/96/11
f 56/89/12 52/97/12 50/98/12 54/91/12
f 57/99/7 58/100/7 60/101/7 59/102/7
f 59/102/8 60/101/8 64/103/8 63/104/8
f 63/104/9 64/103/9 62/105/9 61/106/9
f 61/106/10 62/105/10 58/107/10 57/108/10
f 59/109/11 63/104/11 61/106/11 57/110/11
f 64/103/12 60/111/12 58/112/12 62/105/12
f 65/113/7 66/114/7 68/115/7 67/116/7
f 67/116/8 68/115/8 72/117/8 71/118/8
f 71/118/9 72/117/9 70/119/9 69/120/9
f 69/120/10 70/119/10 66/121/10 65/122/10
f 67/123/11 71/118/11 69/120/11 65/124/11
f 72/117/12 68/125/12 66/126/12 70/119/12
f 73/127/10 74/128/10 76/129/10 75/130/10
f 75/130/7 76/129/7 80/131/7 79/132/7
f 79/132/8 80/131/8 78/133/8 77/134/8
f 77/134/9 78/133/9 74/135/9 73/136/9
f 75/137/11 79/132/11 77/134/11 73/138/11
f 80/131/12 76/139/12 74/140/12 78/133/12
f 81/141/10 82/142/10 84/143/10 83/144/10
f 83/144/7 84/143/7 88/145/7 87/146/7
f 87/146/8 88/145/8 86/147/8 85/148/8
f 85/148/9 86/147/9 82/149/9 81/150/9
f 83/151/11 87/146/11 85/148/11 81/152/11
f 88/145/12 84/153/12 82/154/12 86/147/12
f 89/155/10 90/156/10 92/157/10 91/158/10
f 91/158/7 92/157/7 96/159/7 95/160/7
f 95/160/8 96/159/8 94/161/8 93/162/8
f 93/162/9 94/161/9 90/163/9 89/164/9
f 91/165/11 95/160/11 93/162/11 89/166/11
f 96/159/12 92/167/12 90/168/12 94/161/12
f 97/169/10 98/170/10 100/171/10 99/172/10
f 99/172/7 100/171/7 104/173/7 103/174/7
f 103/174/8 104/173/8 102/175/8 101/176/8
f 101/176/9 102/175/9 98/177/9 97/178/9
f 99/179/11 103/174/11 101/176/11 97/180/11
f 104/173/12 100/181/12 98/182/12 102/175/12
