# Blender v2.91.2 OBJ File: 'Лофт.blend'
# www.blender.org
mtllib Лофт.mtl
o Cube.004_Cube.005
v 0.015011 0.885211 0.447642
v 0.015011 0.505190 0.447642
v 0.015011 0.885211 -0.447642
v 0.015011 0.505190 -0.447642
v -0.015011 0.885211 0.447642
v -0.015011 0.505190 0.447642
v -0.015011 0.885211 -0.447642
v -0.015011 0.505190 -0.447642
v -0.649926 0.000000 0.449720
v -0.649926 0.900000 0.449720
v -0.649926 0.000000 -0.449720
v -0.649926 0.900000 -0.449720
v -0.619904 0.000000 0.449720
v -0.619904 0.900000 0.449720
v -0.619904 0.000000 -0.449720
v -0.619904 0.900000 -0.449720
v 0.619904 0.000000 0.449720
v 0.619904 0.900000 0.449720
v 0.619904 0.000000 -0.449720
v 0.619904 0.900000 -0.449720
v 0.649926 0.000000 0.449720
v 0.649926 0.900000 0.449720
v 0.649926 0.000000 -0.449720
v 0.649926 0.900000 -0.449720
v -0.630574 0.526064 0.449206
v 0.630574 0.526064 0.449206
v -0.630574 0.526064 -0.449206
v 0.630574 0.526064 -0.449206
v -0.630574 0.496043 0.449206
v 0.630574 0.496043 0.449206
v -0.630574 0.496043 -0.449206
v 0.630574 0.496043 -0.449206
v -0.630574 0.899732 0.448667
v 0.630574 0.899732 0.448667
v -0.630574 0.899732 -0.448667
v 0.630574 0.899732 -0.448667
v -0.630574 0.869710 0.448667
v 0.630574 0.869711 0.448667
v -0.630574 0.869710 -0.448667
v 0.630574 0.869711 -0.448667
vt 0.375000 0.000000
vt 0.625000 0.000000
vt 0.625000 0.250000
vt 0.375000 0.250000
vt 0.625000 0.500000
vt 0.375000 0.500000
vt 0.625000 0.750000
vt 0.375000 0.750000
vt 0.625000 1.000000
vt 0.375000 1.000000
vt 0.125000 0.500000
vt 0.125000 0.750000
vt 0.875000 0.500000
vt 0.875000 0.750000
vt 0.375000 0.000000
vt 0.625000 0.000000
vt 0.625000 0.250000
vt 0.375000 0.250000
vt 0.625000 0.500000
vt 0.375000 0.500000
vt 0.625000 0.750000
vt 0.375000 0.750000
vt 0.625000 1.000000
vt 0.375000 1.000000
vt 0.125000 0.500000
vt 0.125000 0.750000
vt 0.875000 0.500000
vt 0.875000 0.750000
vt 0.375000 0.000000
vt 0.625000 0.000000
vt 0.625000 0.250000
vt 0.375000 0.250000
vt 0.625000 0.500000
vt 0.375000 0.500000
vt 0.625000 0.750000
vt 0.375000 0.750000
vt 0.625000 1.000000
vt 0.375000 1.000000
vt 0.125000 0.500000
vt 0.125000 0.750000
vt 0.875000 0.500000
vt 0.875000 0.750000
vt 0.375000 0.000000
vt 0.625000 0.000000
vt 0.625000 0.250000
vt 0.375000 0.250000
vt 0.625000 0.500000
vt 0.375000 0.500000
vt 0.625000 0.750000
vt 0.375000 0.750000
vt 0.625000 1.000000
vt 0.375000 1.000000
vt 0.125000 0.500000
vt 0.125000 0.750000
vt 0.875000 0.500000
vt 0.875000 0.750000
vt 0.375000 0.000000
vt 0.625000 0.000000
vt 0.625000 0.250000
vt 0.375000 0.250000
vt 0.625000 0.500000
vt 0.375000 0.500000
vt 0.625000 0.750000
vt 0.375000 0.750000
vt 0.625000 1.000000
vt 0.375000 1.000000
vt 0.125000 0.500000
vt 0.125000 0.750000
vt 0.875000 0.500000
vt 0.875000 0.750000
vn 1.0000 0.0000 0.0000
vn 0.0000 0.0000 -1.0000
vn -1.0000 -0.0000 0.0000
vn 0.0000 0.0000 1.0000
vn 0.0000 1.0000 0.0000
vn 0.0000 -1.0000 0.0000
usemtl Material.001
s off
f 1/1/1 2/2/1 4/3/1 3/4/1
f 3/4/2 4/3/2 8/5/2 7/6/2
f 7/6/3 8/5/3 6/7/3 5/8/3
f 5/8/4 6/7/4 2/9/4 1/10/4
f 3/11/5 7/6/5 5/8/5 1/12/5
f 8/5/6 4/13/6 2/14/6 6/7/6
f 9/15/3 10/16/3 12/17/3 11/18/3
f 11/18/2 12/17/2 16/19/2 15/20/2
f 15/20/1 16/19/1 14/21/1 13/22/1
f 13/22/4 14/21/4 10/23/4 9/24/4
f 11/25/6 15/20/6 13/22/6 9/26/6
f 16/19/5 12/27/5 10/28/5 14/21/5
f 17/29/3 18/30/3 20/31/3 19/32/3
f 19/32/2 20/31/2 24/33/2 23/34/2
f 23/34/1 24/33/1 22/35/1 21/36/1
f 21/36/4 22/35/4 18/37/4 17/38/4
f 19/39/6 23/34/6 21/36/6 17/40/6
f 24/33/5 20/41/5 18/42/5 22/35/5
f 25/43/5 26/44/5 28/45/5 27/46/5
f 27/46/2 28/45/2 32/47/2 31/48/2
f 31/48/6 32/47/6 30/49/6 29/50/6
f 29/50/4 30/49/4 26/51/4 25/52/4
f 27/53/3 31/48/3 29/50/3 25/54/3
f 32/47/1 28/55/1 26/56/1 30/49/1
f 33/57/5 34/58/5 36/59/5 35/60/5
f 35/60/2 36/59/2 40/61/2 39/62/2
f 39/62/6 40/61/6 38/63/6 37/64/6
f 37/64/4 38/63/4 34/65/4 33/66/4
f 35/67/3 39/62/3 37/64/3 33/68/3
f 40/61/1 36/69/1 34/70/1 38/63/1
