# Blender v2.91.2 OBJ File: 'Милан-5.blend'
# www.blender.org
mtllib Милан-5.mtl
o Cube.003_Cube.004
v 1.097800 1.371246 -0.600536
v 1.097800 1.371246 0.600535
v -1.097800 1.371246 -0.600535
v -1.097800 1.371246 0.600536
v 1.097800 1.401592 -0.600536
v 1.097800 1.401592 0.600535
v -1.097800 1.401592 -0.600535
v -1.097800 1.401592 0.600536
v -1.022553 -0.000406 0.543173
v -1.022553 1.371273 0.543173
v -1.022553 -0.000406 -0.547088
v -1.022553 1.371273 -0.547088
v -0.992207 -0.000406 0.543173
v -0.992207 1.371273 0.543173
v -0.992207 -0.000406 -0.547088
v -0.992207 1.371273 -0.547088
v 0.992207 -0.000406 0.543173
v 0.992207 1.371273 0.543173
v 0.992207 -0.000406 -0.547088
v 0.992207 1.371273 -0.547088
v 1.022553 -0.000406 0.543173
v 1.022553 1.371273 0.543173
v 1.022553 -0.000406 -0.547088
v 1.022553 1.371273 -0.547088
v 1.019598 0.459366 -0.519426
v 1.019598 1.384525 -0.519426
v -1.019598 0.459366 -0.519426
v -1.019598 1.384524 -0.519426
v 1.019598 0.459366 -0.547003
v 1.019598 1.384525 -0.547003
v -1.019598 0.459366 -0.547003
v -1.019598 1.384524 -0.547003
vt 0.375000 0.000000
vt 0.625000 0.000000
vt 0.625000 0.250000
vt 0.375000 0.250000
vt 0.625000 0.500000
vt 0.375000 0.500000
vt 0.625000 0.750000
vt 0.375000 0.750000
vt 0.625000 1.000000
vt 0.375000 1.000000
vt 0.125000 0.500000
vt 0.125000 0.750000
vt 0.875000 0.500000
vt 0.875000 0.750000
vt 0.375000 0.000000
vt 0.625000 0.000000
vt 0.625000 0.250000
vt 0.375000 0.250000
vt 0.625000 0.500000
vt 0.375000 0.500000
vt 0.625000 0.750000
vt 0.375000 0.750000
vt 0.625000 1.000000
vt 0.375000 1.000000
vt 0.125000 0.500000
vt 0.125000 0.750000
vt 0.875000 0.500000
vt 0.875000 0.750000
vt 0.375000 0.000000
vt 0.625000 0.000000
vt 0.625000 0.250000
vt 0.375000 0.250000
vt 0.625000 0.500000
vt 0.375000 0.500000
vt 0.625000 0.750000
vt 0.375000 0.750000
vt 0.625000 1.000000
vt 0.375000 1.000000
vt 0.125000 0.500000
vt 0.125000 0.750000
vt 0.875000 0.500000
vt 0.875000 0.750000
vt 0.375000 0.000000
vt 0.625000 0.000000
vt 0.625000 0.250000
vt 0.375000 0.250000
vt 0.625000 0.500000
vt 0.375000 0.500000
vt 0.625000 0.750000
vt 0.375000 0.750000
vt 0.625000 1.000000
vt 0.375000 1.000000
vt 0.125000 0.500000
vt 0.125000 0.750000
vt 0.875000 0.500000
vt 0.875000 0.750000
vn -0.0000 -1.0000 0.0000
vn -1.0000 0.0000 0.0000
vn 0.0000 1.0000 0.0000
vn 1.0000 0.0000 0.0000
vn -0.0000 0.0000 -1.0000
vn 0.0000 0.0000 1.0000
usemtl Material.001
s off
f 1/1/1 2/2/1 4/3/1 3/4/1
f 3/4/2 4/3/2 8/5/2 7/6/2
f 7/6/3 8/5/3 6/7/3 5/8/3
f 5/8/4 6/7/4 2/9/4 1/10/4
f 3/11/5 7/6/5 5/8/5 1/12/5
f 8/5/6 4/13/6 2/14/6 6/7/6
f 9/15/2 10/16/2 12/17/2 11/18/2
f 11/18/5 12/17/5 16/19/5 15/20/5
f 15/20/4 16/19/4 14/21/4 13/22/4
f 13/22/6 14/21/6 10/23/6 9/24/6
f 11/25/1 15/20/1 13/22/1 9/26/1
f 16/19/3 12/27/3 10/28/3 14/21/3
f 17/29/2 18/30/2 20/31/2 19/32/2
f 19/32/5 20/31/5 24/33/5 23/34/5
f 23/34/4 24/33/4 22/35/4 21/36/4
f 21/36/6 22/35/6 18/37/6 17/38/6
f 19/39/1 23/34/1 21/36/1 17/40/1
f 24/33/3 20/41/3 18/42/3 22/35/3
f 25/43/6 26/44/6 28/45/6 27/46/6
f 27/46/2 28/45/2 32/47/2 31/48/2
f 31/48/5 32/47/5 30/49/5 29/50/5
f 29/50/4 30/49/4 26/51/4 25/52/4
f 27/53/1 31/48/1 29/50/1 25/54/1
f 32/47/3 28/55/3 26/56/3 30/49/3
