# Blender v2.91.2 OBJ File: 'Прайм.blend'
# www.blender.org
mtllib Прайм.mtl
o Cube.001_Cube.002
v -0.943253 0.000682 -0.536487
v -0.943253 1.335151 -0.536487
v -1.059727 0.000682 -0.536487
v -1.059727 1.335151 -0.536487
v -0.943253 0.000682 -0.566549
v -0.943253 1.335151 -0.566549
v -1.059727 0.000682 -0.566549
v -1.059727 1.335151 -0.566549
v -1.059489 0.000682 -0.449454
v -1.059489 1.335151 -0.449454
v -1.059489 0.000682 -0.565928
v -1.059489 1.335151 -0.565928
v -1.029428 0.000682 -0.449454
v -1.029428 1.335151 -0.449454
v -1.029428 0.000682 -0.565928
v -1.029428 1.335151 -0.565928
v -0.943253 0.000682 0.536487
v -0.943253 1.335151 0.536487
v -1.059727 0.000682 0.536487
v -1.059727 1.335151 0.536487
v -0.943253 0.000682 0.566549
v -0.943253 1.335151 0.566549
v -1.059727 0.000682 0.566549
v -1.059727 1.335151 0.566549
v -1.059489 0.000682 0.449454
v -1.059489 1.335151 0.449454
v -1.059489 0.000682 0.565928
v -1.059489 1.335151 0.565928
v -1.029428 0.000682 0.449454
v -1.029428 1.335151 0.449454
v -1.029428 0.000682 0.565928
v -1.029428 1.335151 0.565928
v -1.100000 1.336090 0.600000
v -1.100000 1.391102 0.600000
v -1.100000 1.336090 -0.600000
v -1.100000 1.391102 -0.600000
v 1.100000 1.336090 0.600000
v 1.100000 1.391102 0.600000
v 1.100000 1.336090 -0.600000
v 1.100000 1.391102 -0.600000
v 0.943253 0.000682 -0.536487
v 0.943253 1.335151 -0.536487
v 1.059727 0.000682 -0.536487
v 1.059727 1.335151 -0.536487
v 0.943253 0.000682 -0.566549
v 0.943253 1.335151 -0.566549
v 1.059727 0.000682 -0.566549
v 1.059727 1.335151 -0.566549
v 1.059490 0.000682 -0.449454
v 1.059490 1.335151 -0.449454
v 1.059490 0.000682 -0.565928
v 1.059490 1.335151 -0.565928
v 1.029428 0.000682 -0.449454
v 1.029428 1.335151 -0.449454
v 1.029428 0.000682 -0.565928
v 1.029428 1.335151 -0.565928
v 0.943253 0.000682 0.536487
v 0.943253 1.335151 0.536487
v 1.059728 0.000682 0.536487
v 1.059728 1.335151 0.536487
v 0.943253 0.000682 0.566549
v 0.943253 1.335151 0.566549
v 1.059728 0.000682 0.566549
v 1.059728 1.335151 0.566549
v 1.059490 0.000682 0.449454
v 1.059490 1.335151 0.449454
v 1.059490 0.000682 0.565928
v 1.059490 1.335151 0.565928
v 1.029428 0.000682 0.449454
v 1.029428 1.335151 0.449454
v 1.029428 0.000682 0.565928
v 1.029428 1.335151 0.565928
v -0.950431 1.185244 0.558947
v -0.950431 1.336347 0.558947
v -0.950431 1.185244 0.536753
v -0.950431 1.336347 0.536753
v 0.950431 1.185244 0.558947
v 0.950431 1.336347 0.558947
v 0.950431 1.185244 0.536753
v 0.950431 1.336347 0.536753
v -0.950431 1.185244 -0.536753
v -0.950431 1.336347 -0.536753
v -0.950431 1.185244 -0.558947
v -0.950431 1.336347 -0.558947
v 0.950431 1.185244 -0.536753
v 0.950431 1.336347 -0.536753
v 0.950431 1.185244 -0.558947
v 0.950431 1.336347 -0.558947
v 1.052378 1.185244 0.457899
v 1.052378 1.336347 0.457899
v 1.030183 1.185244 0.457899
v 1.030183 1.336347 0.457899
v 1.052378 1.185244 -0.457899
v 1.052378 1.336347 -0.457899
v 1.030183 1.185244 -0.457899
v 1.030183 1.336347 -0.457899
v -1.030183 1.185244 0.457899
v -1.030183 1.336347 0.457899
v -1.052377 1.185244 0.457899
v -1.052377 1.336347 0.457899
v -1.030183 1.185244 -0.457899
v -1.030183 1.336347 -0.457899
v -1.052377 1.185244 -0.457899
v -1.052377 1.336347 -0.457899
vt 0.375000 0.000000
vt 0.625000 0.000000
vt 0.625000 0.250000
vt 0.375000 0.250000
vt 0.625000 0.500000
vt 0.375000 0.500000
vt 0.625000 0.750000
vt 0.375000 0.750000
vt 0.625000 1.000000
vt 0.375000 1.000000
vt 0.125000 0.500000
vt 0.125000 0.750000
vt 0.875000 0.500000
vt 0.875000 0.750000
vt 0.375000 0.000000
vt 0.625000 0.000000
vt 0.625000 0.250000
vt 0.375000 0.250000
vt 0.625000 0.500000
vt 0.375000 0.500000
vt 0.625000 0.750000
vt 0.375000 0.750000
vt 0.625000 1.000000
vt 0.375000 1.000000
vt 0.125000 0.500000
vt 0.125000 0.750000
vt 0.875000 0.500000
vt 0.875000 0.750000
vt 0.375000 0.000000
vt 0.625000 0.000000
vt 0.625000 0.250000
vt 0.375000 0.250000
vt 0.625000 0.500000
vt 0.375000 0.500000
vt 0.625000 0.750000
vt 0.375000 0.750000
vt 0.625000 1.000000
vt 0.375000 1.000000
vt 0.125000 0.500000
vt 0.125000 0.750000
vt 0.875000 0.500000
vt 0.875000 0.750000
vt 0.375000 0.000000
vt 0.625000 0.000000
vt 0.625000 0.250000
vt 0.375000 0.250000
vt 0.625000 0.500000
vt 0.375000 0.500000
vt 0.625000 0.750000
vt 0.375000 0.750000
vt 0.625000 1.000000
vt 0.375000 1.000000
vt 0.125000 0.500000
vt 0.125000 0.750000
vt 0.875000 0.500000
vt 0.875000 0.750000
vt 0.375000 0.000000
vt 0.625000 0.000000
vt 0.625000 0.250000
vt 0.375000 0.250000
vt 0.625000 0.500000
vt 0.375000 0.500000
vt 0.625000 0.750000
vt 0.375000 0.750000
vt 0.625000 1.000000
vt 0.375000 1.000000
vt 0.125000 0.500000
vt 0.125000 0.750000
vt 0.875000 0.500000
vt 0.875000 0.750000
vt 0.375000 0.000000
vt 0.625000 0.000000
vt 0.625000 0.250000
vt 0.375000 0.250000
vt 0.625000 0.500000
vt 0.375000 0.500000
vt 0.625000 0.750000
vt 0.375000 0.750000
vt 0.625000 1.000000
vt 0.375000 1.000000
vt 0.125000 0.500000
vt 0.125000 0.750000
vt 0.875000 0.500000
vt 0.875000 0.750000
vt 0.375000 0.000000
vt 0.625000 0.000000
vt 0.625000 0.250000
vt 0.375000 0.250000
vt 0.625000 0.500000
vt 0.375000 0.500000
vt 0.625000 0.750000
vt 0.375000 0.750000
vt 0.625000 1.000000
vt 0.375000 1.000000
vt 0.125000 0.500000
vt 0.125000 0.750000
vt 0.875000 0.500000
vt 0.875000 0.750000
vt 0.375000 0.000000
vt 0.625000 0.000000
vt 0.625000 0.250000
vt 0.375000 0.250000
vt 0.625000 0.500000
vt 0.375000 0.500000
vt 0.625000 0.750000
vt 0.375000 0.750000
vt 0.625000 1.000000
vt 0.375000 1.000000
vt 0.125000 0.500000
vt 0.125000 0.750000
vt 0.875000 0.500000
vt 0.875000 0.750000
vt 0.375000 0.000000
vt 0.625000 0.000000
vt 0.625000 0.250000
vt 0.375000 0.250000
vt 0.625000 0.500000
vt 0.375000 0.500000
vt 0.625000 0.750000
vt 0.375000 0.750000
vt 0.625000 1.000000
vt 0.375000 1.000000
vt 0.125000 0.500000
vt 0.125000 0.750000
vt 0.875000 0.500000
vt 0.875000 0.750000
vt 0.375000 0.000000
vt 0.625000 0.000000
vt 0.625000 0.250000
vt 0.375000 0.250000
vt 0.625000 0.500000
vt 0.375000 0.500000
vt 0.625000 0.750000
vt 0.375000 0.750000
vt 0.625000 1.000000
vt 0.375000 1.000000
vt 0.125000 0.500000
vt 0.125000 0.750000
vt 0.875000 0.500000
vt 0.875000 0.750000
vt 0.375000 0.000000
vt 0.625000 0.000000
vt 0.625000 0.250000
vt 0.375000 0.250000
vt 0.625000 0.500000
vt 0.375000 0.500000
vt 0.625000 0.750000
vt 0.375000 0.750000
vt 0.625000 1.000000
vt 0.375000 1.000000
vt 0.125000 0.500000
vt 0.125000 0.750000
vt 0.875000 0.500000
vt 0.875000 0.750000
vt 0.375000 0.000000
vt 0.625000 0.000000
vt 0.625000 0.250000
vt 0.375000 0.250000
vt 0.625000 0.500000
vt 0.375000 0.500000
vt 0.625000 0.750000
vt 0.375000 0.750000
vt 0.625000 1.000000
vt 0.375000 1.000000
vt 0.125000 0.500000
vt 0.125000 0.750000
vt 0.875000 0.500000
vt 0.875000 0.750000
vt 0.375000 0.000000
vt 0.625000 0.000000
vt 0.625000 0.250000
vt 0.375000 0.250000
vt 0.625000 0.500000
vt 0.375000 0.500000
vt 0.625000 0.750000
vt 0.375000 0.750000
vt 0.625000 1.000000
vt 0.375000 1.000000
vt 0.125000 0.500000
vt 0.125000 0.750000
vt 0.875000 0.500000
vt 0.875000 0.750000
vn 0.0000 0.0000 1.0000
vn -1.0000 0.0000 0.0000
vn 0.0000 0.0000 -1.0000
vn 1.0000 0.0000 0.0000
vn 0.0000 -1.0000 0.0000
vn 0.0000 1.0000 0.0000
usemtl Material.001
s off
f 1/1/1 2/2/1 4/3/1 3/4/1
f 3/4/2 4/3/2 8/5/2 7/6/2
f 7/6/3 8/5/3 6/7/3 5/8/3
f 5/8/4 6/7/4 2/9/4 1/10/4
f 3/11/5 7/6/5 5/8/5 1/12/5
f 8/5/6 4/13/6 2/14/6 6/7/6
f 9/15/2 10/16/2 12/17/2 11/18/2
f 11/18/3 12/17/3 16/19/3 15/20/3
f 15/20/4 16/19/4 14/21/4 13/22/4
f 13/22/1 14/21/1 10/23/1 9/24/1
f 11/25/5 15/20/5 13/22/5 9/26/5
f 16/19/6 12/27/6 10/28/6 14/21/6
f 17/29/1 18/30/1 20/31/1 19/32/1
f 19/32/4 20/31/4 24/33/4 23/34/4
f 23/34/3 24/33/3 22/35/3 21/36/3
f 21/36/2 22/35/2 18/37/2 17/38/2
f 19/39/6 23/34/6 21/36/6 17/40/6
f 24/33/5 20/41/5 18/42/5 22/35/5
f 25/43/4 26/44/4 28/45/4 27/46/4
f 27/46/3 28/45/3 32/47/3 31/48/3
f 31/48/2 32/47/2 30/49/2 29/50/2
f 29/50/1 30/49/1 26/51/1 25/52/1
f 27/53/6 31/48/6 29/50/6 25/54/6
f 32/47/5 28/55/5 26/56/5 30/49/5
f 33/57/2 34/58/2 36/59/2 35/60/2
f 35/60/3 36/59/3 40/61/3 39/62/3
f 39/62/4 40/61/4 38/63/4 37/64/4
f 37/64/1 38/63/1 34/65/1 33/66/1
f 35/67/5 39/62/5 37/64/5 33/68/5
f 40/61/6 36/69/6 34/70/6 38/63/6
f 41/71/3 42/72/3 44/73/3 43/74/3
f 43/74/2 44/73/2 48/75/2 47/76/2
f 47/76/1 48/75/1 46/77/1 45/78/1
f 45/78/4 46/77/4 42/79/4 41/80/4
f 43/81/6 47/76/6 45/78/6 41/82/6
f 48/75/5 44/83/5 42/84/5 46/77/5
f 49/85/2 50/86/2 52/87/2 51/88/2
f 51/88/1 52/87/1 56/89/1 55/90/1
f 55/90/4 56/89/4 54/91/4 53/92/4
f 53/92/3 54/91/3 50/93/3 49/94/3
f 51/95/6 55/90/6 53/92/6 49/96/6
f 56/89/5 52/97/5 50/98/5 54/91/5
f 57/99/3 58/100/3 60/101/3 59/102/3
f 59/102/4 60/101/4 64/103/4 63/104/4
f 63/104/1 64/103/1 62/105/1 61/106/1
f 61/106/2 62/105/2 58/107/2 57/108/2
f 59/109/5 63/104/5 61/106/5 57/110/5
f 64/103/6 60/111/6 58/112/6 62/105/6
f 65/113/4 66/114/4 68/115/4 67/116/4
f 67/116/1 68/115/1 72/117/1 71/118/1
f 71/118/2 72/117/2 70/119/2 69/120/2
f 69/120/3 70/119/3 66/121/3 65/122/3
f 67/123/5 71/118/5 69/120/5 65/124/5
f 72/117/6 68/125/6 66/126/6 70/119/6
f 73/127/2 74/128/2 76/129/2 75/130/2
f 75/130/3 76/129/3 80/131/3 79/132/3
f 79/132/4 80/131/4 78/133/4 77/134/4
f 77/134/1 78/133/1 74/135/1 73/136/1
f 75/137/5 79/132/5 77/134/5 73/138/5
f 80/131/6 76/139/6 74/140/6 78/133/6
f 81/141/2 82/142/2 84/143/2 83/144/2
f 83/144/3 84/143/3 88/145/3 87/146/3
f 87/146/4 88/145/4 86/147/4 85/148/4
f 85/148/1 86/147/1 82/149/1 81/150/1
f 83/151/5 87/146/5 85/148/5 81/152/5
f 88/145/6 84/153/6 82/154/6 86/147/6
f 89/155/1 90/156/1 92/157/1 91/158/1
f 91/158/2 92/157/2 96/159/2 95/160/2
f 95/160/3 96/159/3 94/161/3 93/162/3
f 93/162/4 94/161/4 90/163/4 89/164/4
f 91/165/5 95/160/5 93/162/5 89/166/5
f 96/159/6 92/167/6 90/168/6 94/161/6
f 97/169/1 98/170/1 100/171/1 99/172/1
f 99/172/2 100/171/2 104/173/2 103/174/2
f 103/174/3 104/173/3 102/175/3 101/176/3
f 101/176/4 102/175/4 98/177/4 97/178/4
f 99/179/5 103/174/5 101/176/5 97/180/5
f 104/173/6 100/181/6 98/182/6 102/175/6
