# Blender v2.91.2 OBJ File: 'Уно-3.blend'
# www.blender.org
mtllib Уно-3.mtl
o Cube.004_Cube.005
v 0.815080 0.214101 0.022811
v 0.815080 0.534101 0.022811
v -0.815080 0.214101 0.022811
v -0.815080 0.534101 0.022811
v 0.815080 0.214101 -0.022811
v 0.815080 0.534101 -0.022811
v -0.815080 0.214101 -0.022811
v -0.815080 0.534101 -0.022811
v 0.797562 -0.000000 0.535091
v 0.797562 1.482486 0.535091
v 0.797562 -0.000000 -0.535091
v 0.797562 1.482486 -0.535091
v 0.843184 -0.000000 0.535091
v 0.843184 1.482486 0.535091
v 0.843184 -0.000000 -0.535091
v 0.843184 1.482486 -0.535091
v -0.843184 -0.000000 0.535091
v -0.843184 1.482486 0.535091
v -0.843184 -0.000000 -0.535091
v -0.843184 1.482486 -0.535091
v -0.797562 -0.000000 0.535091
v -0.797562 1.482486 0.535091
v -0.797562 -0.000000 -0.535091
v -0.797562 1.482486 -0.535091
v -1.195763 1.519860 0.771688
v 1.195763 1.519860 0.771688
v -1.195763 1.519860 -0.771688
v 1.195763 1.519860 -0.771688
v -1.195763 1.474238 0.771688
v 1.195763 1.474238 0.771688
v -1.195763 1.474238 -0.771688
v 1.195763 1.474238 -0.771688
v 0.815080 1.157276 0.022811
v 0.815080 1.477276 0.022811
v -0.815080 1.157276 0.022811
v -0.815080 1.477276 0.022811
v 0.815080 1.157276 -0.022811
v 0.815080 1.477276 -0.022811
v -0.815080 1.157276 -0.022811
v -0.815080 1.477276 -0.022811
vt -0.365034 -2.960135
vt 1.365034 -2.960135
vt 1.365034 -1.230068
vt -0.365034 -1.230068
vt 1.365034 0.500000
vt -0.365034 0.500000
vt 1.365034 2.230068
vt -0.365034 2.230068
vt 1.365034 3.960135
vt -0.365034 3.960135
vt -2.095102 0.500000
vt -2.095102 2.230068
vt 3.095102 0.500000
vt 3.095102 2.230068
vt -0.365034 -2.960135
vt 1.365034 -2.960135
vt 1.365034 -1.230068
vt -0.365034 -1.230068
vt 1.365034 0.500000
vt -0.365034 0.500000
vt 1.365034 2.230068
vt -0.365034 2.230068
vt 1.365034 3.960135
vt -0.365034 3.960135
vt -2.095102 0.500000
vt -2.095102 2.230068
vt 3.095102 0.500000
vt 3.095102 2.230068
vt -0.365034 -2.960135
vt 1.365034 -2.960135
vt 1.365034 -1.230068
vt -0.365034 -1.230068
vt 1.365034 0.500000
vt -0.365034 0.500000
vt 1.365034 2.230068
vt -0.365034 2.230068
vt 1.365034 3.960135
vt -0.365034 3.960135
vt -2.095102 0.500000
vt -2.095102 2.230068
vt 3.095102 0.500000
vt 3.095102 2.230068
vt -0.365034 -2.960135
vt 1.365034 -2.960135
vt 1.365034 -1.230068
vt -0.365034 -1.230068
vt 1.365034 0.500000
vt -0.365034 0.500000
vt 1.365034 2.230068
vt -0.365034 2.230068
vt 1.365034 3.960135
vt -0.365034 3.960135
vt -2.095102 0.500000
vt -2.095102 2.230068
vt 3.095102 0.500000
vt 3.095102 2.230068
vt -0.365034 -2.960135
vt 1.365034 -2.960135
vt 1.365034 -1.230068
vt -0.365034 -1.230068
vt 1.365034 0.500000
vt -0.365034 0.500000
vt 1.365034 2.230068
vt -0.365034 2.230068
vt 1.365034 3.960135
vt -0.365034 3.960135
vt -2.095102 0.500000
vt -2.095102 2.230068
vt 3.095102 0.500000
vt 3.095102 2.230068
vn 0.0000 0.0000 1.0000
vn -1.0000 0.0000 0.0000
vn -0.0000 0.0000 -1.0000
vn 1.0000 0.0000 0.0000
vn 0.0000 -1.0000 0.0000
vn 0.0000 1.0000 0.0000
usemtl Material.001
s off
f 1/1/1 2/2/1 4/3/1 3/4/1
f 3/4/2 4/3/2 8/5/2 7/6/2
f 7/6/3 8/5/3 6/7/3 5/8/3
f 5/8/4 6/7/4 2/9/4 1/10/4
f 3/11/5 7/6/5 5/8/5 1/12/5
f 8/5/6 4/13/6 2/14/6 6/7/6
f 9/15/2 10/16/2 12/17/2 11/18/2
f 11/18/3 12/17/3 16/19/3 15/20/3
f 15/20/4 16/19/4 14/21/4 13/22/4
f 13/22/1 14/21/1 10/23/1 9/24/1
f 11/25/5 15/20/5 13/22/5 9/26/5
f 16/19/6 12/27/6 10/28/6 14/21/6
f 17/29/2 18/30/2 20/31/2 19/32/2
f 19/32/3 20/31/3 24/33/3 23/34/3
f 23/34/4 24/33/4 22/35/4 21/36/4
f 21/36/1 22/35/1 18/37/1 17/38/1
f 19/39/5 23/34/5 21/36/5 17/40/5
f 24/33/6 20/41/6 18/42/6 22/35/6
f 25/43/6 26/44/6 28/45/6 27/46/6
f 27/46/3 28/45/3 32/47/3 31/48/3
f 31/48/5 32/47/5 30/49/5 29/50/5
f 29/50/1 30/49/1 26/51/1 25/52/1
f 27/53/2 31/48/2 29/50/2 25/54/2
f 32/47/4 28/55/4 26/56/4 30/49/4
f 33/57/1 34/58/1 36/59/1 35/60/1
f 35/60/2 36/59/2 40/61/2 39/62/2
f 39/62/3 40/61/3 38/63/3 37/64/3
f 37/64/4 38/63/4 34/65/4 33/66/4
f 35/67/5 39/62/5 37/64/5 33/68/5
f 40/61/6 36/69/6 34/70/6 38/63/6
